SplineFontDB: 3.0
FontName: PinyonScript
FullName: Pinyon Script
FamilyName: Pinyon Script
Weight: Book
Copyright: Copyright (c) 2010 by Sorkin Type Co with Reserved Font Name Pinyon Script.\n\nThis Font Software is licensed under the SIL Open Font License, Version 1.1. This license is copied below, and is also available with a FAQ at: http://scripts.sil.org/OFL
Version: 1.005
ItalicAngle: -35
UnderlinePosition: -50
UnderlineWidth: 50
Ascent: 1638
Descent: 410
LayerCount: 2
Layer: 0 1 "Back"  1
Layer: 1 1 "Fore"  0
XUID: [1021 631 1661839179 1513141]
FSType: 0
OS2Version: 3
OS2_WeightWidthSlopeOnly: 0
OS2_UseTypoMetrics: 1
CreationTime: 1315272840
ModificationTime: 1315323823
PfmFamily: 17
TTFWeight: 400
TTFWidth: 5
LineGap: 0
VLineGap: 0
Panose: 2 1 5 1 8 1 1 13 0 2
OS2TypoAscent: 262
OS2TypoAOffset: 1
OS2TypoDescent: -250
OS2TypoDOffset: 1
OS2TypoLinegap: 0
OS2WinAscent: 160
OS2WinAOffset: 1
OS2WinDescent: 17
OS2WinDOffset: 1
HheadAscent: 160
HheadAOffset: 1
HheadDescent: -17
HheadDOffset: 1
OS2SubXSize: 1434
OS2SubYSize: 1331
OS2SubXOff: 0
OS2SubYOff: 287
OS2SupXSize: 1434
OS2SupYSize: 1331
OS2SupXOff: 0
OS2SupYOff: 977
OS2StrikeYSize: 80
OS2StrikeYPos: 540
OS2Vendor: 'STC '
OS2CodePages: 20000111.40000000
OS2UnicodeRanges: 800000af.00000002.00000000.00000000
DEI: 91125
TtTable: prep
PUSHW_1
 511
SCANCTRL
PUSHB_1
 4
SCANTYPE
EndTTInstrs
ShortTable: maxp 16
  1
  0
  262
  293
  6
  0
  0
  1
  0
  0
  0
  0
  0
  0
  0
  0
EndShort

StartChar: a
Encoding: 97 97 5
Width: 885
Flags: W
LayerCount: 2
Fore
SplineSet
22 -5 m 0,0,1
 -44 -5 -44 -5 -73 29.5 c 128,-1,2
 -102 64 -102 64 -102 127 c 0,3,4
 -102 193 -102 193 -74 268 c 128,-1,5
 -46 343 -46 343 20 418 c 0,6,7
 87 495 87 495 149 545 c 128,-1,8
 211 595 211 595 269 624 c 128,-1,9
 327 653 327 653 381.5 664.5 c 128,-1,10
 436 676 436 676 487 676 c 0,11,12
 541 676 541 676 576.5 654 c 128,-1,13
 612 632 612 632 612 592 c 0,14,15
 612 573 612 573 604 546 c 1,16,17
 632 579 632 579 652.5 605.5 c 128,-1,18
 673 632 673 632 692 656 c 1,19,20
 703 654 703 654 719.5 651 c 128,-1,21
 736 648 736 648 753 648 c 0,22,23
 759 648 759 648 769.5 648 c 128,-1,24
 780 648 780 648 791.5 649 c 128,-1,25
 803 650 803 650 814 651 c 128,-1,26
 825 652 825 652 834 655 c 1,27,-1
 497 249 l 2,28,29
 434 173 434 173 406.5 128 c 128,-1,30
 379 83 379 83 380 57 c 1,31,32
 380 29 380 29 408 29 c 0,33,34
 449 29 449 29 497 51.5 c 128,-1,35
 545 74 545 74 593.5 109 c 128,-1,36
 642 144 642 144 689 187 c 128,-1,37
 736 230 736 230 776 271.5 c 128,-1,38
 816 313 816 313 846 348.5 c 128,-1,39
 876 384 876 384 891 403 c 1,40,-1
 916 382 l 1,41,42
 896 362 896 362 863 325 c 128,-1,43
 830 288 830 288 789 245 c 128,-1,44
 748 202 748 202 700 157.5 c 128,-1,45
 652 113 652 113 600.5 77 c 128,-1,46
 549 41 549 41 496.5 18 c 128,-1,47
 444 -5 444 -5 393 -5 c 0,48,49
 291 -5 291 -5 291 59 c 0,50,51
 291 76 291 76 295 93 c 128,-1,52
 299 110 299 110 312 132 c 128,-1,53
 325 154 325 154 348 185 c 128,-1,54
 371 216 371 216 409 262 c 1,55,56
 408 262 408 262 407 263 c 128,-1,57
 406 264 406 264 405 264 c 0,58,59
 345 190 345 190 288.5 139 c 128,-1,60
 232 88 232 88 182.5 56 c 128,-1,61
 133 24 133 24 92 9.5 c 128,-1,62
 51 -5 51 -5 22 -5 c 0,0,1
27 31 m 0,63,64
 58 31 58 31 99 49 c 128,-1,65
 140 67 140 67 192 105.5 c 128,-1,66
 244 144 244 144 305.5 204 c 128,-1,67
 367 264 367 264 438 347 c 1,68,-1
 448 361 l 1,69,-1
 512 436 l 1,70,71
 537 471 537 471 557.5 510.5 c 128,-1,72
 578 550 578 550 578 584 c 0,73,74
 578 613 578 613 558 626.5 c 128,-1,75
 538 640 538 640 513 640 c 256,76,77
 488 640 488 640 448 623 c 128,-1,78
 408 606 408 606 357 571 c 128,-1,79
 306 536 306 536 246.5 481 c 128,-1,80
 187 426 187 426 123 350 c 0,81,82
 48 262 48 262 16.5 194 c 128,-1,83
 -15 126 -15 126 -15 78 c 0,84,85
 -15 52 -15 52 -4.5 41.5 c 128,-1,86
 6 31 6 31 27 31 c 0,63,64
EndSplineSet
EndChar

StartChar: b
Encoding: 98 98 6
Width: 782
Flags: W
LayerCount: 2
Fore
SplineSet
32 -13 m 0,0,1
 -1 -13 -1 -13 -25 -2.5 c 128,-1,2
 -49 8 -49 8 -65 25.5 c 128,-1,3
 -81 43 -81 43 -88.5 66.5 c 128,-1,4
 -96 90 -96 90 -96 116 c 0,5,6
 -96 164 -96 164 -79.5 217 c 128,-1,7
 -63 270 -63 270 -31.5 331.5 c 128,-1,8
 0 393 0 393 45 464 c 128,-1,9
 90 535 90 535 146 619 c 0,10,11
 185 677 185 677 238 748 c 128,-1,12
 291 819 291 819 353 895.5 c 128,-1,13
 415 972 415 972 484 1050.5 c 128,-1,14
 553 1129 553 1129 623.5 1202.5 c 128,-1,15
 694 1276 694 1276 764.5 1340 c 128,-1,16
 835 1404 835 1404 900 1451.5 c 128,-1,17
 965 1499 965 1499 1022 1526.5 c 128,-1,18
 1079 1554 1079 1554 1123 1554 c 0,19,20
 1160 1554 1160 1554 1179 1538.5 c 128,-1,21
 1198 1523 1198 1523 1198 1495 c 0,22,23
 1198 1444 1198 1444 1171 1380 c 128,-1,24
 1144 1316 1144 1316 1093 1246 c 128,-1,25
 1042 1176 1042 1176 968 1102.5 c 128,-1,26
 894 1029 894 1029 800 959 c 128,-1,27
 706 889 706 889 593.5 825.5 c 128,-1,28
 481 762 481 762 353 711 c 1,29,30
 240 572 240 572 165 471 c 128,-1,31
 90 370 90 370 45.5 298 c 128,-1,32
 1 226 1 226 -17.5 178.5 c 128,-1,33
 -36 131 -36 131 -36 99 c 0,34,35
 -36 73 -36 73 -30 57.5 c 128,-1,36
 -24 42 -24 42 -14 33 c 128,-1,37
 -4 24 -4 24 8.5 21 c 128,-1,38
 21 18 21 18 35 18 c 0,39,40
 82 18 82 18 133 33.5 c 128,-1,41
 184 49 184 49 233.5 80 c 128,-1,42
 283 111 283 111 328 158 c 128,-1,43
 373 205 373 205 409 269 c 1,44,45
 430 294 430 294 443 328.5 c 128,-1,46
 456 363 456 363 463.5 395.5 c 128,-1,47
 471 428 471 428 473.5 453 c 128,-1,48
 476 478 476 478 476 484 c 2,49,-1
 476 490 l 2,50,51
 476 514 476 514 470.5 530 c 128,-1,52
 465 546 465 546 465 569 c 0,53,54
 465 581 465 581 468.5 594.5 c 128,-1,55
 472 608 472 608 479.5 620 c 128,-1,56
 487 632 487 632 499 639.5 c 128,-1,57
 511 647 511 647 529 647 c 0,58,59
 561 647 561 647 575 621 c 128,-1,60
 589 595 589 595 589 557 c 0,61,62
 589 520 589 520 580.5 483.5 c 128,-1,63
 572 447 572 447 558.5 413 c 128,-1,64
 545 379 545 379 529 349 c 128,-1,65
 513 319 513 319 498 296 c 1,66,67
 496 291 496 291 496 285.5 c 128,-1,68
 496 280 496 280 496 274 c 0,69,70
 496 267 496 267 495.5 257 c 128,-1,71
 495 247 495 247 499.5 237 c 128,-1,72
 504 227 504 227 514.5 219 c 128,-1,73
 525 211 525 211 548 210 c 0,74,75
 569 210 569 210 593 221.5 c 128,-1,76
 617 233 617 233 641.5 250.5 c 128,-1,77
 666 268 666 268 689 290 c 128,-1,78
 712 312 712 312 732 333.5 c 128,-1,79
 752 355 752 355 767.5 373.5 c 128,-1,80
 783 392 783 392 791 403 c 1,81,-1
 816 382 l 1,82,-1
 796 360 l 2,83,84
 776 337 776 337 747 306 c 128,-1,85
 718 275 718 275 685 247 c 128,-1,86
 652 219 652 219 616.5 199.5 c 128,-1,87
 581 180 581 180 548 180 c 0,88,89
 506 180 506 180 487 197.5 c 128,-1,90
 468 215 468 215 464 246 c 1,91,92
 405 175 405 175 346.5 125.5 c 128,-1,93
 288 76 288 76 232.5 45.5 c 128,-1,94
 177 15 177 15 126 1 c 128,-1,95
 75 -13 75 -13 32 -13 c 0,0,1
393 759 m 1,96,97
 496 800 496 800 592.5 860 c 128,-1,98
 689 920 689 920 774 989 c 128,-1,99
 859 1058 859 1058 929.5 1131.5 c 128,-1,100
 1000 1205 1000 1205 1051 1273 c 128,-1,101
 1102 1341 1102 1341 1130 1399 c 128,-1,102
 1158 1457 1158 1457 1158 1495 c 0,103,104
 1158 1528 1158 1528 1123 1528 c 0,105,106
 1086 1528 1086 1528 1034 1489 c 128,-1,107
 982 1450 982 1450 918.5 1384 c 128,-1,108
 855 1318 855 1318 782 1230.5 c 128,-1,109
 709 1143 709 1143 629 1046 c 2,110,-1
 393 759 l 1,96,97
EndSplineSet
EndChar

StartChar: c
Encoding: 99 99 7
Width: 653
Flags: W
LayerCount: 2
Fore
SplineSet
82 -9 m 0,0,1
 29 -9 29 -9 -10 5 c 128,-1,2
 -49 19 -49 19 -74.5 43.5 c 128,-1,3
 -100 68 -100 68 -112.5 100.5 c 128,-1,4
 -125 133 -125 133 -125 171 c 0,5,6
 -125 236 -125 236 -95 307 c 128,-1,7
 -65 378 -65 378 -2 453 c 0,8,9
 50 514 50 514 107 557 c 128,-1,10
 164 600 164 600 220 626 c 128,-1,11
 276 652 276 652 328 664 c 128,-1,12
 380 676 380 676 423 676 c 0,13,14
 460 676 460 676 484.5 667.5 c 128,-1,15
 509 659 509 659 524 645 c 128,-1,16
 539 631 539 631 546 614 c 128,-1,17
 553 597 553 597 554 581 c 1,18,19
 554 559 554 559 545 539 c 128,-1,20
 536 519 536 519 521 504 c 128,-1,21
 506 489 506 489 487 480 c 128,-1,22
 468 471 468 471 447 471 c 0,23,24
 436 471 436 471 424 475 c 128,-1,25
 412 479 412 479 402 486.5 c 128,-1,26
 392 494 392 494 386 505.5 c 128,-1,27
 380 517 380 517 380 532 c 0,28,29
 380 561 380 561 402 580.5 c 128,-1,30
 424 600 424 600 457 600 c 0,31,32
 481 600 481 600 504 591 c 1,33,34
 502 614 502 614 486 629 c 128,-1,35
 470 644 470 644 432 644 c 0,36,37
 366 644 366 644 274.5 570.5 c 128,-1,38
 183 497 183 497 69 349 c 1,39,40
 21 283 21 283 -1.5 225 c 128,-1,41
 -24 167 -24 167 -24 127 c 0,42,43
 -24 106 -24 106 -16 87.5 c 128,-1,44
 -8 69 -8 69 7 55 c 128,-1,45
 22 41 22 41 42.5 33 c 128,-1,46
 63 25 63 25 87 25 c 0,47,48
 159 25 159 25 225 47 c 128,-1,49
 291 69 291 69 349 104 c 128,-1,50
 407 139 407 139 456.5 181.5 c 128,-1,51
 506 224 506 224 544.5 264.5 c 128,-1,52
 583 305 583 305 610 339 c 128,-1,53
 637 373 637 373 650 390 c 1,54,-1
 659 403 l 1,55,-1
 685 383 l 1,56,-1
 673 367 l 2,57,58
 660 350 660 350 632.5 315 c 128,-1,59
 605 280 605 280 564.5 238.5 c 128,-1,60
 524 197 524 197 472.5 153 c 128,-1,61
 421 109 421 109 359.5 73 c 128,-1,62
 298 37 298 37 228 14 c 128,-1,63
 158 -9 158 -9 82 -9 c 0,0,1
EndSplineSet
EndChar

StartChar: d
Encoding: 100 100 8
Width: 856
Flags: W
LayerCount: 2
Fore
SplineSet
-8 -5 m 0,0,1
 -72 -5 -72 -5 -103.5 29.5 c 128,-1,2
 -135 64 -135 64 -135 127 c 0,3,4
 -135 193 -135 193 -106.5 267.5 c 128,-1,5
 -78 342 -78 342 -12 418 c 0,6,7
 55 495 55 495 118 545 c 128,-1,8
 181 595 181 595 240 624 c 128,-1,9
 299 653 299 653 353.5 664.5 c 128,-1,10
 408 676 408 676 457 676 c 0,11,12
 478 676 478 676 499.5 670.5 c 128,-1,13
 521 665 521 665 539 654.5 c 128,-1,14
 557 644 557 644 568.5 628.5 c 128,-1,15
 580 613 580 613 580 592 c 2,16,-1
 580 587 l 1,17,-1
 670 716 l 2,18,19
 728 799 728 799 796.5 898 c 128,-1,20
 865 997 865 997 941.5 1106.5 c 128,-1,21
 1018 1216 1018 1216 1100.5 1333.5 c 128,-1,22
 1183 1451 1183 1451 1268 1571 c 1,23,24
 1283 1564 1283 1564 1304.5 1559 c 128,-1,25
 1326 1554 1326 1554 1352 1554 c 0,26,27
 1361 1554 1361 1554 1373 1555 c 128,-1,28
 1385 1556 1385 1556 1401 1559 c 1,29,-1
 462 243 l 1,30,31
 405 168 405 168 377 123.5 c 128,-1,32
 349 79 349 79 349 54 c 0,33,34
 349 42 349 42 353 36.5 c 128,-1,35
 357 31 357 31 371 31 c 0,36,37
 424 31 424 31 478.5 56 c 128,-1,38
 533 81 533 81 584.5 119 c 128,-1,39
 636 157 636 157 682.5 202.5 c 128,-1,40
 729 248 729 248 766 289.5 c 128,-1,41
 803 331 803 331 828.5 362 c 128,-1,42
 854 393 854 393 864 403 c 1,43,-1
 889 382 l 1,44,45
 882 375 882 375 856 343.5 c 128,-1,46
 830 312 830 312 790.5 269 c 128,-1,47
 751 226 751 226 700 178 c 128,-1,48
 649 130 649 130 592 89 c 128,-1,49
 535 48 535 48 474.5 21.5 c 128,-1,50
 414 -5 414 -5 355 -5 c 0,51,52
 304 -5 304 -5 283 14.5 c 128,-1,53
 262 34 262 34 262 65 c 1,54,55
 264 99 264 99 291.5 144.5 c 128,-1,56
 319 190 319 190 379 262 c 1,57,58
 377 262 377 262 375 264 c 1,59,60
 308 189 308 189 251.5 138 c 128,-1,61
 195 87 195 87 147.5 55 c 128,-1,62
 100 23 100 23 61 9 c 128,-1,63
 22 -5 22 -5 -8 -5 c 0,0,1
-1 31 m 0,64,65
 23 31 23 31 63 47.5 c 128,-1,66
 103 64 103 64 156 101.5 c 128,-1,67
 209 139 209 139 273 199 c 128,-1,68
 337 259 337 259 409 347 c 0,69,70
 413 351 413 351 418 359 c 2,71,-1
 420 362 l 2,72,73
 427 372 427 372 447.5 397 c 128,-1,74
 468 422 468 422 490 454 c 128,-1,75
 512 486 512 486 528.5 520.5 c 128,-1,76
 545 555 545 555 545 584 c 0,77,78
 545 598 545 598 538.5 608.5 c 128,-1,79
 532 619 532 619 521.5 626 c 128,-1,80
 511 633 511 633 498.5 636.5 c 128,-1,81
 486 640 486 640 473 640 c 0,82,83
 450 640 450 640 411 621 c 128,-1,84
 372 602 372 602 322 565.5 c 128,-1,85
 272 529 272 529 213.5 474 c 128,-1,86
 155 419 155 419 93 347 c 1,87,88
 23 262 23 262 -12 192.5 c 128,-1,89
 -47 123 -47 123 -47 78 c 0,90,91
 -47 52 -47 52 -34.5 41.5 c 128,-1,92
 -22 31 -22 31 -1 31 c 0,64,65
EndSplineSet
EndChar

StartChar: e
Encoding: 101 101 9
Width: 662
Flags: W
LayerCount: 2
Fore
SplineSet
93 -9 m 0,0,1
 43 -9 43 -9 7.5 5 c 128,-1,2
 -28 19 -28 19 -50 44 c 128,-1,3
 -72 69 -72 69 -82 102 c 128,-1,4
 -92 135 -92 135 -92 174 c 0,5,6
 -92 199 -92 199 -85.5 229 c 128,-1,7
 -79 259 -79 259 -69 288 c 128,-1,8
 -59 317 -59 317 -46.5 343 c 128,-1,9
 -34 369 -34 369 -21 386 c 0,10,11
 33 458 33 458 95.5 512.5 c 128,-1,12
 158 567 158 567 220.5 603.5 c 128,-1,13
 283 640 283 640 341.5 658 c 128,-1,14
 400 676 400 676 446 676 c 0,15,16
 509 676 509 676 533.5 654 c 128,-1,17
 558 632 558 632 558 603 c 256,18,19
 558 574 558 574 533.5 538.5 c 128,-1,20
 509 503 509 503 451.5 462.5 c 128,-1,21
 394 422 394 422 298 377 c 128,-1,22
 202 332 202 332 58 284 c 1,23,24
 25 229 25 229 13.5 190.5 c 128,-1,25
 2 152 2 152 2 120 c 0,26,27
 2 75 2 75 31.5 50 c 128,-1,28
 61 25 61 25 103 25 c 0,29,30
 175 25 175 25 240.5 48.5 c 128,-1,31
 306 72 306 72 363.5 108.5 c 128,-1,32
 421 145 421 145 470 189.5 c 128,-1,33
 519 234 519 234 558 276 c 128,-1,34
 597 318 597 318 625.5 352.5 c 128,-1,35
 654 387 654 387 670 403 c 1,36,-1
 693 384 l 1,37,-1
 693 380 l 1,38,39
 676 363 676 363 647 328 c 128,-1,40
 618 293 618 293 577 249.5 c 128,-1,41
 536 206 536 206 484.5 160.5 c 128,-1,42
 433 115 433 115 372 77 c 128,-1,43
 311 39 311 39 241 15 c 128,-1,44
 171 -9 171 -9 93 -9 c 0,0,1
85 325 m 1,45,46
 179 358 179 358 253.5 392.5 c 128,-1,47
 328 427 328 427 380 461.5 c 128,-1,48
 432 496 432 496 459.5 529.5 c 128,-1,49
 487 563 487 563 487 595 c 0,50,51
 487 647 487 647 439 647 c 0,52,53
 407 647 407 647 367.5 626 c 128,-1,54
 328 605 328 605 282.5 564 c 128,-1,55
 237 523 237 523 187 463 c 128,-1,56
 137 403 137 403 85 325 c 1,45,46
EndSplineSet
EndChar

StartChar: f
Encoding: 102 102 10
Width: 545
Flags: W
LayerCount: 2
Fore
SplineSet
-42 142 m 1,0,1
 -50 43 -50 43 -70 -53.5 c 128,-1,2
 -90 -150 -90 -150 -119.5 -237 c 128,-1,3
 -149 -324 -149 -324 -187 -398.5 c 128,-1,4
 -225 -473 -225 -473 -269 -527.5 c 128,-1,5
 -313 -582 -313 -582 -361.5 -612.5 c 128,-1,6
 -410 -643 -410 -643 -460 -643 c 0,7,8
 -505 -643 -505 -643 -532 -612.5 c 128,-1,9
 -559 -582 -559 -582 -559 -537 c 0,10,11
 -559 -514 -559 -514 -552.5 -488 c 128,-1,12
 -546 -462 -546 -462 -530 -426.5 c 128,-1,13
 -514 -391 -514 -391 -485.5 -343 c 128,-1,14
 -457 -295 -457 -295 -413 -226.5 c 128,-1,15
 -369 -158 -369 -158 -308 -67 c 128,-1,16
 -247 24 -247 24 -164 146 c 1,17,-1
 -165 146 l 1,18,-1
 -73 284 l 1,19,20
 -99 323 -99 323 -111.5 363 c 128,-1,21
 -124 403 -124 403 -124 431 c 0,22,23
 -124 469 -124 469 -104.5 494 c 128,-1,24
 -85 519 -85 519 -56 519 c 0,25,26
 -33 519 -33 519 -16.5 503 c 128,-1,27
 0 487 0 487 0 457 c 0,28,29
 0 446 0 446 -5.5 432.5 c 128,-1,30
 -11 419 -11 419 -19.5 405.5 c 128,-1,31
 -28 392 -28 392 -39.5 380.5 c 128,-1,32
 -51 369 -51 369 -63 362 c 1,33,34
 -61 352 -61 352 -58 341.5 c 128,-1,35
 -55 331 -55 331 -50 320 c 1,36,37
 43 462 43 462 113.5 570.5 c 128,-1,38
 184 679 184 679 236 760 c 128,-1,39
 288 841 288 841 324.5 898.5 c 128,-1,40
 361 956 361 956 387 996 c 0,41,42
 466 1120 466 1120 543.5 1223 c 128,-1,43
 621 1326 621 1326 690.5 1399.5 c 128,-1,44
 760 1473 760 1473 818.5 1513.5 c 128,-1,45
 877 1554 877 1554 918 1554 c 0,46,47
 942 1554 942 1554 958.5 1546.5 c 128,-1,48
 975 1539 975 1539 986 1526 c 128,-1,49
 997 1513 997 1513 1002 1495 c 128,-1,50
 1007 1477 1007 1477 1007 1457 c 0,51,52
 1007 1387 1007 1387 966.5 1294 c 128,-1,53
 926 1201 926 1201 857 1097.5 c 128,-1,54
 788 994 788 994 696 886 c 128,-1,55
 604 778 604 778 501.5 676.5 c 128,-1,56
 399 575 399 575 291.5 486 c 128,-1,57
 184 397 184 397 83 333 c 1,58,-1
 15 229 l 1,59,60
 42 206 42 206 75 196 c 128,-1,61
 108 186 108 186 156 186 c 0,62,63
 237 186 237 186 299.5 209 c 128,-1,64
 362 232 362 232 409.5 265 c 128,-1,65
 457 298 457 298 491 335.5 c 128,-1,66
 525 373 525 373 549 402 c 1,67,-1
 576 382 l 1,68,69
 556 362 556 362 523 324 c 128,-1,70
 490 286 490 286 439 248 c 128,-1,71
 388 210 388 210 316.5 182 c 128,-1,72
 245 154 245 154 148 154 c 0,73,74
 105 154 105 154 66.5 169 c 128,-1,75
 28 184 28 184 0 205 c 1,76,-1
 -42 142 l 1,0,1
131 407 m 1,77,78
 221 469 221 469 317 554 c 128,-1,79
 413 639 413 639 505 736 c 128,-1,80
 597 833 597 833 678.5 935 c 128,-1,81
 760 1037 760 1037 822 1134 c 128,-1,82
 884 1231 884 1231 920 1317 c 128,-1,83
 956 1403 956 1403 956 1466 c 0,84,85
 956 1496 956 1496 945 1511 c 128,-1,86
 934 1526 934 1526 914 1526 c 0,87,88
 899 1526 899 1526 877 1511.5 c 128,-1,89
 855 1497 855 1497 823.5 1462 c 128,-1,90
 792 1427 792 1427 750 1368 c 128,-1,91
 708 1309 708 1309 651 1221 c 0,92,93
 586 1119 586 1119 525 1023 c 128,-1,94
 464 927 464 927 402.5 830.5 c 128,-1,95
 341 734 341 734 277 634 c 128,-1,96
 213 534 213 534 142 424 c 0,97,98
 135 413 135 413 131 407 c 1,77,78
-179 -58 m 2,99,100
 -244 -151 -244 -151 -301.5 -235 c 128,-1,101
 -359 -319 -359 -319 -401.5 -387.5 c 128,-1,102
 -444 -456 -444 -456 -469 -504.5 c 128,-1,103
 -494 -553 -494 -553 -494 -575 c 0,104,105
 -494 -589 -494 -589 -483 -600.5 c 128,-1,106
 -472 -612 -472 -612 -453 -612 c 0,107,108
 -430 -612 -430 -612 -396.5 -589.5 c 128,-1,109
 -363 -567 -363 -567 -325.5 -525 c 128,-1,110
 -288 -483 -288 -483 -250 -422 c 128,-1,111
 -212 -361 -212 -361 -178.5 -284 c 128,-1,112
 -145 -207 -145 -207 -119.5 -114.5 c 128,-1,113
 -94 -22 -94 -22 -82 83 c 1,114,-1
 -179 -58 l 2,99,100
EndSplineSet
EndChar

StartChar: g
Encoding: 103 103 11
Width: 901
Flags: W
LayerCount: 2
Fore
SplineSet
24 -5 m 0,0,1
 -40 -5 -40 -5 -70.5 29.5 c 128,-1,2
 -101 64 -101 64 -103 127 c 0,3,4
 -103 158 -103 158 -95 194.5 c 128,-1,5
 -87 231 -87 231 -72 268.5 c 128,-1,6
 -57 306 -57 306 -35 344 c 128,-1,7
 -13 382 -13 382 16 418 c 1,8,9
 77 490 77 490 139.5 539.5 c 128,-1,10
 202 589 202 589 262 619.5 c 128,-1,11
 322 650 322 650 377 663 c 128,-1,12
 432 676 432 676 477 676 c 0,13,14
 543 676 543 676 582.5 654 c 128,-1,15
 622 632 622 632 622 592 c 0,16,17
 622 574 622 574 614 548 c 1,18,19
 641 581 641 581 661 606.5 c 128,-1,20
 681 632 681 632 699 656 c 1,21,22
 710 654 710 654 727 651 c 128,-1,23
 744 648 744 648 762 648 c 0,24,25
 768 648 768 648 778 648 c 128,-1,26
 788 648 788 648 799.5 649 c 128,-1,27
 811 650 811 650 822.5 651.5 c 128,-1,28
 834 653 834 653 842 655 c 1,29,-1
 519 240 l 2,30,31
 423 117 423 117 344.5 18.5 c 128,-1,32
 266 -80 266 -80 199 -162 c 1,33,34
 402 -57 402 -57 578.5 80.5 c 128,-1,35
 755 218 755 218 908 403 c 1,36,-1
 932 382 l 1,37,38
 845 277 845 277 754 190 c 128,-1,39
 663 103 663 103 566.5 29.5 c 128,-1,40
 470 -44 470 -44 366.5 -105 c 128,-1,41
 263 -166 263 -166 151 -219 c 1,42,43
 76 -309 76 -309 15.5 -375.5 c 128,-1,44
 -45 -442 -45 -442 -95.5 -489 c 128,-1,45
 -146 -536 -146 -536 -189 -566 c 128,-1,46
 -232 -596 -232 -596 -272.5 -613 c 128,-1,47
 -313 -630 -313 -630 -353.5 -636.5 c 128,-1,48
 -394 -643 -394 -643 -439 -643 c 0,49,50
 -463 -643 -463 -643 -481.5 -636 c 128,-1,51
 -500 -629 -500 -629 -512.5 -618.5 c 128,-1,52
 -525 -608 -525 -608 -532 -595 c 128,-1,53
 -539 -582 -539 -582 -539 -570 c 0,54,55
 -539 -539 -539 -539 -512.5 -505 c 128,-1,56
 -486 -471 -486 -471 -421 -430 c 128,-1,57
 -356 -389 -356 -389 -245.5 -339 c 128,-1,58
 -135 -289 -135 -289 32 -225 c 1,59,60
 109 -133 109 -133 204.5 -13 c 128,-1,61
 300 107 300 107 423 262 c 1,62,63
 421 262 421 262 419 264 c 1,64,65
 354 191 354 191 296 140 c 128,-1,66
 238 89 238 89 188 56.5 c 128,-1,67
 138 24 138 24 96.5 9.5 c 128,-1,68
 55 -5 55 -5 24 -5 c 0,0,1
30 31 m 0,69,70
 56 31 56 31 99 51 c 128,-1,71
 142 71 142 71 197 110.5 c 128,-1,72
 252 150 252 150 316.5 209.5 c 128,-1,73
 381 269 381 269 450 347 c 1,74,-1
 461 360 l 1,75,-1
 530 445 l 1,76,77
 553 479 553 479 570.5 516 c 128,-1,78
 588 553 588 553 588 584 c 0,79,80
 588 613 588 613 564.5 626.5 c 128,-1,81
 541 640 541 640 503 640 c 0,82,83
 480 640 480 640 440 622.5 c 128,-1,84
 400 605 400 605 350 569 c 128,-1,85
 300 533 300 533 241.5 478 c 128,-1,86
 183 423 183 423 123 347 c 0,87,88
 51 257 51 257 18 192.5 c 128,-1,89
 -15 128 -15 128 -15 80 c 0,90,91
 -15 52 -15 52 -4 41.5 c 128,-1,92
 7 31 7 31 30 31 c 0,69,70
-7 -272 m 1,93,94
 -141 -322 -141 -322 -234.5 -365 c 128,-1,95
 -328 -408 -328 -408 -387.5 -445.5 c 128,-1,96
 -447 -483 -447 -483 -474 -515 c 128,-1,97
 -501 -547 -501 -547 -501 -575 c 0,98,99
 -501 -584 -501 -584 -483 -597.5 c 128,-1,100
 -465 -611 -465 -611 -436 -611 c 0,101,102
 -396 -611 -396 -611 -357 -597 c 128,-1,103
 -318 -583 -318 -583 -269.5 -545.5 c 128,-1,104
 -221 -508 -221 -508 -158 -442 c 128,-1,105
 -95 -376 -95 -376 -7 -272 c 1,93,94
EndSplineSet
EndChar

StartChar: h
Encoding: 104 104 12
Width: 893
Flags: W
LayerCount: 2
Fore
SplineSet
-110 16 m 1,0,1
 -125 18 -125 18 -139 19.5 c 128,-1,2
 -153 21 -153 21 -168 21 c 0,3,4
 -203 21 -203 21 -229.5 16.5 c 128,-1,5
 -256 12 -256 12 -270 7 c 1,6,-1
 824 1570 l 1,7,8
 833 1570 833 1570 846.5 1568 c 128,-1,9
 860 1566 860 1566 882 1566 c 0,10,11
 890 1566 890 1566 895.5 1565.5 c 128,-1,12
 901 1565 901 1565 909 1565.5 c 128,-1,13
 917 1566 917 1566 930.5 1567 c 128,-1,14
 944 1568 944 1568 968 1571 c 1,15,-1
 -9 214 l 1,16,17
 -9 212 -9 212 -7 210 c 1,18,19
 78 307 78 307 147.5 379 c 128,-1,20
 217 451 217 451 273.5 503 c 128,-1,21
 330 555 330 555 375 588.5 c 128,-1,22
 420 622 420 622 457.5 641.5 c 128,-1,23
 495 661 495 661 526.5 668.5 c 128,-1,24
 558 676 558 676 587 676 c 0,25,26
 618 676 618 676 640 667.5 c 128,-1,27
 662 659 662 659 676.5 645.5 c 128,-1,28
 691 632 691 632 698 614.5 c 128,-1,29
 705 597 705 597 705 579 c 0,30,31
 705 549 705 549 692.5 511.5 c 128,-1,32
 680 474 680 474 648 422 c 128,-1,33
 616 370 616 370 561.5 301.5 c 128,-1,34
 507 233 507 233 423 142 c 0,35,36
 399 116 399 116 385 100.5 c 128,-1,37
 371 85 371 85 364 75 c 128,-1,38
 357 65 357 65 355 59.5 c 128,-1,39
 353 54 353 54 353 48 c 0,40,41
 353 40 353 40 374 34.5 c 128,-1,42
 395 29 395 29 421 29 c 0,43,44
 473 29 473 29 526.5 54.5 c 128,-1,45
 580 80 580 80 630.5 119 c 128,-1,46
 681 158 681 158 726 204.5 c 128,-1,47
 771 251 771 251 807 292.5 c 128,-1,48
 843 334 843 334 867 364.5 c 128,-1,49
 891 395 891 395 899 403 c 1,50,-1
 925 382 l 1,51,52
 916 373 916 373 890 340.5 c 128,-1,53
 864 308 864 308 826.5 265 c 128,-1,54
 789 222 789 222 740.5 174.5 c 128,-1,55
 692 127 692 127 638 87 c 128,-1,56
 584 47 584 47 525.5 21 c 128,-1,57
 467 -5 467 -5 409 -5 c 0,58,59
 386 -5 386 -5 362 0.5 c 128,-1,60
 338 6 338 6 318.5 16.5 c 128,-1,61
 299 27 299 27 287 41.5 c 128,-1,62
 275 56 275 56 275 74 c 0,63,64
 275 94 275 94 282.5 120 c 128,-1,65
 290 146 290 146 312.5 184 c 128,-1,66
 335 222 335 222 376 276 c 128,-1,67
 417 330 417 330 485 407 c 0,68,69
 559 491 559 491 590 540 c 128,-1,70
 621 589 621 589 621 613 c 0,71,72
 621 626 621 626 612.5 635.5 c 128,-1,73
 604 645 604 645 578 645 c 0,74,75
 556 645 556 645 518.5 632.5 c 128,-1,76
 481 620 481 620 433 589 c 1,77,-1
 433 590 l 1,78,79
 355 538 355 538 240.5 426.5 c 128,-1,80
 126 315 126 315 -18 137 c 1,81,-1
 -110 16 l 1,82,-1
 -110 16 l 1,0,1
EndSplineSet
EndChar

StartChar: i
Encoding: 105 105 13
Width: 444
Flags: W
LayerCount: 2
Fore
SplineSet
452 857 m 0,0,1
 424 857 424 857 407 875 c 128,-1,2
 390 893 390 893 390 922 c 0,3,4
 390 939 390 939 398 956 c 128,-1,5
 406 973 406 973 419.5 986.5 c 128,-1,6
 433 1000 433 1000 452 1008.5 c 128,-1,7
 471 1017 471 1017 492 1017 c 0,8,9
 521 1017 521 1017 537.5 998.5 c 128,-1,10
 554 980 554 980 554 952 c 0,11,12
 554 933 554 933 545 916 c 128,-1,13
 536 899 536 899 521.5 886 c 128,-1,14
 507 873 507 873 489 865 c 128,-1,15
 471 857 471 857 452 857 c 0,0,1
-32 29 m 0,16,17
 11 29 11 29 62.5 55.5 c 128,-1,18
 114 82 114 82 166.5 122 c 128,-1,19
 219 162 219 162 268.5 209 c 128,-1,20
 318 256 318 256 357.5 298 c 128,-1,21
 397 340 397 340 422.5 369.5 c 128,-1,22
 448 399 448 399 452 404 c 1,23,-1
 477 382 l 1,24,-1
 452 354 l 2,25,26
 429 328 429 328 395.5 291.5 c 128,-1,27
 362 255 362 255 321 215 c 128,-1,28
 280 175 280 175 234 135.5 c 128,-1,29
 188 96 188 96 140 65 c 128,-1,30
 92 34 92 34 43.5 14.5 c 128,-1,31
 -5 -5 -5 -5 -49 -5 c 0,32,33
 -112 -5 -112 -5 -149 17.5 c 128,-1,34
 -186 40 -186 40 -186 80 c 0,35,36
 -186 100 -186 100 -180.5 123 c 128,-1,37
 -175 146 -175 146 -159 177.5 c 128,-1,38
 -143 209 -143 209 -114.5 251.5 c 128,-1,39
 -86 294 -86 294 -41 353 c 128,-1,40
 4 412 4 412 68 489.5 c 128,-1,41
 132 567 132 567 220 669 c 1,42,43
 224 668 224 668 236 667.5 c 128,-1,44
 248 667 248 667 263 666.5 c 128,-1,45
 278 666 278 666 292.5 666 c 128,-1,46
 307 666 307 666 316 666 c 0,47,48
 328 666 328 666 339 666.5 c 128,-1,49
 350 667 350 667 363 669 c 1,50,51
 267 556 267 556 195 470.5 c 128,-1,52
 123 385 123 385 71.5 321.5 c 128,-1,53
 20 258 20 258 -13.5 214 c 128,-1,54
 -47 170 -47 170 -66.5 140 c 128,-1,55
 -86 110 -86 110 -93.5 91 c 128,-1,56
 -101 72 -101 72 -101 59 c 0,57,58
 -101 47 -101 47 -93.5 41 c 128,-1,59
 -86 35 -86 35 -75 32.5 c 128,-1,60
 -64 30 -64 30 -52 29.5 c 128,-1,61
 -40 29 -40 29 -32 29 c 0,16,17
EndSplineSet
EndChar

StartChar: j
Encoding: 106 106 14
Width: 375
Flags: W
LayerCount: 2
Fore
SplineSet
399 857 m 0,0,1
 371 857 371 857 353.5 875 c 128,-1,2
 336 893 336 893 336 922 c 0,3,4
 336 939 336 939 344 956 c 128,-1,5
 352 973 352 973 366 986.5 c 128,-1,6
 380 1000 380 1000 398.5 1008.5 c 128,-1,7
 417 1017 417 1017 438 1017 c 0,8,9
 467 1017 467 1017 483.5 998.5 c 128,-1,10
 500 980 500 980 500 952 c 0,11,12
 500 933 500 933 491 916 c 128,-1,13
 482 899 482 899 468 886 c 128,-1,14
 454 873 454 873 435.5 865 c 128,-1,15
 417 857 417 857 399 857 c 0,0,1
-7 235 m 1,16,17
 -92 130 -92 130 -164 44 c 128,-1,18
 -236 -42 -236 -42 -300 -117 c 1,19,20
 -215 -78 -215 -78 -148 -45 c 128,-1,21
 -81 -12 -81 -12 -24.5 21 c 128,-1,22
 32 54 32 54 80.5 89.5 c 128,-1,23
 129 125 129 125 176.5 170 c 128,-1,24
 224 215 224 215 274 271.5 c 128,-1,25
 324 328 324 328 383 403 c 1,26,-1
 407 382 l 1,27,28
 341 300 341 300 287 239.5 c 128,-1,29
 233 179 233 179 181.5 132.5 c 128,-1,30
 130 86 130 86 78 49 c 128,-1,31
 26 12 26 12 -36 -22 c 128,-1,32
 -98 -56 -98 -56 -174 -92 c 128,-1,33
 -250 -128 -250 -128 -349 -173 c 1,34,35
 -439 -275 -439 -275 -512 -349.5 c 128,-1,36
 -585 -424 -585 -424 -646.5 -476 c 128,-1,37
 -708 -528 -708 -528 -760.5 -561 c 128,-1,38
 -813 -594 -813 -594 -860.5 -612 c 128,-1,39
 -908 -630 -908 -630 -954 -636.5 c 128,-1,40
 -1000 -643 -1000 -643 -1049 -643 c 0,41,42
 -1072 -643 -1072 -643 -1089 -636.5 c 128,-1,43
 -1106 -630 -1106 -630 -1117 -620.5 c 128,-1,44
 -1128 -611 -1128 -611 -1133.5 -599 c 128,-1,45
 -1139 -587 -1139 -587 -1139 -575 c 0,46,47
 -1139 -544 -1139 -544 -1102 -502 c 128,-1,48
 -1065 -460 -1065 -460 -986 -410 c 128,-1,49
 -907 -360 -907 -360 -784.5 -302.5 c 128,-1,50
 -662 -245 -662 -245 -491 -183 c 1,51,52
 -449 -137 -449 -137 -405 -85 c 128,-1,53
 -361 -33 -361 -33 -310 27 c 1,54,55
 -288 55 -288 55 -256 96 c 128,-1,56
 -224 137 -224 137 -186.5 184.5 c 128,-1,57
 -149 232 -149 232 -109 284.5 c 128,-1,58
 -69 337 -69 337 -30 388 c 128,-1,59
 9 439 9 439 44 486 c 128,-1,60
 79 533 79 533 105.5 571 c 128,-1,61
 132 609 132 609 148 634.5 c 128,-1,62
 164 660 164 660 165 668 c 1,63,64
 171 666 171 666 189.5 666 c 128,-1,65
 208 666 208 666 228 666 c 0,66,67
 268 666 268 666 288.5 666 c 128,-1,68
 309 666 309 666 327 669 c 1,69,70
 293 625 293 625 257.5 579 c 128,-1,71
 222 533 222 533 181.5 480.5 c 128,-1,72
 141 428 141 428 94.5 367.5 c 128,-1,73
 48 307 48 307 -7 235 c 1,16,17
-536 -233 m 1,74,75
 -668 -283 -668 -283 -772.5 -333 c 128,-1,76
 -877 -383 -877 -383 -950 -428 c 128,-1,77
 -1023 -473 -1023 -473 -1062 -511 c 128,-1,78
 -1101 -549 -1101 -549 -1101 -575 c 0,79,80
 -1101 -584 -1101 -584 -1088.5 -597.5 c 128,-1,81
 -1076 -611 -1076 -611 -1047 -611 c 0,82,83
 -1004 -611 -1004 -611 -957 -594.5 c 128,-1,84
 -910 -578 -910 -578 -851 -536 c 128,-1,85
 -792 -494 -792 -494 -715.5 -420.5 c 128,-1,86
 -639 -347 -639 -347 -536 -233 c 1,74,75
EndSplineSet
EndChar

StartChar: k
Encoding: 107 107 15
Width: 846
Flags: W
LayerCount: 2
Fore
SplineSet
-136 16 m 1,0,1
 -146 18 -146 18 -162.5 19.5 c 128,-1,2
 -179 21 -179 21 -193 21 c 0,3,4
 -199 21 -199 21 -209.5 19.5 c 128,-1,5
 -220 18 -220 18 -231 16 c 128,-1,6
 -242 14 -242 14 -252.5 11.5 c 128,-1,7
 -263 9 -263 9 -270 7 c 1,8,-1
 827 1570 l 1,9,10
 836 1569 836 1569 849.5 1567.5 c 128,-1,11
 863 1566 863 1566 886 1566 c 0,12,13
 894 1566 894 1566 899.5 1565.5 c 128,-1,14
 905 1565 905 1565 912.5 1565.5 c 128,-1,15
 920 1566 920 1566 932.5 1567 c 128,-1,16
 945 1568 945 1568 967 1571 c 1,17,-1
 281 617 l 2,18,19
 213 522 213 522 155 439 c 128,-1,20
 97 356 97 356 46 282.5 c 128,-1,21
 -5 209 -5 209 -49.5 143 c 128,-1,22
 -94 77 -94 77 -134 17 c 1,23,-1
 -136 16 l 1,0,1
252 103 m 0,24,25
 252 140 252 140 277 190.5 c 128,-1,26
 302 241 302 241 373 310 c 1,27,28
 401 339 401 339 410.5 353 c 128,-1,29
 420 367 420 367 420 377 c 0,30,31
 420 394 420 394 405 408.5 c 128,-1,32
 390 423 390 423 365 431 c 1,33,34
 325 409 325 409 293.5 404 c 128,-1,35
 262 399 262 399 245 399 c 0,36,37
 216 399 216 399 201 409 c 128,-1,38
 186 419 186 419 186 432 c 0,39,40
 186 452 186 452 215 466 c 128,-1,41
 244 480 244 480 284 480 c 0,42,43
 329 480 329 480 363 470 c 1,44,45
 374 475 374 475 383.5 481 c 128,-1,46
 393 487 393 487 402 494.5 c 128,-1,47
 411 502 411 502 421 512 c 128,-1,48
 431 522 431 522 444 537 c 2,49,-1
 469 566 l 2,50,51
 493 594 493 594 520 624 c 128,-1,52
 547 654 547 654 578 678.5 c 128,-1,53
 609 703 609 703 643 718.5 c 128,-1,54
 677 734 677 734 716 734 c 0,55,56
 765 734 765 734 794 708.5 c 128,-1,57
 823 683 823 683 823 650 c 0,58,59
 823 612 823 612 800.5 595 c 128,-1,60
 778 578 778 578 749 578 c 0,61,62
 728 578 728 578 709 594 c 128,-1,63
 690 610 690 610 690 636 c 0,64,65
 690 656 690 656 700 669 c 128,-1,66
 710 682 710 682 727 690 c 1,67,68
 713 698 713 698 694 698 c 0,69,70
 673 698 673 698 651 689.5 c 128,-1,71
 629 681 629 681 603.5 661 c 128,-1,72
 578 641 578 641 546.5 607 c 128,-1,73
 515 573 515 573 475 522 c 1,74,75
 456 500 456 500 438 484 c 128,-1,76
 420 468 420 468 403 455 c 1,77,78
 446 434 446 434 469.5 400 c 128,-1,79
 493 366 493 366 493 326 c 0,80,81
 493 305 493 305 489 284.5 c 128,-1,82
 485 264 485 264 471 238.5 c 128,-1,83
 457 213 457 213 430 181.5 c 128,-1,84
 403 150 403 150 358 108 c 0,85,86
 342 93 342 93 331.5 80 c 128,-1,87
 321 67 321 67 321 56 c 0,88,89
 321 43 321 43 330 36 c 128,-1,90
 339 29 339 29 365 29 c 0,91,92
 412 29 412 29 463 53 c 128,-1,93
 514 77 514 77 564.5 113.5 c 128,-1,94
 615 150 615 150 661.5 194 c 128,-1,95
 708 238 708 238 745.5 279 c 128,-1,96
 783 320 783 320 810 352 c 128,-1,97
 837 384 837 384 847 396 c 1,98,-1
 846 395 l 1,99,-1
 853 405 l 1,100,-1
 879 382 l 1,101,102
 877 380 877 380 872 374.5 c 128,-1,103
 867 369 867 369 860 361 c 0,104,105
 843 342 843 342 812 307.5 c 128,-1,106
 781 273 781 273 741 232 c 128,-1,107
 701 191 701 191 653.5 149 c 128,-1,108
 606 107 606 107 555.5 73 c 128,-1,109
 505 39 505 39 453.5 17 c 128,-1,110
 402 -5 402 -5 354 -5 c 0,111,112
 326 -5 326 -5 306.5 4 c 128,-1,113
 287 13 287 13 275 28 c 128,-1,114
 263 43 263 43 257.5 62.5 c 128,-1,115
 252 82 252 82 252 103 c 0,24,25
EndSplineSet
EndChar

StartChar: l
Encoding: 108 108 16
Width: 449
Flags: W
LayerCount: 2
Fore
SplineSet
-49 29 m 0,0,1
 -3 29 -3 29 48 52.5 c 128,-1,2
 99 76 99 76 149.5 112.5 c 128,-1,3
 200 149 200 149 247.5 193.5 c 128,-1,4
 295 238 295 238 335.5 279.5 c 128,-1,5
 376 321 376 321 407 354.5 c 128,-1,6
 438 388 438 388 455 403 c 1,7,-1
 479 382 l 1,8,9
 474 378 474 378 466.5 369.5 c 128,-1,10
 459 361 459 361 449 350 c 0,11,12
 426 325 426 325 392 289 c 128,-1,13
 358 253 358 253 316.5 213.5 c 128,-1,14
 275 174 275 174 227.5 135 c 128,-1,15
 180 96 180 96 130.5 65 c 128,-1,16
 81 34 81 34 31 14.5 c 128,-1,17
 -19 -5 -19 -5 -66 -5 c 0,18,19
 -109 -5 -109 -5 -136.5 18.5 c 128,-1,20
 -164 42 -164 42 -164 77 c 0,21,22
 -164 94 -164 94 -162 110.5 c 128,-1,23
 -160 127 -160 127 -152 147.5 c 128,-1,24
 -144 168 -144 168 -129.5 195 c 128,-1,25
 -115 222 -115 222 -89.5 261.5 c 128,-1,26
 -64 301 -64 301 -27 355 c 128,-1,27
 10 409 10 409 62 484 c 2,28,-1
 822 1570 l 1,29,30
 833 1570 833 1570 846.5 1568 c 128,-1,31
 860 1566 860 1566 881 1566 c 0,32,33
 889 1566 889 1566 894.5 1565.5 c 128,-1,34
 900 1565 900 1565 908.5 1565.5 c 128,-1,35
 917 1566 917 1566 930 1567 c 128,-1,36
 943 1568 943 1568 966 1571 c 1,37,-1
 154 444 l 2,38,39
 72 329 72 329 23.5 258.5 c 128,-1,40
 -25 188 -25 188 -50.5 147 c 128,-1,41
 -76 106 -76 106 -84 87 c 128,-1,42
 -92 68 -92 68 -92 58 c 0,43,44
 -92 44 -92 44 -80 36.5 c 128,-1,45
 -68 29 -68 29 -49 29 c 0,0,1
EndSplineSet
EndChar

StartChar: m
Encoding: 109 109 17
Width: 1409
Flags: W
LayerCount: 2
Fore
SplineSet
-21 21 m 0,0,1
 -57 21 -57 21 -84 16.5 c 128,-1,2
 -111 12 -111 12 -123 7 c 1,3,4
 -27 147 -27 147 41.5 244.5 c 128,-1,5
 110 342 110 342 155.5 407 c 128,-1,6
 201 472 201 472 227.5 510 c 128,-1,7
 254 548 254 548 268 569.5 c 128,-1,8
 282 591 282 591 285.5 600 c 128,-1,9
 289 609 289 609 289 617 c 256,10,11
 289 625 289 625 285.5 631 c 128,-1,12
 282 637 282 637 271 637 c 0,13,14
 257 637 257 637 227.5 609 c 128,-1,15
 198 581 198 581 162.5 540.5 c 128,-1,16
 127 500 127 500 91 456 c 128,-1,17
 55 412 55 412 29 379 c 1,18,-1
 26 379 l 2,19,20
 23 379 23 379 12 383 c 128,-1,21
 1 387 1 387 1 395 c 0,22,23
 1 397 1 397 5 401 c 0,24,25
 24 421 24 421 46.5 449 c 128,-1,26
 69 477 69 477 94 507.5 c 128,-1,27
 119 538 119 538 145.5 568.5 c 128,-1,28
 172 599 172 599 199 622.5 c 128,-1,29
 226 646 226 646 253.5 661 c 128,-1,30
 281 676 281 676 307 676 c 0,31,32
 321 676 321 676 335.5 673.5 c 128,-1,33
 350 671 350 671 362 664.5 c 128,-1,34
 374 658 374 658 381.5 645.5 c 128,-1,35
 389 633 389 633 389 612 c 0,36,37
 389 595 389 595 381 568.5 c 128,-1,38
 373 542 373 542 342 499 c 2,39,-1
 137 214 l 1,40,-1
 140 209 l 1,41,42
 229 311 229 311 298 385.5 c 128,-1,43
 367 460 367 460 421.5 512 c 128,-1,44
 476 564 476 564 517.5 596 c 128,-1,45
 559 628 559 628 592.5 646 c 128,-1,46
 626 664 626 664 654 670 c 128,-1,47
 682 676 682 676 709 676 c 0,48,49
 740 676 740 676 762.5 667.5 c 128,-1,50
 785 659 785 659 799 645.5 c 128,-1,51
 813 632 813 632 820 614.5 c 128,-1,52
 827 597 827 597 827 579 c 0,53,54
 827 547 827 547 819 519 c 128,-1,55
 811 491 811 491 788 452 c 1,56,57
 857 521 857 521 909.5 564.5 c 128,-1,58
 962 608 962 608 1002.5 633 c 128,-1,59
 1043 658 1043 658 1074 667 c 128,-1,60
 1105 676 1105 676 1132 676 c 0,61,62
 1165 676 1165 676 1187.5 667 c 128,-1,63
 1210 658 1210 658 1224.5 643.5 c 128,-1,64
 1239 629 1239 629 1245 610.5 c 128,-1,65
 1251 592 1251 592 1251 573 c 1,66,67
 1249 543 1249 543 1235.5 505.5 c 128,-1,68
 1222 468 1222 468 1190.5 417 c 128,-1,69
 1159 366 1159 366 1105 299 c 128,-1,70
 1051 232 1051 232 969 142 c 0,71,72
 944 116 944 116 930 100 c 128,-1,73
 916 84 916 84 909 74 c 128,-1,74
 902 64 902 64 900.5 58 c 128,-1,75
 899 52 899 52 899 45 c 1,76,-1
 892 44 l 1,77,78
 895 37 895 37 912 32 c 128,-1,79
 929 27 929 27 961 27 c 0,80,81
 996 27 996 27 1036.5 46.5 c 128,-1,82
 1077 66 1077 66 1118.5 97.5 c 128,-1,83
 1160 129 1160 129 1201.5 168 c 128,-1,84
 1243 207 1243 207 1279.5 246 c 128,-1,85
 1316 285 1316 285 1345.5 319.5 c 128,-1,86
 1375 354 1375 354 1394 376 c 2,87,-1
 1417 403 l 1,88,-1
 1441 382 l 1,89,-1
 1419 357 l 2,90,91
 1399 333 1399 333 1367.5 296.5 c 128,-1,92
 1336 260 1336 260 1297 220 c 128,-1,93
 1258 180 1258 180 1213.5 139 c 128,-1,94
 1169 98 1169 98 1123.5 66 c 128,-1,95
 1078 34 1078 34 1033.5 13.5 c 128,-1,96
 989 -7 989 -7 949 -7 c 0,97,98
 922 -7 922 -7 897.5 -1.5 c 128,-1,99
 873 4 873 4 854.5 14.5 c 128,-1,100
 836 25 836 25 825.5 39.5 c 128,-1,101
 815 54 815 54 815 72 c 0,102,103
 815 92 815 92 823 118 c 128,-1,104
 831 144 831 144 854.5 182 c 128,-1,105
 878 220 878 220 920.5 274.5 c 128,-1,106
 963 329 963 329 1031 407 c 0,107,108
 1103 490 1103 490 1135 540 c 128,-1,109
 1167 590 1167 590 1167 613 c 0,110,111
 1167 626 1167 626 1157 635.5 c 128,-1,112
 1147 645 1147 645 1120 645 c 0,113,114
 1094 645 1094 645 1043 617 c 128,-1,115
 992 589 992 589 920.5 529.5 c 128,-1,116
 849 470 849 470 758.5 376.5 c 128,-1,117
 668 283 668 283 563 152 c 1,118,-1
 552 137 l 1,119,-1
 460 16 l 1,120,121
 446 18 446 18 432 19.5 c 128,-1,122
 418 21 418 21 403 21 c 0,123,124
 368 21 368 21 341 16.5 c 128,-1,125
 314 12 314 12 300 7 c 1,126,127
 323 34 323 34 344.5 60 c 128,-1,128
 366 86 366 86 380 104 c 0,129,130
 413 145 413 145 432.5 169 c 128,-1,131
 452 193 452 193 468 213 c 128,-1,132
 484 233 484 233 502 256.5 c 128,-1,133
 520 280 520 280 550 321 c 2,134,-1
 612 403 l 2,135,136
 654 458 654 458 679.5 495 c 128,-1,137
 705 532 705 532 719.5 556.5 c 128,-1,138
 734 581 734 581 739 595 c 128,-1,139
 744 609 744 609 744 618 c 0,140,141
 744 632 744 632 731.5 638.5 c 128,-1,142
 719 645 719 645 699 645 c 0,143,144
 669 645 669 645 620 619.5 c 128,-1,145
 571 594 571 594 501 534.5 c 128,-1,146
 431 475 431 475 338 377.5 c 128,-1,147
 245 280 245 280 127 137 c 1,148,149
 104 107 104 107 81.5 76 c 128,-1,150
 59 45 59 45 36 16 c 1,151,152
 22 18 22 18 7.5 19.5 c 128,-1,153
 -7 21 -7 21 -21 21 c 0,0,1
EndSplineSet
EndChar

StartChar: n
Encoding: 110 110 18
Width: 1024
Flags: W
LayerCount: 2
Fore
SplineSet
-22 21 m 0,0,1
 -56 21 -56 21 -82.5 16.5 c 128,-1,2
 -109 12 -109 12 -123 7 c 1,3,-1
 159 412 l 2,4,5
 204 477 204 477 230 514 c 128,-1,6
 256 551 256 551 269 571 c 128,-1,7
 282 591 282 591 285 599.5 c 128,-1,8
 288 608 288 608 288 617 c 0,9,10
 288 625 288 625 284.5 631 c 128,-1,11
 281 637 281 637 270 637 c 0,12,13
 256 637 256 637 226.5 609 c 128,-1,14
 197 581 197 581 161.5 540.5 c 128,-1,15
 126 500 126 500 90 456 c 128,-1,16
 54 412 54 412 28 379 c 1,17,-1
 25 379 l 2,18,19
 22 379 22 379 11 383 c 128,-1,20
 0 387 0 387 0 395 c 0,21,22
 0 397 0 397 4 401 c 0,23,24
 23 421 23 421 45.5 449 c 128,-1,25
 68 477 68 477 93 507.5 c 128,-1,26
 118 538 118 538 144.5 568.5 c 128,-1,27
 171 599 171 599 198 622.5 c 128,-1,28
 225 646 225 646 252.5 661 c 128,-1,29
 280 676 280 676 306 676 c 0,30,31
 320 676 320 676 334.5 673.5 c 128,-1,32
 349 671 349 671 361 664.5 c 128,-1,33
 373 658 373 658 380.5 645.5 c 128,-1,34
 388 633 388 633 388 612 c 0,35,36
 388 595 388 595 380 568.5 c 128,-1,37
 372 542 372 542 341 499 c 2,38,-1
 136 214 l 1,39,-1
 139 209 l 1,40,41
 215 295 215 295 278.5 362 c 128,-1,42
 342 429 342 429 394.5 479.5 c 128,-1,43
 447 530 447 530 489 565 c 128,-1,44
 531 600 531 600 566 623 c 1,45,-1
 566 622 l 1,46,47
 614 654 614 654 650.5 665 c 128,-1,48
 687 676 687 676 717 676 c 0,49,50
 750 676 750 676 772.5 667 c 128,-1,51
 795 658 795 658 809 643.5 c 128,-1,52
 823 629 823 629 829 610.5 c 128,-1,53
 835 592 835 592 835 573 c 0,54,55
 834 543 834 543 820.5 505.5 c 128,-1,56
 807 468 807 468 775 417 c 128,-1,57
 743 366 743 366 689 298.5 c 128,-1,58
 635 231 635 231 553 142 c 0,59,60
 528 116 528 116 514 100.5 c 128,-1,61
 500 85 500 85 493.5 75 c 128,-1,62
 487 65 487 65 485.5 59.5 c 128,-1,63
 484 54 484 54 484 48 c 0,64,65
 484 40 484 40 503 34.5 c 128,-1,66
 522 29 522 29 551 29 c 0,67,68
 602 29 602 29 655 54.5 c 128,-1,69
 708 80 708 80 758.5 119 c 128,-1,70
 809 158 809 158 854.5 204.5 c 128,-1,71
 900 251 900 251 936.5 292.5 c 128,-1,72
 973 334 973 334 997 364.5 c 128,-1,73
 1021 395 1021 395 1029 403 c 1,74,-1
 1053 384 l 1,75,-1
 1053 380 l 1,76,77
 1047 372 1047 372 1022 340 c 128,-1,78
 997 308 997 308 959 265 c 128,-1,79
 921 222 921 222 871.5 174.5 c 128,-1,80
 822 127 822 127 767.5 87 c 128,-1,81
 713 47 713 47 655 21 c 128,-1,82
 597 -5 597 -5 541 -5 c 0,83,84
 512 -5 512 -5 487.5 0.5 c 128,-1,85
 463 6 463 6 444.5 16.5 c 128,-1,86
 426 27 426 27 415.5 41.5 c 128,-1,87
 405 56 405 56 405 74 c 0,88,89
 405 94 405 94 412.5 120 c 128,-1,90
 420 146 420 146 442.5 184 c 128,-1,91
 465 222 465 222 506 276 c 128,-1,92
 547 330 547 330 615 407 c 0,93,94
 689 491 689 491 720 540 c 128,-1,95
 751 589 751 589 751 613 c 0,96,97
 751 626 751 626 742 635.5 c 128,-1,98
 733 645 733 645 707 645 c 0,99,100
 675 645 675 645 621.5 614.5 c 128,-1,101
 568 584 568 584 494.5 521 c 128,-1,102
 421 458 421 458 329 362.5 c 128,-1,103
 237 267 237 267 128 137 c 1,104,-1
 36 16 l 1,105,106
 20 18 20 18 6.5 19.5 c 128,-1,107
 -7 21 -7 21 -22 21 c 0,0,1
EndSplineSet
EndChar

StartChar: o
Encoding: 111 111 19
Width: 721
Flags: W
LayerCount: 2
Fore
SplineSet
46 -5 m 256,0,1
 2 -5 2 -5 -30 6.5 c 128,-1,2
 -62 18 -62 18 -82.5 37.5 c 128,-1,3
 -103 57 -103 57 -113 83.5 c 128,-1,4
 -123 110 -123 110 -123 141 c 0,5,6
 -123 174 -123 174 -114.5 209.5 c 128,-1,7
 -106 245 -106 245 -92.5 280 c 128,-1,8
 -79 315 -79 315 -61.5 346.5 c 128,-1,9
 -44 378 -44 378 -27 403 c 0,10,11
 9 454 9 454 57.5 503 c 128,-1,12
 106 552 106 552 163 590.5 c 128,-1,13
 220 629 220 629 283 652.5 c 128,-1,14
 346 676 346 676 411 676 c 0,15,16
 465 676 465 676 503.5 648 c 128,-1,17
 542 620 542 620 546 560 c 1,18,19
 546 475 546 475 511 387 c 128,-1,20
 476 299 476 299 412 218 c 1,21,22
 414 206 414 206 424 197.5 c 128,-1,23
 434 189 434 189 454 189 c 0,24,25
 483 189 483 189 518.5 210.5 c 128,-1,26
 554 232 554 232 589 262.5 c 128,-1,27
 624 293 624 293 655 325.5 c 128,-1,28
 686 358 686 358 706 380 c 2,29,-1
 727 403 l 1,30,-1
 752 382 l 1,31,-1
 719 348 l 2,32,33
 695 322 695 322 662 288.5 c 128,-1,34
 629 255 629 255 592.5 225.5 c 128,-1,35
 556 196 556 196 519 175.5 c 128,-1,36
 482 155 482 155 451 155 c 0,37,38
 428 155 428 155 411.5 162 c 128,-1,39
 395 169 395 169 386 186 c 1,40,41
 350 144 350 144 309 109 c 128,-1,42
 268 74 268 74 224 48.5 c 128,-1,43
 180 23 180 23 135 9 c 128,-1,44
 90 -5 90 -5 46 -5 c 256,0,1
72 31 m 0,45,46
 103 31 103 31 142.5 47.5 c 128,-1,47
 182 64 182 64 223 91 c 128,-1,48
 264 118 264 118 304 153.5 c 128,-1,49
 344 189 344 189 376 228 c 1,50,-1
 376 230 l 2,51,52
 376 260 376 260 385 284.5 c 128,-1,53
 394 309 394 309 407.5 327 c 128,-1,54
 421 345 421 345 438 357 c 128,-1,55
 455 369 455 369 470 375 c 1,56,57
 491 419 491 419 501.5 460.5 c 128,-1,58
 512 502 512 502 512 538 c 0,59,60
 512 565 512 565 506 583.5 c 128,-1,61
 500 602 500 602 490.5 613 c 128,-1,62
 481 624 481 624 468.5 629 c 128,-1,63
 456 634 456 634 443 634 c 0,64,65
 386 634 386 634 304 568.5 c 128,-1,66
 222 503 222 503 119 374 c 0,67,68
 50 288 50 288 21.5 228 c 128,-1,69
 -7 168 -7 168 -7 123 c 0,70,71
 -7 109 -7 109 -4 93 c 128,-1,72
 -1 77 -1 77 7.5 63.5 c 128,-1,73
 16 50 16 50 31.5 40.5 c 128,-1,74
 47 31 47 31 72 31 c 0,45,46
EndSplineSet
EndChar

StartChar: p
Encoding: 112 112 20
Width: 844
Flags: W
LayerCount: 2
Fore
SplineSet
-147 17 m 1,0,1
 -188 -38 -188 -38 -234.5 -106 c 128,-1,2
 -281 -174 -281 -174 -327.5 -244 c 128,-1,3
 -374 -314 -374 -314 -417 -381.5 c 128,-1,4
 -460 -449 -460 -449 -493.5 -503 c 128,-1,5
 -527 -557 -527 -557 -548.5 -592.5 c 128,-1,6
 -570 -628 -570 -628 -573 -635 c 1,7,8
 -584 -637 -584 -637 -606.5 -640 c 128,-1,9
 -629 -643 -629 -643 -668 -643 c 0,10,11
 -674 -643 -674 -643 -684 -642.5 c 128,-1,12
 -694 -642 -694 -642 -705 -640.5 c 128,-1,13
 -716 -639 -716 -639 -727 -637 c 128,-1,14
 -738 -635 -738 -635 -745 -633 c 1,15,16
 -695 -565 -695 -565 -638 -487.5 c 128,-1,17
 -581 -410 -581 -410 -521 -327.5 c 128,-1,18
 -461 -245 -461 -245 -398.5 -159.5 c 128,-1,19
 -336 -74 -336 -74 -275 11 c 128,-1,20
 -214 96 -214 96 -156 177.5 c 128,-1,21
 -98 259 -98 259 -46 334 c 1,22,23
 2 400 2 400 36 446 c 128,-1,24
 70 492 70 492 99 530.5 c 128,-1,25
 128 569 128 569 156 606.5 c 128,-1,26
 184 644 184 644 220 692 c 128,-1,27
 256 740 256 740 304.5 804.5 c 128,-1,28
 353 869 353 869 422 963 c 1,29,30
 457 959 457 959 478.5 958 c 128,-1,31
 500 957 500 957 516 957 c 0,32,33
 529 957 529 957 544.5 958.5 c 128,-1,34
 560 960 560 960 581 967 c 1,35,36
 507 878 507 878 453.5 813.5 c 128,-1,37
 400 749 400 749 360.5 700.5 c 128,-1,38
 321 652 321 652 291 614 c 128,-1,39
 261 576 261 576 234 540.5 c 128,-1,40
 207 505 207 505 178.5 467.5 c 128,-1,41
 150 430 150 430 114 381 c 2,42,-1
 25 262 l 1,43,-1
 29 257 l 1,44,45
 155 378 155 378 246.5 459 c 128,-1,46
 338 540 338 540 409.5 588 c 128,-1,47
 481 636 481 636 539 656 c 128,-1,48
 597 676 597 676 657 676 c 0,49,50
 708 676 708 676 730.5 652.5 c 128,-1,51
 753 629 753 629 753 591 c 0,52,53
 753 517 753 517 683 425.5 c 128,-1,54
 613 334 613 334 457 221 c 0,55,56
 412 188 412 188 382 164 c 128,-1,57
 352 140 352 140 334 122 c 128,-1,58
 316 104 316 104 308.5 91.5 c 128,-1,59
 301 79 301 79 301 69 c 0,60,61
 301 51 301 51 318 40 c 128,-1,62
 335 29 335 29 367 29 c 0,63,64
 408 29 408 29 451 46.5 c 128,-1,65
 494 64 494 64 536.5 92 c 128,-1,66
 579 120 579 120 620 156.5 c 128,-1,67
 661 193 661 193 698 230.5 c 128,-1,68
 735 268 735 268 766.5 304.5 c 128,-1,69
 798 341 798 341 822 370 c 1,70,-1
 851 403 l 1,71,-1
 876 382 l 1,72,-1
 853 356 l 2,73,74
 827 327 827 327 793.5 289 c 128,-1,75
 760 251 760 251 720 211 c 128,-1,76
 680 171 680 171 636 132 c 128,-1,77
 592 93 592 93 546 62.5 c 128,-1,78
 500 32 500 32 453 13.5 c 128,-1,79
 406 -5 406 -5 362 -5 c 0,80,81
 302 -5 302 -5 273 22 c 128,-1,82
 244 49 244 49 244 95 c 0,83,84
 244 128 244 128 261.5 168.5 c 128,-1,85
 279 209 279 209 317.5 256.5 c 128,-1,86
 356 304 356 304 418 360 c 128,-1,87
 480 416 480 416 569 481 c 0,88,89
 612 512 612 512 637 534.5 c 128,-1,90
 662 557 662 557 675 572.5 c 128,-1,91
 688 588 688 588 691.5 598.5 c 128,-1,92
 695 609 695 609 695 617 c 0,93,94
 695 628 695 628 685 636.5 c 128,-1,95
 675 645 675 645 657 645 c 0,96,97
 614 645 614 645 568 628.5 c 128,-1,98
 522 612 522 612 473 584 c 1,99,100
 410 545 410 545 329.5 480 c 128,-1,101
 249 415 249 415 165 337 c 128,-1,102
 81 259 81 259 -0.5 175.5 c 128,-1,103
 -82 92 -82 92 -147 17 c 1,0,1
EndSplineSet
EndChar

StartChar: q
Encoding: 113 113 21
Width: 860
Flags: W
LayerCount: 2
Fore
SplineSet
-41 -5 m 0,0,1
 -104 -5 -104 -5 -134 29 c 128,-1,2
 -164 63 -164 63 -164 124 c 0,3,4
 -164 188 -164 188 -135.5 262 c 128,-1,5
 -107 336 -107 336 -43 409 c 0,6,7
 20 482 20 482 81 530.5 c 128,-1,8
 142 579 142 579 200.5 608 c 128,-1,9
 259 637 259 637 314.5 649.5 c 128,-1,10
 370 662 370 662 422 662 c 0,11,12
 447 662 447 662 469.5 657 c 128,-1,13
 492 652 492 652 509 640.5 c 128,-1,14
 526 629 526 629 536 609.5 c 128,-1,15
 546 590 546 590 546 561 c 0,16,17
 546 546 546 546 544 532.5 c 128,-1,18
 542 519 542 519 539 506 c 1,19,20
 566 540 566 540 586 565 c 128,-1,21
 606 590 606 590 623 613 c 2,22,-1
 644 642 l 1,23,24
 656 638 656 638 672.5 636.5 c 128,-1,25
 689 635 689 635 703 635 c 0,26,27
 709 635 709 635 720 635.5 c 128,-1,28
 731 636 731 636 742.5 636 c 128,-1,29
 754 636 754 636 765 636.5 c 128,-1,30
 776 637 776 637 782 637 c 1,31,32
 740 588 740 588 704 542.5 c 128,-1,33
 668 497 668 497 631.5 450 c 128,-1,34
 595 403 595 403 554 352.5 c 128,-1,35
 513 302 513 302 461 244 c 2,36,-1
 345 113 l 1,37,38
 352 96 352 96 356 80.5 c 128,-1,39
 360 65 360 65 367 53 c 128,-1,40
 374 41 374 41 387.5 34 c 128,-1,41
 401 27 401 27 427 27 c 0,42,43
 463 27 463 27 504.5 49 c 128,-1,44
 546 71 546 71 589 106 c 128,-1,45
 632 141 632 141 673.5 183 c 128,-1,46
 715 225 715 225 750.5 265.5 c 128,-1,47
 786 306 786 306 813.5 339.5 c 128,-1,48
 841 373 841 373 855 390 c 2,49,-1
 866 403 l 1,50,-1
 891 383 l 1,51,-1
 869 355 l 2,52,53
 851 332 851 332 822.5 297 c 128,-1,54
 794 262 794 262 758 222 c 128,-1,55
 722 182 722 182 680.5 141.5 c 128,-1,56
 639 101 639 101 596 68.5 c 128,-1,57
 553 36 553 36 510 15.5 c 128,-1,58
 467 -5 467 -5 428 -5 c 0,59,60
 376 -5 376 -5 346 25 c 1,61,62
 325 -64 325 -64 290.5 -148.5 c 128,-1,63
 256 -233 256 -233 213 -307.5 c 128,-1,64
 170 -382 170 -382 120.5 -443.5 c 128,-1,65
 71 -505 71 -505 20.5 -549.5 c 128,-1,66
 -30 -594 -30 -594 -79.5 -618.5 c 128,-1,67
 -129 -643 -129 -643 -173 -643 c 0,68,69
 -206 -643 -206 -643 -224 -624 c 128,-1,70
 -242 -605 -242 -605 -242 -569 c 0,71,72
 -242 -524 -242 -524 -214 -457 c 128,-1,73
 -186 -390 -186 -390 -130.5 -304.5 c 128,-1,74
 -75 -219 -75 -219 6.5 -117.5 c 128,-1,75
 88 -16 88 -16 195 98 c 1,76,77
 120 44 120 44 58 19.5 c 128,-1,78
 -4 -5 -4 -5 -41 -5 c 0,0,1
-37 31 m 0,79,80
 -4 31 -4 31 42 47 c 128,-1,81
 88 63 88 63 144 99.5 c 128,-1,82
 200 136 200 136 265 195 c 128,-1,83
 330 254 330 254 402 340 c 2,84,-1
 470 421 l 1,85,86
 489 448 489 448 502.5 483.5 c 128,-1,87
 516 519 516 519 516 570 c 0,88,89
 516 598 516 598 494 612 c 128,-1,90
 472 626 472 626 446 626 c 0,91,92
 423 626 423 626 382.5 607.5 c 128,-1,93
 342 589 342 589 290.5 553 c 128,-1,94
 239 517 239 517 179.5 463 c 128,-1,95
 120 409 120 409 59 338 c 1,96,97
 -10 253 -10 253 -44 187.5 c 128,-1,98
 -78 122 -78 122 -78 77 c 0,99,100
 -78 51 -78 51 -68 41 c 128,-1,101
 -58 31 -58 31 -37 31 c 0,79,80
320 57 m 0,102,103
 322 62 322 62 322 65.5 c 128,-1,104
 322 69 322 69 322 74 c 0,105,106
 322 82 322 82 321 86 c 1,107,108
 271 27 271 27 212.5 -41 c 128,-1,109
 154 -109 154 -109 95.5 -178.5 c 128,-1,110
 37 -248 37 -248 -17.5 -314.5 c 128,-1,111
 -72 -381 -72 -381 -113.5 -436.5 c 128,-1,112
 -155 -492 -155 -492 -180 -531.5 c 128,-1,113
 -205 -571 -205 -571 -205 -586 c 256,114,115
 -205 -601 -205 -601 -198 -608.5 c 128,-1,116
 -191 -616 -191 -616 -173 -616 c 0,117,118
 -142 -616 -142 -616 -99 -588.5 c 128,-1,119
 -56 -561 -56 -561 -7.5 -513.5 c 128,-1,120
 41 -466 41 -466 91 -401 c 128,-1,121
 141 -336 141 -336 185.5 -261.5 c 128,-1,122
 230 -187 230 -187 265.5 -105.5 c 128,-1,123
 301 -24 301 -24 320 57 c 0,102,103
EndSplineSet
EndChar

StartChar: r
Encoding: 114 114 22
Width: 672
Flags: W
LayerCount: 2
Fore
SplineSet
37 100 m 0,0,1
 37 139 37 139 66.5 186.5 c 128,-1,2
 96 234 96 234 150.5 288.5 c 128,-1,3
 205 343 205 343 283 403.5 c 128,-1,4
 361 464 361 464 458 530 c 1,5,6
 361 545 361 545 293 561 c 128,-1,7
 225 577 225 577 180 597 c 1,8,9
 159 555 159 555 121 499 c 128,-1,10
 83 443 83 443 29 380 c 0,11,12
 -1 346 -1 346 -20 327 c 128,-1,13
 -39 308 -39 308 -50 299 c 128,-1,14
 -61 290 -61 290 -65 288 c 128,-1,15
 -69 286 -69 286 -69 286 c 1,16,17
 -74 286 -74 286 -74 299 c 0,18,19
 -74 305 -74 305 -73 308 c 1,20,21
 -73 305 -73 305 -60 320 c 128,-1,22
 -47 335 -47 335 -26 361.5 c 128,-1,23
 -5 388 -5 388 20.5 422 c 128,-1,24
 46 456 46 456 70.5 491 c 128,-1,25
 95 526 95 526 116 558 c 128,-1,26
 137 590 137 590 149 613 c 1,27,28
 123 629 123 629 114.5 645.5 c 128,-1,29
 106 662 106 662 106 684 c 0,30,31
 106 705 106 705 113 724.5 c 128,-1,32
 120 744 120 744 132.5 759 c 128,-1,33
 145 774 145 774 161.5 782.5 c 128,-1,34
 178 791 178 791 198 791 c 0,35,36
 224 791 224 791 239 778.5 c 128,-1,37
 254 766 254 766 254 744 c 0,38,39
 254 724 254 724 247 710 c 128,-1,40
 240 696 240 696 232 683 c 2,41,-1
 226 673 l 1,42,43
 209 654 209 654 209 623 c 0,44,45
 209 617 209 617 225 610 c 128,-1,46
 241 603 241 603 267 596 c 128,-1,47
 293 589 293 589 325 582.5 c 128,-1,48
 357 576 357 576 389 570.5 c 128,-1,49
 421 565 421 565 449.5 561 c 128,-1,50
 478 557 478 557 497 556 c 0,51,52
 518 555 518 555 522.5 548.5 c 128,-1,53
 527 542 527 542 527 539 c 0,54,55
 527 533 527 533 520.5 525.5 c 128,-1,56
 514 518 514 518 498 504 c 1,57,58
 462 476 462 476 424 440 c 128,-1,59
 386 404 386 404 350 364.5 c 128,-1,60
 314 325 314 325 281.5 284 c 128,-1,61
 249 243 249 243 224.5 204.5 c 128,-1,62
 200 166 200 166 186 133 c 128,-1,63
 172 100 172 100 172 77 c 256,64,65
 172 54 172 54 182 44 c 128,-1,66
 192 34 192 34 206 34 c 0,67,68
 241 34 241 34 282.5 53.5 c 128,-1,69
 324 73 324 73 367.5 104 c 128,-1,70
 411 135 411 135 454.5 173.5 c 128,-1,71
 498 212 498 212 536.5 250.5 c 128,-1,72
 575 289 575 289 606 323 c 128,-1,73
 637 357 637 357 657 380 c 2,74,-1
 678 403 l 1,75,-1
 702 382 l 1,76,77
 682 366 682 366 650.5 331 c 128,-1,78
 619 296 619 296 578.5 253 c 128,-1,79
 538 210 538 210 489.5 164.5 c 128,-1,80
 441 119 441 119 388 81 c 128,-1,81
 335 43 335 43 278.5 19 c 128,-1,82
 222 -5 222 -5 164 -5 c 0,83,84
 107 -5 107 -5 72 23.5 c 128,-1,85
 37 52 37 52 37 100 c 0,0,1
EndSplineSet
EndChar

StartChar: s
Encoding: 115 115 23
Width: 586
Flags: W
LayerCount: 2
Fore
SplineSet
-58 -25 m 0,0,1
 -78 -25 -78 -25 -111 -21.5 c 128,-1,2
 -144 -18 -144 -18 -176 -5 c 128,-1,3
 -208 8 -208 8 -231 32.5 c 128,-1,4
 -254 57 -254 57 -254 99 c 0,5,6
 -254 136 -254 136 -235.5 163.5 c 128,-1,7
 -217 191 -217 191 -191.5 209.5 c 128,-1,8
 -166 228 -166 228 -140.5 237 c 128,-1,9
 -115 246 -115 246 -101 246 c 0,10,11
 -57 246 -57 246 -57 205 c 0,12,13
 -57 189 -57 189 -79.5 175 c 128,-1,14
 -102 161 -102 161 -129 161 c 0,15,16
 -137 161 -137 161 -146.5 166.5 c 128,-1,17
 -156 172 -156 172 -164 177 c 1,18,-1
 -163 176 l 1,19,-1
 -170 181 l 1,20,21
 -177 174 -177 174 -186 166 c 128,-1,22
 -195 158 -195 158 -203 147.5 c 128,-1,23
 -211 137 -211 137 -216.5 124.5 c 128,-1,24
 -222 112 -222 112 -222 97 c 0,25,26
 -222 70 -222 70 -204 54 c 128,-1,27
 -186 38 -186 38 -161 29 c 128,-1,28
 -136 20 -136 20 -110.5 17.5 c 128,-1,29
 -85 15 -85 15 -70 15 c 0,30,31
 -40 15 -40 15 3 34 c 128,-1,32
 46 53 46 53 88.5 95 c 128,-1,33
 131 137 131 137 166 204 c 128,-1,34
 201 271 201 271 214 367 c 1,35,-1
 218 419 l 2,36,37
 220 443 220 443 221.5 471.5 c 128,-1,38
 223 500 223 500 226.5 530.5 c 128,-1,39
 230 561 230 561 235.5 592 c 128,-1,40
 241 623 241 623 252 653 c 1,41,42
 227 622 227 622 198.5 587 c 128,-1,43
 170 552 170 552 142 517.5 c 128,-1,44
 114 483 114 483 88 451.5 c 128,-1,45
 62 420 62 420 41 395.5 c 128,-1,46
 20 371 20 371 6 356.5 c 128,-1,47
 -8 342 -8 342 -11 342 c 0,48,49
 -16 342 -16 342 -23 342 c 128,-1,50
 -30 342 -30 342 -30 348 c 0,51,52
 -30 356 -30 356 -21.5 368 c 128,-1,53
 -13 380 -13 380 -2 394 c 2,54,-1
 4 401 l 2,55,56
 20 420 20 420 51.5 457.5 c 128,-1,57
 83 495 83 495 120 539 c 128,-1,58
 157 583 157 583 195 629.5 c 128,-1,59
 233 676 233 676 262 713 c 1,60,61
 269 744 269 744 281.5 768.5 c 128,-1,62
 294 793 294 793 317 793 c 0,63,64
 335 793 335 793 347 783.5 c 128,-1,65
 359 774 359 774 359 757 c 0,66,67
 359 744 359 744 347.5 728 c 128,-1,68
 336 712 336 712 313 686 c 0,69,70
 292 662 292 662 288 650 c 128,-1,71
 284 638 284 638 284 629 c 2,72,-1
 284 623 l 2,73,74
 284 594 284 594 289 556.5 c 128,-1,75
 294 519 294 519 301 476 c 1,76,-1
 301 477 l 1,77,78
 308 438 308 438 314 396 c 128,-1,79
 320 354 320 354 322 316 c 1,80,81
 322 239 322 239 302 183 c 1,82,83
 307 182 307 182 313.5 182 c 128,-1,84
 320 182 320 182 328 182 c 0,85,86
 349 182 349 182 374.5 196 c 128,-1,87
 400 210 400 210 427 231.5 c 128,-1,88
 454 253 454 253 480 279 c 128,-1,89
 506 305 506 305 528 329.5 c 128,-1,90
 550 354 550 354 566.5 374 c 128,-1,91
 583 394 583 394 590 403 c 1,92,-1
 617 382 l 1,93,-1
 586 348 l 2,94,95
 563 322 563 322 531 288.5 c 128,-1,96
 499 255 499 255 463.5 224.5 c 128,-1,97
 428 194 428 194 392 173.5 c 128,-1,98
 356 153 356 153 325 153 c 0,99,100
 305 153 305 153 290 156 c 1,101,102
 266 106 266 106 226.5 71.5 c 128,-1,103
 187 37 187 37 140 15.5 c 128,-1,104
 93 -6 93 -6 41.5 -15.5 c 128,-1,105
 -10 -25 -10 -25 -58 -25 c 0,0,1
EndSplineSet
EndChar

StartChar: t
Encoding: 116 116 24
Width: 426
Flags: W
LayerCount: 2
Fore
SplineSet
-50 29 m 1,0,1
 -5 30 -5 30 43 51.5 c 128,-1,2
 91 73 91 73 137.5 106.5 c 128,-1,3
 184 140 184 140 228 181.5 c 128,-1,4
 272 223 272 223 310.5 264.5 c 128,-1,5
 349 306 349 306 379.5 342.5 c 128,-1,6
 410 379 410 379 430 403 c 1,7,-1
 457 382 l 1,8,9
 436 361 436 361 404 324 c 128,-1,10
 372 287 372 287 332 244 c 128,-1,11
 292 201 292 201 245.5 156.5 c 128,-1,12
 199 112 199 112 149 76.5 c 128,-1,13
 99 41 99 41 46 18 c 128,-1,14
 -7 -5 -7 -5 -59 -5 c 0,15,16
 -116 -5 -116 -5 -143 17.5 c 128,-1,17
 -170 40 -170 40 -170 75 c 0,18,19
 -170 93 -170 93 -167 110.5 c 128,-1,20
 -164 128 -164 128 -155.5 149 c 128,-1,21
 -147 170 -147 170 -131 198.5 c 128,-1,22
 -115 227 -115 227 -89.5 266 c 128,-1,23
 -64 305 -64 305 -27 358.5 c 128,-1,24
 10 412 10 412 61 484 c 2,25,-1
 310 835 l 1,26,-1
 239 835 l 2,27,28
 222 835 222 835 214.5 837.5 c 128,-1,29
 207 840 207 840 207 851 c 0,30,31
 207 864 207 864 217.5 867 c 128,-1,32
 228 870 228 870 247 870 c 2,33,-1
 335 870 l 1,34,-1
 517 1125 l 1,35,36
 527 1123 527 1123 542.5 1122 c 128,-1,37
 558 1121 558 1121 585 1121 c 0,38,39
 599 1121 599 1121 615.5 1121 c 128,-1,40
 632 1121 632 1121 661 1126 c 1,41,-1
 471 870 l 1,42,-1
 718 870 l 2,43,44
 749 870 749 870 749 852 c 0,45,46
 749 835 749 835 721 835 c 2,47,-1
 445 835 l 1,48,-1
 186 486 l 2,49,50
 94 363 94 363 38.5 284.5 c 128,-1,51
 -17 206 -17 206 -47.5 159 c 128,-1,52
 -78 112 -78 112 -87.5 89.5 c 128,-1,53
 -97 67 -97 67 -97 57 c 0,54,55
 -97 43 -97 43 -84.5 36.5 c 128,-1,56
 -72 30 -72 30 -50 29 c 1,0,1
EndSplineSet
EndChar

StartChar: u
Encoding: 117 117 25
Width: 870
Flags: W
LayerCount: 2
Fore
SplineSet
-40 -5 m 0,0,1
 -75 -5 -75 -5 -99 4.5 c 128,-1,2
 -123 14 -123 14 -137 30 c 128,-1,3
 -151 46 -151 46 -157 65.5 c 128,-1,4
 -163 85 -163 85 -163 105 c 0,5,6
 -163 174 -163 174 -103.5 263 c 128,-1,7
 -44 352 -44 352 60 470 c 0,8,9
 100 515 100 515 140.5 567.5 c 128,-1,10
 181 620 181 620 227 671 c 1,11,12
 240 668 240 668 264 666 c 128,-1,13
 288 664 288 664 308 664 c 0,14,15
 315 664 315 664 326 664 c 128,-1,16
 337 664 337 664 348.5 664.5 c 128,-1,17
 360 665 360 665 370.5 666 c 128,-1,18
 381 667 381 667 387 668 c 1,19,20
 345 623 345 623 301.5 574 c 128,-1,21
 258 525 258 525 216.5 476 c 128,-1,22
 175 427 175 427 136 380.5 c 128,-1,23
 97 334 97 334 64 294 c 2,24,-1
 37 262 l 2,25,26
 20 242 20 242 0 217.5 c 128,-1,27
 -20 193 -20 193 -37 167 c 128,-1,28
 -54 141 -54 141 -65.5 114 c 128,-1,29
 -77 87 -77 87 -77 62 c 0,30,31
 -77 48 -77 48 -69 36.5 c 128,-1,32
 -61 25 -61 25 -32 25 c 0,33,34
 -13 25 -13 25 27.5 37.5 c 128,-1,35
 68 50 68 50 116 81 c 1,36,-1
 116 80 l 1,37,38
 181 125 181 125 264.5 202 c 128,-1,39
 348 279 348 279 447 401 c 1,40,-1
 516 484 l 1,41,42
 549 526 549 526 587.5 571.5 c 128,-1,43
 626 617 626 617 671 671 c 1,44,-1
 693 668 l 2,45,46
 710 666 710 666 721.5 665 c 128,-1,47
 733 664 733 664 750 664 c 0,48,49
 773 664 773 664 792 665 c 128,-1,50
 811 666 811 666 828 668 c 1,51,52
 795 632 795 632 755 585 c 128,-1,53
 715 538 715 538 672 486.5 c 128,-1,54
 629 435 629 435 586 382 c 128,-1,55
 543 329 543 329 504 281 c 2,56,-1
 416 173 l 2,57,58
 393 146 393 146 379.5 128 c 128,-1,59
 366 110 366 110 358.5 98 c 128,-1,60
 351 86 351 86 348.5 77.5 c 128,-1,61
 346 69 346 69 346 60 c 0,62,63
 346 50 346 50 354 39.5 c 128,-1,64
 362 29 362 29 394 29 c 0,65,66
 431 29 431 29 474 48.5 c 128,-1,67
 517 68 517 68 561.5 99 c 128,-1,68
 606 130 606 130 649.5 168.5 c 128,-1,69
 693 207 693 207 731.5 245.5 c 128,-1,70
 770 284 770 284 801.5 318.5 c 128,-1,71
 833 353 833 353 853 376 c 2,72,-1
 878 403 l 1,73,-1
 902 382 l 1,74,75
 894 374 894 374 866.5 342.5 c 128,-1,76
 839 311 839 311 798 268 c 128,-1,77
 757 225 757 225 706 177 c 128,-1,78
 655 129 655 129 600.5 88.5 c 128,-1,79
 546 48 546 48 491 21.5 c 128,-1,80
 436 -5 436 -5 388 -5 c 0,81,82
 342 -5 342 -5 315.5 20.5 c 128,-1,83
 289 46 289 46 289 94 c 0,84,85
 289 123 289 123 299 154 c 128,-1,86
 309 185 309 185 329 223 c 1,87,88
 269 158 269 158 216 114.5 c 128,-1,89
 163 71 163 71 116.5 44.5 c 128,-1,90
 70 18 70 18 30.5 6.5 c 128,-1,91
 -9 -5 -9 -5 -40 -5 c 0,0,1
EndSplineSet
EndChar

StartChar: v
Encoding: 118 118 26
Width: 782
Flags: W
LayerCount: 2
Fore
SplineSet
-67 27 m 0,0,1
 -14 27 -14 27 47.5 50 c 128,-1,2
 109 73 109 73 172.5 110.5 c 128,-1,3
 236 148 236 148 299.5 195.5 c 128,-1,4
 363 243 363 243 419 292 c 1,5,6
 470 338 470 338 501.5 379 c 128,-1,7
 533 420 533 420 551 458.5 c 128,-1,8
 569 497 569 497 575 535 c 128,-1,9
 581 573 581 573 581 614 c 0,10,11
 581 652 581 652 604 676 c 128,-1,12
 627 700 627 700 661 700 c 0,13,14
 689 700 689 700 704 687 c 128,-1,15
 719 674 719 674 719 643 c 0,16,17
 719 623 719 623 712 595 c 128,-1,18
 705 567 705 567 684 530 c 128,-1,19
 663 493 663 493 624.5 445.5 c 128,-1,20
 586 398 586 398 523 338 c 2,21,-1
 496 312 l 1,22,23
 479 288 479 288 468.5 265 c 128,-1,24
 458 242 458 242 458 225 c 0,25,26
 458 210 458 210 467.5 201 c 128,-1,27
 477 192 477 192 500 192 c 0,28,29
 522 192 522 192 548.5 203.5 c 128,-1,30
 575 215 575 215 602.5 233.5 c 128,-1,31
 630 252 630 252 657.5 275.5 c 128,-1,32
 685 299 685 299 709.5 322.5 c 128,-1,33
 734 346 734 346 754 367 c 128,-1,34
 774 388 774 388 787 403 c 1,35,-1
 813 382 l 1,36,37
 788 355 788 355 749.5 317 c 128,-1,38
 711 279 711 279 667 244.5 c 128,-1,39
 623 210 623 210 577.5 186 c 128,-1,40
 532 162 532 162 492 162 c 0,41,42
 425 162 425 162 425 217 c 0,43,44
 425 226 425 226 426.5 236.5 c 128,-1,45
 428 247 428 247 433 258 c 1,46,47
 377 213 377 213 311.5 166 c 128,-1,48
 246 119 246 119 177.5 81 c 128,-1,49
 109 43 109 43 42.5 19 c 128,-1,50
 -24 -5 -24 -5 -81 -5 c 256,51,52
 -138 -5 -138 -5 -165.5 17.5 c 128,-1,53
 -193 40 -193 40 -193 80 c 0,54,55
 -193 109 -193 109 -180 148.5 c 128,-1,56
 -167 188 -167 188 -126.5 249.5 c 128,-1,57
 -86 311 -86 311 -10 400.5 c 128,-1,58
 66 490 66 490 191 619 c 1,59,-1
 242 671 l 1,60,-1
 258 669 l 2,61,62
 281 666 281 666 294 665 c 128,-1,63
 307 664 307 664 327 664 c 0,64,65
 350 664 350 664 369.5 665 c 128,-1,66
 389 666 389 666 407 668 c 1,67,68
 352 617 352 617 315 580 c 128,-1,69
 278 543 278 543 249.5 512 c 128,-1,70
 221 481 221 481 195.5 452 c 128,-1,71
 170 423 170 423 138 389 c 2,72,-1
 103 353 l 2,73,74
 73 322 73 322 34.5 282 c 128,-1,75
 -4 242 -4 242 -38 202.5 c 128,-1,76
 -72 163 -72 163 -95.5 127 c 128,-1,77
 -119 91 -119 91 -119 68 c 0,78,79
 -119 39 -119 39 -105 33 c 128,-1,80
 -91 27 -91 27 -67 27 c 0,0,1
EndSplineSet
EndChar

StartChar: w
Encoding: 119 119 27
Width: 1141
Flags: W
LayerCount: 2
Fore
SplineSet
-103 29 m 0,0,1
 -85 29 -85 29 -32 50 c 128,-1,2
 21 71 21 71 93.5 114 c 128,-1,3
 166 157 166 157 250.5 223 c 128,-1,4
 335 289 335 289 416 380 c 1,5,-1
 457 430 l 2,6,7
 502 484 502 484 559 542.5 c 128,-1,8
 616 601 616 601 688 671 c 1,9,-1
 710 668 l 2,10,11
 727 666 727 666 739 665 c 128,-1,12
 751 664 751 664 768 664 c 0,13,14
 790 664 790 664 809.5 665 c 128,-1,15
 829 666 829 666 847 668 c 1,16,17
 802 620 802 620 745 560 c 128,-1,18
 688 500 688 500 628.5 436 c 128,-1,19
 569 372 569 372 511.5 309 c 128,-1,20
 454 246 454 246 409.5 193 c 128,-1,21
 365 140 365 140 337.5 101.5 c 128,-1,22
 310 63 310 63 310 48 c 0,23,24
 310 36 310 36 316.5 32.5 c 128,-1,25
 323 29 323 29 331 29 c 0,26,27
 364 29 364 29 420.5 50.5 c 128,-1,28
 477 72 477 72 543 110.5 c 128,-1,29
 609 149 609 149 678.5 201.5 c 128,-1,30
 748 254 748 254 807 316 c 0,31,32
 856 367 856 367 887.5 404.5 c 128,-1,33
 919 442 919 442 937 475 c 128,-1,34
 955 508 955 508 962 540.5 c 128,-1,35
 969 573 969 573 969 614 c 0,36,37
 969 633 969 633 974 650 c 128,-1,38
 979 667 979 667 988.5 680.5 c 128,-1,39
 998 694 998 694 1011 702 c 128,-1,40
 1024 710 1024 710 1040 710 c 0,41,42
 1076 710 1076 710 1092 692 c 128,-1,43
 1108 674 1108 674 1108 643 c 0,44,45
 1108 622 1108 622 1100 595 c 128,-1,46
 1092 568 1092 568 1070.5 531 c 128,-1,47
 1049 494 1049 494 1010.5 446.5 c 128,-1,48
 972 399 972 399 911 338 c 0,49,50
 901 328 901 328 886 315.5 c 128,-1,51
 871 303 871 303 857.5 289.5 c 128,-1,52
 844 276 844 276 834 260.5 c 128,-1,53
 824 245 824 245 824 229 c 0,54,55
 824 212 824 212 834.5 202 c 128,-1,56
 845 192 845 192 869 192 c 0,57,58
 902 192 902 192 943 216.5 c 128,-1,59
 984 241 984 241 1023.5 275 c 128,-1,60
 1063 309 1063 309 1096.5 345 c 128,-1,61
 1130 381 1130 381 1149 403 c 1,62,-1
 1174 382 l 1,63,64
 1148 355 1148 355 1110.5 317 c 128,-1,65
 1073 279 1073 279 1031 244.5 c 128,-1,66
 989 210 989 210 944.5 186 c 128,-1,67
 900 162 900 162 860 162 c 0,68,69
 825 162 825 162 807.5 177.5 c 128,-1,70
 790 193 790 193 790 221 c 0,71,72
 790 230 790 230 791 233 c 1,73,74
 734 189 734 189 668.5 146 c 128,-1,75
 603 103 603 103 539 69.5 c 128,-1,76
 475 36 475 36 417.5 15.5 c 128,-1,77
 360 -5 360 -5 320 -5 c 0,78,79
 285 -5 285 -5 270.5 14 c 128,-1,80
 256 33 256 33 256 62 c 0,81,82
 256 95 256 95 269 137 c 128,-1,83
 282 179 282 179 314 234 c 1,84,85
 169 111 169 111 64 53 c 128,-1,86
 -41 -5 -41 -5 -109 -5 c 0,87,88
 -139 -5 -139 -5 -157.5 11 c 128,-1,89
 -176 27 -176 27 -176 60 c 0,90,91
 -176 108 -176 108 -147 173 c 128,-1,92
 -118 238 -118 238 -62.5 317 c 128,-1,93
 -7 396 -7 396 73.5 485.5 c 128,-1,94
 154 575 154 575 256 671 c 1,95,96
 269 668 269 668 293 666 c 128,-1,97
 317 664 317 664 337 664 c 0,98,99
 344 664 344 664 355 664 c 128,-1,100
 366 664 366 664 377.5 664.5 c 128,-1,101
 389 665 389 665 399.5 666 c 128,-1,102
 410 667 410 667 416 668 c 1,103,104
 306 556 306 556 208 451.5 c 128,-1,105
 110 347 110 347 35.5 263 c 128,-1,106
 -39 179 -39 179 -82.5 122 c 128,-1,107
 -126 65 -126 65 -126 47 c 0,108,109
 -126 37 -126 37 -122 33 c 128,-1,110
 -118 29 -118 29 -103 29 c 0,0,1
EndSplineSet
EndChar

StartChar: x
Encoding: 120 120 28
Width: 889
Flags: W
LayerCount: 2
Fore
SplineSet
-51 68 m 0,0,1
 -5 68 -5 68 45 93.5 c 128,-1,2
 95 119 95 119 145.5 166 c 128,-1,3
 196 213 196 213 245 279 c 128,-1,4
 294 345 294 345 338 426 c 1,5,6
 338 426 338 426 339 428 c 2,7,-1
 344 437 l 1,8,-1
 344 435 l 1,9,10
 365 465 365 465 377.5 487.5 c 128,-1,11
 390 510 390 510 396 528.5 c 128,-1,12
 402 547 402 547 404 562 c 128,-1,13
 406 577 406 577 406 591 c 0,14,15
 406 614 406 614 396 627 c 128,-1,16
 386 640 386 640 363 640 c 0,17,18
 339 640 339 640 311.5 631.5 c 128,-1,19
 284 623 284 623 246 595.5 c 128,-1,20
 208 568 208 568 155.5 516.5 c 128,-1,21
 103 465 103 465 28 379 c 1,22,-1
 25 379 l 2,23,24
 24 379 24 379 20 380 c 128,-1,25
 16 381 16 381 11.5 383.5 c 128,-1,26
 7 386 7 386 3.5 389 c 128,-1,27
 0 392 0 392 0 396 c 0,28,29
 0 397 0 397 1 398 c 0,30,31
 82 489 82 489 138.5 544 c 128,-1,32
 195 599 195 599 236.5 628 c 128,-1,33
 278 657 278 657 309.5 666.5 c 128,-1,34
 341 676 341 676 373 676 c 0,35,36
 431 676 431 676 464 640.5 c 128,-1,37
 497 605 497 605 497 539 c 0,38,39
 497 525 497 525 494 504.5 c 128,-1,40
 491 484 491 484 484 459 c 1,41,42
 518 502 518 502 558 541.5 c 128,-1,43
 598 581 598 581 640.5 611 c 128,-1,44
 683 641 683 641 727 658.5 c 128,-1,45
 771 676 771 676 813 676 c 0,46,47
 840 676 840 676 858 669 c 128,-1,48
 876 662 876 662 887.5 651 c 128,-1,49
 899 640 899 640 903.5 627.5 c 128,-1,50
 908 615 908 615 908 603 c 0,51,52
 908 571 908 571 888.5 555.5 c 128,-1,53
 869 540 869 540 849 540 c 0,54,55
 816 540 816 540 797.5 561.5 c 128,-1,56
 779 583 779 583 775 621 c 1,57,58
 770 622 770 622 766.5 622 c 128,-1,59
 763 622 763 622 761 622 c 0,60,61
 722 622 722 622 676.5 593 c 128,-1,62
 631 564 631 564 583 513.5 c 128,-1,63
 535 463 535 463 487 394.5 c 128,-1,64
 439 326 439 326 394 248 c 1,65,-1
 393 248 l 1,66,67
 365 186 365 186 355 148 c 128,-1,68
 345 110 345 110 345 81 c 256,69,70
 345 52 345 52 363 40.5 c 128,-1,71
 381 29 381 29 407 29 c 0,72,73
 454 29 454 29 505 53 c 128,-1,74
 556 77 556 77 606.5 113.5 c 128,-1,75
 657 150 657 150 703.5 194.5 c 128,-1,76
 750 239 750 239 788 279.5 c 128,-1,77
 826 320 826 320 852.5 352 c 128,-1,78
 879 384 879 384 889 396 c 1,79,-1
 888 395 l 1,80,-1
 895 405 l 1,81,-1
 921 381 l 1,82,83
 915 378 915 378 904 364 c 1,84,85
 888 346 888 346 857.5 311.5 c 128,-1,86
 827 277 827 277 787 236 c 128,-1,87
 747 195 747 195 699 152.5 c 128,-1,88
 651 110 651 110 599.5 75 c 128,-1,89
 548 40 548 40 495.5 17.5 c 128,-1,90
 443 -5 443 -5 394 -5 c 0,91,92
 367 -5 367 -5 340.5 3 c 128,-1,93
 314 11 314 11 294 29 c 128,-1,94
 274 47 274 47 261.5 76 c 128,-1,95
 249 105 249 105 249 147 c 0,96,97
 249 184 249 184 268 247 c 1,98,99
 218 182 218 182 165.5 135 c 128,-1,100
 113 88 113 88 63 56.5 c 128,-1,101
 13 25 13 25 -31 10 c 128,-1,102
 -75 -5 -75 -5 -107 -5 c 0,103,104
 -156 -5 -156 -5 -174.5 9.5 c 128,-1,105
 -193 24 -193 24 -193 50 c 0,106,107
 -193 68 -193 68 -175 83.5 c 128,-1,108
 -157 99 -157 99 -131 99 c 0,109,110
 -119 99 -119 99 -109 94 c 128,-1,111
 -99 89 -99 89 -89 83.5 c 128,-1,112
 -79 78 -79 78 -69.5 73 c 128,-1,113
 -60 68 -60 68 -51 68 c 0,0,1
EndSplineSet
EndChar

StartChar: y
Encoding: 121 121 29
Width: 893
Flags: W
LayerCount: 2
Fore
SplineSet
-40 27 m 0,0,1
 26 27 26 27 96 56.5 c 128,-1,2
 166 86 166 86 233 134 c 128,-1,3
 300 182 300 182 361.5 242 c 128,-1,4
 423 302 423 302 473 362 c 1,5,6
 523 417 523 417 562.5 462 c 128,-1,7
 602 507 602 507 633.5 544.5 c 128,-1,8
 665 582 665 582 689.5 612 c 128,-1,9
 714 642 714 642 734 667 c 1,10,11
 744 665 744 665 761 662.5 c 128,-1,12
 778 660 778 660 795 660 c 0,13,14
 808 660 808 660 833 661.5 c 128,-1,15
 858 663 858 663 874 665 c 1,16,-1
 526 238 l 1,17,18
 426 106 426 106 341.5 1 c 128,-1,19
 257 -104 257 -104 185 -191 c 1,20,21
 276 -148 276 -148 346.5 -108.5 c 128,-1,22
 417 -69 417 -69 475 -29 c 128,-1,23
 533 11 533 11 582.5 55 c 128,-1,24
 632 99 632 99 681 150.5 c 128,-1,25
 730 202 730 202 782 264 c 128,-1,26
 834 326 834 326 897 403 c 1,27,-1
 923 383 l 1,28,29
 852 298 852 298 796 231.5 c 128,-1,30
 740 165 740 165 687.5 111 c 128,-1,31
 635 57 635 57 582 12 c 128,-1,32
 529 -33 529 -33 465.5 -75 c 128,-1,33
 402 -117 402 -117 322 -159 c 128,-1,34
 242 -201 242 -201 136 -249 c 1,35,36
 36 -365 36 -365 -43 -441 c 128,-1,37
 -122 -517 -122 -517 -189.5 -562 c 128,-1,38
 -257 -607 -257 -607 -318.5 -625 c 128,-1,39
 -380 -643 -380 -643 -445 -643 c 0,40,41
 -466 -643 -466 -643 -482.5 -636.5 c 128,-1,42
 -499 -630 -499 -630 -511 -620.5 c 128,-1,43
 -523 -611 -523 -611 -529 -599 c 128,-1,44
 -535 -587 -535 -587 -535 -575 c 0,45,46
 -535 -545 -535 -545 -508 -511 c 128,-1,47
 -481 -477 -481 -477 -415.5 -436.5 c 128,-1,48
 -350 -396 -350 -396 -240 -347.5 c 128,-1,49
 -130 -299 -130 -299 36 -240 c 1,50,51
 114 -147 114 -147 213 -23.5 c 128,-1,52
 312 100 312 100 439 261 c 1,53,-1
 434 264 l 1,54,55
 392 219 392 219 334 171.5 c 128,-1,56
 276 124 276 124 211 85 c 128,-1,57
 146 46 146 46 79 20.5 c 128,-1,58
 12 -5 12 -5 -48 -5 c 0,59,60
 -105 -5 -105 -5 -133 17.5 c 128,-1,61
 -161 40 -161 40 -161 80 c 0,62,63
 -161 106 -161 106 -150.5 146.5 c 128,-1,64
 -140 187 -140 187 -102.5 251 c 128,-1,65
 -65 315 -65 315 8.5 406 c 128,-1,66
 82 497 82 497 208 625 c 1,67,-1
 254 671 l 1,68,-1
 270 669 l 2,69,70
 293 666 293 666 306 665 c 128,-1,71
 319 664 319 664 339 664 c 0,72,73
 362 664 362 664 381.5 665 c 128,-1,74
 401 666 401 666 419 668 c 1,75,76
 364 618 364 618 327 581.5 c 128,-1,77
 290 545 290 545 261 513.5 c 128,-1,78
 232 482 232 482 206.5 453 c 128,-1,79
 181 424 181 424 150 389 c 2,80,-1
 111 346 l 2,81,82
 82 314 82 314 47.5 275 c 128,-1,83
 13 236 13 236 -17 197 c 128,-1,84
 -47 158 -47 158 -67.5 124 c 128,-1,85
 -88 90 -88 90 -88 68 c 0,86,87
 -88 53 -88 53 -83 45 c 128,-1,88
 -78 37 -78 37 -71 33 c 128,-1,89
 -64 29 -64 29 -55.5 28 c 128,-1,90
 -47 27 -47 27 -40 27 c 0,0,1
-4 -288 m 1,91,92
 -255 -379 -255 -379 -376 -451 c 128,-1,93
 -497 -523 -497 -523 -497 -575 c 0,94,95
 -497 -584 -497 -584 -484.5 -597.5 c 128,-1,96
 -472 -611 -472 -611 -442 -611 c 0,97,98
 -398 -611 -398 -611 -355.5 -597.5 c 128,-1,99
 -313 -584 -313 -584 -263 -548 c 128,-1,100
 -213 -512 -213 -512 -150.5 -449 c 128,-1,101
 -88 -386 -88 -386 -4 -288 c 1,91,92
EndSplineSet
EndChar

StartChar: z
Encoding: 122 122 30
Width: 684
Flags: W
LayerCount: 2
Fore
SplineSet
10 -30 m 2,0,1
 -22 -47 -22 -47 -43.5 -59 c 128,-1,2
 -65 -71 -65 -71 -77.5 -79 c 128,-1,3
 -90 -87 -90 -87 -95.5 -90.5 c 128,-1,4
 -101 -94 -101 -94 -101 -94 c 1,5,6
 -108 -94 -108 -94 -120 -86 c 128,-1,7
 -132 -78 -132 -78 -132 -75 c 0,8,9
 -132 -69 -132 -69 -123 -59.5 c 128,-1,10
 -114 -50 -114 -50 -83 -37 c 0,11,12
 -54 -25 -54 -25 -31 -12.5 c 128,-1,13
 -8 0 -8 0 13 17.5 c 128,-1,14
 34 35 34 35 54.5 60.5 c 128,-1,15
 75 86 75 86 99.5 124 c 128,-1,16
 124 162 124 162 153.5 214.5 c 128,-1,17
 183 267 183 267 222 340 c 0,18,19
 241 375 241 375 261.5 406.5 c 128,-1,20
 282 438 282 438 303 466 c 1,21,22
 248 477 248 477 210 500.5 c 128,-1,23
 172 524 172 524 149 554 c 1,24,25
 130 521 130 521 103 477.5 c 128,-1,26
 76 434 76 434 31 380 c 0,27,28
 6 351 6 351 -12 334 c 128,-1,29
 -30 317 -30 317 -41.5 308 c 128,-1,30
 -53 299 -53 299 -59 296 c 128,-1,31
 -65 293 -65 293 -66 293 c 0,32,33
 -76 293 -76 293 -76 300 c 0,34,35
 -76 302 -76 302 -64 317 c 128,-1,36
 -52 332 -52 332 -35 352 c 2,37,-1
 6 401 l 2,38,39
 31 431 31 431 49 455 c 128,-1,40
 67 479 67 479 80 499 c 128,-1,41
 93 519 93 519 102.5 537 c 128,-1,42
 112 555 112 555 122 574 c 1,43,-1
 128 587 l 1,44,45
 117 609 117 609 112 632.5 c 128,-1,46
 107 656 107 656 107 679 c 0,47,48
 107 701 107 701 114 721 c 128,-1,49
 121 741 121 741 134 756.5 c 128,-1,50
 147 772 147 772 165 781.5 c 128,-1,51
 183 791 183 791 205 791 c 0,52,53
 230 791 230 791 244.5 780 c 128,-1,54
 259 769 259 769 259 750 c 0,55,56
 259 727 259 727 248 712.5 c 128,-1,57
 237 698 237 698 223.5 685.5 c 128,-1,58
 210 673 210 673 199 658 c 128,-1,59
 188 643 188 643 188 619 c 0,60,61
 188 601 188 601 197 582 c 128,-1,62
 206 563 206 563 223 545 c 128,-1,63
 240 527 240 527 264.5 512.5 c 128,-1,64
 289 498 289 498 321 490 c 1,65,66
 408 599 408 599 493 649 c 128,-1,67
 578 699 578 699 647 699 c 0,68,69
 695 699 695 699 718 681.5 c 128,-1,70
 741 664 741 664 741 638 c 0,71,72
 741 614 741 614 718 586 c 128,-1,73
 695 558 695 558 655 532.5 c 128,-1,74
 615 507 615 507 561 487.5 c 128,-1,75
 507 468 507 468 445 461 c 1,76,77
 404 363 404 363 358.5 290 c 128,-1,78
 313 217 313 217 266 163.5 c 128,-1,79
 219 110 219 110 172.5 73 c 128,-1,80
 126 36 126 36 83 10 c 1,81,82
 125 5 125 5 152 -15.5 c 128,-1,83
 179 -36 179 -36 191 -76 c 1,84,85
 279 -23 279 -23 350.5 36 c 128,-1,86
 422 95 422 95 482 157 c 128,-1,87
 542 219 542 219 593.5 281.5 c 128,-1,88
 645 344 645 344 692 403 c 1,89,-1
 716 382 l 1,90,91
 664 317 664 317 609 251.5 c 128,-1,92
 554 186 554 186 491.5 122.5 c 128,-1,93
 429 59 429 59 356.5 0 c 128,-1,94
 284 -59 284 -59 198 -109 c 1,95,96
 199 -117 199 -117 199.5 -125.5 c 128,-1,97
 200 -134 200 -134 200 -144 c 0,98,99
 200 -195 200 -195 172.5 -252 c 128,-1,100
 145 -309 145 -309 98 -364.5 c 128,-1,101
 51 -420 51 -420 -10 -470.5 c 128,-1,102
 -71 -521 -71 -521 -137.5 -559.5 c 128,-1,103
 -204 -598 -204 -598 -272 -620.5 c 128,-1,104
 -340 -643 -340 -643 -400 -643 c 0,105,106
 -448 -643 -448 -643 -468.5 -621.5 c 128,-1,107
 -489 -600 -489 -600 -489 -565 c 0,108,109
 -489 -523 -489 -523 -447.5 -474.5 c 128,-1,110
 -406 -426 -406 -426 -330 -371 c 128,-1,111
 -254 -316 -254 -316 -147 -254.5 c 128,-1,112
 -40 -193 -40 -193 91 -126 c 1,113,114
 93 -116 93 -116 94 -106.5 c 128,-1,115
 95 -97 95 -97 95 -88 c 0,116,117
 95 -46 95 -46 81 -28 c 128,-1,118
 67 -10 67 -10 50 -10 c 1,119,-1
 10 -30 l 2,0,1
456 487 m 1,120,121
 506 495 506 495 550.5 512 c 128,-1,122
 595 529 595 529 628.5 550 c 128,-1,123
 662 571 662 571 681.5 595 c 128,-1,124
 701 619 701 619 701 640 c 0,125,126
 701 654 701 654 686.5 663 c 128,-1,127
 672 672 672 672 646 672 c 0,128,129
 604 672 604 672 552.5 629 c 128,-1,130
 501 586 501 586 456 487 c 1,120,121
82 -164 m 1,131,132
 -28 -223 -28 -223 -125.5 -279.5 c 128,-1,133
 -223 -336 -223 -336 -296 -388 c 128,-1,134
 -369 -440 -369 -440 -411 -486 c 128,-1,135
 -453 -532 -453 -532 -453 -571 c 0,136,137
 -453 -589 -453 -589 -441.5 -600.5 c 128,-1,138
 -430 -612 -430 -612 -400 -612 c 256,139,140
 -370 -612 -370 -612 -327 -593 c 128,-1,141
 -284 -574 -284 -574 -236 -541.5 c 128,-1,142
 -188 -509 -188 -509 -138.5 -465 c 128,-1,143
 -89 -421 -89 -421 -45.5 -371.5 c 128,-1,144
 -2 -322 -2 -322 31.5 -269 c 128,-1,145
 65 -216 65 -216 82 -164 c 1,131,132
EndSplineSet
EndChar

StartChar: A
Encoding: 65 65 31
Width: 1491
Flags: W
LayerCount: 2
Fore
SplineSet
10 -7 m 0,0,1
 -43 -7 -43 -7 -82.5 4.5 c 128,-1,2
 -122 16 -122 16 -148.5 35.5 c 128,-1,3
 -175 55 -175 55 -188 81.5 c 128,-1,4
 -201 108 -201 108 -201 139 c 0,5,6
 -201 161 -201 161 -192 177 c 128,-1,7
 -183 193 -183 193 -169 203.5 c 128,-1,8
 -155 214 -155 214 -138.5 218.5 c 128,-1,9
 -122 223 -122 223 -106 223 c 0,10,11
 -89 223 -89 223 -71.5 212 c 128,-1,12
 -54 201 -54 201 -54 175 c 0,13,14
 -54 154 -54 154 -71.5 139 c 128,-1,15
 -89 124 -89 124 -112 124 c 0,16,17
 -124 124 -124 124 -135 125 c 128,-1,18
 -146 126 -146 126 -156 131 c 1,19,-1
 -156 130 l 2,20,21
 -156 107 -156 107 -146.5 87.5 c 128,-1,22
 -137 68 -137 68 -116 54 c 128,-1,23
 -95 40 -95 40 -62 32 c 128,-1,24
 -29 24 -29 24 18 24 c 0,25,26
 66 24 66 24 115.5 40 c 128,-1,27
 165 56 165 56 216.5 85 c 128,-1,28
 268 114 268 114 322.5 154.5 c 128,-1,29
 377 195 377 195 436 244 c 1,30,31
 364 271 364 271 307.5 310.5 c 128,-1,32
 251 350 251 350 211 396.5 c 128,-1,33
 171 443 171 443 150 495 c 128,-1,34
 129 547 129 547 129 600 c 0,35,36
 129 651 129 651 148 697.5 c 128,-1,37
 167 744 167 744 204 779 c 128,-1,38
 241 814 241 814 295.5 835 c 128,-1,39
 350 856 350 856 421 856 c 0,40,41
 487 856 487 856 546 835.5 c 128,-1,42
 605 815 605 815 655 779 c 128,-1,43
 705 743 705 743 744.5 694 c 128,-1,44
 784 645 784 645 811 588 c 1,45,-1
 835 611 l 2,46,47
 958 730 958 730 1058 823.5 c 128,-1,48
 1158 917 1158 917 1239 988.5 c 128,-1,49
 1320 1060 1320 1060 1384 1113 c 128,-1,50
 1448 1166 1448 1166 1500 1205 c 128,-1,51
 1552 1244 1552 1244 1593.5 1270.5 c 128,-1,52
 1635 1297 1635 1297 1672 1317 c 0,53,54
 1744 1356 1744 1356 1791.5 1369.5 c 128,-1,55
 1839 1383 1839 1383 1865 1383 c 0,56,57
 1876 1383 1876 1383 1881 1381 c 128,-1,58
 1886 1379 1886 1379 1886 1371 c 0,59,60
 1886 1369 1886 1369 1881 1364.5 c 128,-1,61
 1876 1360 1876 1360 1864 1356 c 256,62,63
 1852 1352 1852 1352 1829.5 1329 c 128,-1,64
 1807 1306 1807 1306 1766.5 1255.5 c 128,-1,65
 1726 1205 1726 1205 1664.5 1124 c 128,-1,66
 1603 1043 1603 1043 1513 923.5 c 128,-1,67
 1423 804 1423 804 1301.5 642 c 128,-1,68
 1180 480 1180 480 1021 269 c 1,69,70
 1107 297 1107 297 1184 340 c 128,-1,71
 1261 383 1261 383 1325 438 c 128,-1,72
 1389 493 1389 493 1437 558.5 c 128,-1,73
 1485 624 1485 624 1514 698 c 0,74,75
 1519 711 1519 711 1523.5 720 c 128,-1,76
 1528 729 1528 729 1532 729 c 0,77,78
 1537 729 1537 729 1544 720 c 128,-1,79
 1551 711 1551 711 1551 698 c 0,80,81
 1544 607 1544 607 1494 530 c 128,-1,82
 1444 453 1444 453 1365 392.5 c 128,-1,83
 1286 332 1286 332 1187 288.5 c 128,-1,84
 1088 245 1088 245 984 221 c 1,85,-1
 813 -4 l 1,86,87
 782 -4 782 -4 750.5 -1.5 c 128,-1,88
 719 1 719 1 699 1 c 0,89,90
 674 1 674 1 655 -2 c 1,91,-1
 656 -2 l 1,92,93
 653 -3 653 -3 648.5 -3.5 c 128,-1,94
 644 -4 644 -4 636 -4 c 1,95,-1
 774 168 l 2,96,97
 780 174 780 174 784.5 180.5 c 128,-1,98
 789 187 789 187 793 194 c 1,99,100
 779 193 779 193 764.5 193 c 128,-1,101
 750 193 750 193 736 193 c 0,102,103
 664 193 664 193 599 203 c 128,-1,104
 534 213 534 213 477 230 c 1,105,106
 391 157 391 157 329 111 c 128,-1,107
 267 65 267 65 215 38.5 c 128,-1,108
 163 12 163 12 115 2.5 c 128,-1,109
 67 -7 67 -7 10 -7 c 0,0,1
860 271 m 1,110,111
 1057 512 1057 512 1208.5 692.5 c 128,-1,112
 1360 873 1360 873 1472 1001 c 128,-1,113
 1584 1129 1584 1129 1659.5 1210 c 128,-1,114
 1735 1291 1735 1291 1780 1333 c 1,115,116
 1715 1306 1715 1306 1635 1255.5 c 128,-1,117
 1555 1205 1555 1205 1449 1120 c 128,-1,118
 1343 1035 1343 1035 1205.5 910.5 c 128,-1,119
 1068 786 1068 786 889 611 c 1,120,-1
 827 551 l 1,121,122
 868 452 868 452 868 347 c 0,123,124
 868 327 868 327 866.5 308.5 c 128,-1,125
 865 290 865 290 860 271 c 1,110,111
465 268 m 1,126,127
 532 326 532 326 610 397.5 c 128,-1,128
 688 469 688 469 784 562 c 1,129,130
 759 619 759 619 721.5 667 c 128,-1,131
 684 715 684 715 637.5 749 c 128,-1,132
 591 783 591 783 536.5 802 c 128,-1,133
 482 821 482 821 423 821 c 0,134,135
 376 821 376 821 335 802.5 c 128,-1,136
 294 784 294 784 263.5 752.5 c 128,-1,137
 233 721 233 721 215 680 c 128,-1,138
 197 639 197 639 197 594 c 0,139,140
 197 543 197 543 213.5 495 c 128,-1,141
 230 447 230 447 263.5 404.5 c 128,-1,142
 297 362 297 362 347 327 c 128,-1,143
 397 292 397 292 465 268 c 1,126,127
506 255 m 1,144,145
 557 241 557 241 615 233.5 c 128,-1,146
 673 226 673 226 742 226 c 0,147,148
 759 226 759 226 775.5 226.5 c 128,-1,149
 792 227 792 227 809 228 c 1,150,151
 820 258 820 258 825 288.5 c 128,-1,152
 830 319 830 319 830 340 c 0,153,154
 830 437 830 437 799 524 c 1,155,156
 626 358 626 358 506 255 c 1,144,145
EndSplineSet
EndChar

StartChar: B
Encoding: 66 66 32
Width: 1571
Flags: W
LayerCount: 2
Fore
SplineSet
29 -5 m 0,0,1
 -15 -5 -15 -5 -53 6.5 c 128,-1,2
 -91 18 -91 18 -120 37.5 c 128,-1,3
 -149 57 -149 57 -165.5 83.5 c 128,-1,4
 -182 110 -182 110 -182 140 c 0,5,6
 -182 163 -182 163 -173 179 c 128,-1,7
 -164 195 -164 195 -150 205.5 c 128,-1,8
 -136 216 -136 216 -119.5 220.5 c 128,-1,9
 -103 225 -103 225 -87 225 c 0,10,11
 -70 225 -70 225 -52.5 214 c 128,-1,12
 -35 203 -35 203 -35 177 c 0,13,14
 -35 156 -35 156 -52.5 141 c 128,-1,15
 -70 126 -70 126 -93 126 c 0,16,17
 -104 126 -104 126 -115.5 127.5 c 128,-1,18
 -127 129 -127 129 -137 134 c 1,19,-1
 -137 132 l 2,20,21
 -137 84 -137 84 -90.5 55.5 c 128,-1,22
 -44 27 -44 27 37 27 c 0,23,24
 76 27 76 27 118 40.5 c 128,-1,25
 160 54 160 54 210 85.5 c 128,-1,26
 260 117 260 117 322 169.5 c 128,-1,27
 384 222 384 222 462.5 299.5 c 128,-1,28
 541 377 541 377 640 482.5 c 128,-1,29
 739 588 739 588 865 727 c 1,30,31
 1050 935 1050 935 1217 1070 c 128,-1,32
 1384 1205 1384 1205 1518 1278 c 1,33,34
 1464 1332 1464 1332 1369.5 1361 c 128,-1,35
 1275 1390 1275 1390 1148 1390 c 0,36,37
 1116 1390 1116 1390 1078.5 1386 c 128,-1,38
 1041 1382 1041 1382 1002 1374.5 c 128,-1,39
 963 1367 963 1367 925 1357.5 c 128,-1,40
 887 1348 887 1348 854 1337 c 1,41,42
 777 1307 777 1307 700 1262.5 c 128,-1,43
 623 1218 623 1218 552.5 1165.5 c 128,-1,44
 482 1113 482 1113 421.5 1054.5 c 128,-1,45
 361 996 361 996 316.5 938 c 128,-1,46
 272 880 272 880 246.5 825.5 c 128,-1,47
 221 771 221 771 221 725 c 0,48,49
 221 696 221 696 231.5 675.5 c 128,-1,50
 242 655 242 655 260 641.5 c 128,-1,51
 278 628 278 628 302 621.5 c 128,-1,52
 326 615 326 615 353 615 c 0,53,54
 408 615 408 615 473 637.5 c 128,-1,55
 538 660 538 660 604 701 c 128,-1,56
 670 742 670 742 733 799 c 128,-1,57
 796 856 796 856 847.5 925 c 128,-1,58
 899 994 899 994 934.5 1073.5 c 128,-1,59
 970 1153 970 1153 981 1238 c 1,60,61
 986 1260 986 1260 988 1266 c 128,-1,62
 990 1272 990 1272 998 1272 c 0,63,64
 1012 1272 1012 1272 1012 1248 c 0,65,66
 1012 1153 1012 1153 984 1066.5 c 128,-1,67
 956 980 956 980 907.5 906.5 c 128,-1,68
 859 833 859 833 793.5 773.5 c 128,-1,69
 728 714 728 714 653.5 672.5 c 128,-1,70
 579 631 579 631 499.5 608.5 c 128,-1,71
 420 586 420 586 343 586 c 0,72,73
 313 586 313 586 284.5 594.5 c 128,-1,74
 256 603 256 603 234 620 c 128,-1,75
 212 637 212 637 198.5 664 c 128,-1,76
 185 691 185 691 185 728 c 0,77,78
 185 808 185 808 223.5 890 c 128,-1,79
 262 972 262 972 329.5 1049 c 128,-1,80
 397 1126 397 1126 489.5 1193 c 128,-1,81
 582 1260 582 1260 690.5 1310 c 128,-1,82
 799 1360 799 1360 918 1389 c 128,-1,83
 1037 1418 1037 1418 1159 1418 c 0,84,85
 1292 1418 1292 1418 1396.5 1389.5 c 128,-1,86
 1501 1361 1501 1361 1571 1306 c 1,87,88
 1649 1344 1649 1344 1709.5 1361 c 128,-1,89
 1770 1378 1770 1378 1813 1378 c 0,90,91
 1849 1378 1849 1378 1849 1365 c 0,92,93
 1849 1361 1849 1361 1830 1356 c 128,-1,94
 1811 1351 1811 1351 1777.5 1342 c 128,-1,95
 1744 1333 1744 1333 1699 1317.5 c 128,-1,96
 1654 1302 1654 1302 1602 1278 c 1,97,98
 1644 1236 1644 1236 1666.5 1183 c 128,-1,99
 1689 1130 1689 1130 1689 1064 c 256,100,101
 1689 998 1689 998 1657.5 933.5 c 128,-1,102
 1626 869 1626 869 1572.5 811.5 c 128,-1,103
 1519 754 1519 754 1449 706.5 c 128,-1,104
 1379 659 1379 659 1302 627 c 1,105,106
 1339 593 1339 593 1358.5 543.5 c 128,-1,107
 1378 494 1378 494 1378 431 c 0,108,109
 1378 375 1378 375 1356.5 320.5 c 128,-1,110
 1335 266 1335 266 1296.5 218 c 128,-1,111
 1258 170 1258 170 1205 129 c 128,-1,112
 1152 88 1152 88 1090 58 c 128,-1,113
 1028 28 1028 28 959.5 11.5 c 128,-1,114
 891 -5 891 -5 820 -5 c 0,115,116
 772 -5 772 -5 739.5 5.5 c 128,-1,117
 707 16 707 16 688 32.5 c 128,-1,118
 669 49 669 49 661 69 c 128,-1,119
 653 89 653 89 653 108 c 0,120,121
 653 142 653 142 673.5 181.5 c 128,-1,122
 694 221 694 221 730.5 260.5 c 128,-1,123
 767 300 767 300 816 336.5 c 128,-1,124
 865 373 865 373 922 401 c 128,-1,125
 979 429 979 429 1041 446 c 128,-1,126
 1103 463 1103 463 1165 463 c 0,127,128
 1176 463 1176 463 1182.5 458.5 c 128,-1,129
 1189 454 1189 454 1189 449 c 0,130,131
 1189 440 1189 440 1179.5 436.5 c 128,-1,132
 1170 433 1170 433 1156 433 c 0,133,134
 1105 433 1105 433 1050.5 418 c 128,-1,135
 996 403 996 403 944.5 378 c 128,-1,136
 893 353 893 353 847 320 c 128,-1,137
 801 287 801 287 766.5 250.5 c 128,-1,138
 732 214 732 214 712 176.5 c 128,-1,139
 692 139 692 139 692 106 c 0,140,141
 692 92 692 92 698 78 c 128,-1,142
 704 64 704 64 718.5 53 c 128,-1,143
 733 42 733 42 758.5 35.5 c 128,-1,144
 784 29 784 29 823 29 c 0,145,146
 869 29 869 29 920 47.5 c 128,-1,147
 971 66 971 66 1020.5 99.5 c 128,-1,148
 1070 133 1070 133 1114.5 180 c 128,-1,149
 1159 227 1159 227 1192.5 285 c 128,-1,150
 1226 343 1226 343 1246 409.5 c 128,-1,151
 1266 476 1266 476 1266 549 c 0,152,153
 1266 584 1266 584 1253 609 c 1,154,155
 1154 575 1154 575 1061 575 c 0,156,157
 1013 575 1013 575 989.5 591 c 128,-1,158
 966 607 966 607 966 623 c 0,159,160
 966 635 966 635 979.5 646.5 c 128,-1,161
 993 658 993 658 1015.5 667.5 c 128,-1,162
 1038 677 1038 677 1068 682.5 c 128,-1,163
 1098 688 1098 688 1130 688 c 0,164,165
 1199 688 1199 688 1250 663 c 1,166,167
 1311 693 1311 693 1370.5 739 c 128,-1,168
 1430 785 1430 785 1476.5 845 c 128,-1,169
 1523 905 1523 905 1552 977 c 128,-1,170
 1581 1049 1581 1049 1581 1132 c 0,171,172
 1581 1198 1581 1198 1544 1248 c 1,173,174
 1478 1213 1478 1213 1406 1155.5 c 128,-1,175
 1334 1098 1334 1098 1257.5 1020 c 128,-1,176
 1181 942 1181 942 1100.5 846 c 128,-1,177
 1020 750 1020 750 936 639 c 0,178,179
 751 394 751 394 577.5 244 c 128,-1,180
 404 94 404 94 246 28 c 1,181,182
 191 7 191 7 138.5 1 c 128,-1,183
 86 -5 86 -5 29 -5 c 0,0,1
1022 631 m 0,184,185
 1022 623 1022 623 1033.5 617.5 c 128,-1,186
 1045 612 1045 612 1062 612 c 0,187,188
 1131 612 1131 612 1212 646 c 1,189,190
 1196 654 1196 654 1175.5 657 c 128,-1,191
 1155 660 1155 660 1131 660 c 0,192,193
 1085 660 1085 660 1053.5 651 c 128,-1,194
 1022 642 1022 642 1022 631 c 0,184,185
EndSplineSet
EndChar

StartChar: C
Encoding: 67 67 33
Width: 1325
Flags: W
LayerCount: 2
Fore
SplineSet
154 246 m 0,0,1
 154 367 154 367 209.5 493 c 128,-1,2
 265 619 265 619 362 744 c 1,3,4
 306 757 306 757 264 782 c 128,-1,5
 222 807 222 807 194 840.5 c 128,-1,6
 166 874 166 874 152.5 915 c 128,-1,7
 139 956 139 956 139 1002 c 0,8,9
 139 1051 139 1051 164.5 1103 c 128,-1,10
 190 1155 190 1155 236 1204 c 128,-1,11
 282 1253 282 1253 346 1296.5 c 128,-1,12
 410 1340 410 1340 486 1373 c 128,-1,13
 562 1406 562 1406 647.5 1425 c 128,-1,14
 733 1444 733 1444 823 1444 c 0,15,16
 858 1444 858 1444 882 1439 c 128,-1,17
 906 1434 906 1434 906 1425 c 0,18,19
 906 1414 906 1414 890 1414 c 0,20,21
 878 1414 878 1414 860.5 1415.5 c 128,-1,22
 843 1417 843 1417 819 1417 c 0,23,24
 754 1417 754 1417 682 1400 c 128,-1,25
 610 1383 610 1383 539.5 1352.5 c 128,-1,26
 469 1322 469 1322 405.5 1279.5 c 128,-1,27
 342 1237 342 1237 293.5 1186.5 c 128,-1,28
 245 1136 245 1136 216.5 1079 c 128,-1,29
 188 1022 188 1022 188 962 c 0,30,31
 188 931 188 931 200.5 901.5 c 128,-1,32
 213 872 213 872 238 846.5 c 128,-1,33
 263 821 263 821 299 801.5 c 128,-1,34
 335 782 335 782 383 771 c 1,35,36
 450 853 450 853 531 930.5 c 128,-1,37
 612 1008 612 1008 701 1075.5 c 128,-1,38
 790 1143 790 1143 884.5 1199 c 128,-1,39
 979 1255 979 1255 1073.5 1295 c 128,-1,40
 1168 1335 1168 1335 1260 1357 c 128,-1,41
 1352 1379 1352 1379 1436 1379 c 0,42,43
 1481 1379 1481 1379 1508.5 1362.5 c 128,-1,44
 1536 1346 1536 1346 1536 1304 c 0,45,46
 1536 1248 1536 1248 1491 1185 c 128,-1,47
 1446 1122 1446 1122 1369 1060.5 c 128,-1,48
 1292 999 1292 999 1191 941.5 c 128,-1,49
 1090 884 1090 884 978 839.5 c 128,-1,50
 866 795 866 795 750 766 c 128,-1,51
 634 737 634 737 528 732 c 1,52,53
 462 660 462 660 407 588.5 c 128,-1,54
 352 517 352 517 311.5 449.5 c 128,-1,55
 271 382 271 382 248.5 321 c 128,-1,56
 226 260 226 260 226 209 c 0,57,58
 226 134 226 134 262.5 90.5 c 128,-1,59
 299 47 299 47 363 33 c 1,60,61
 363 123 363 123 386.5 209 c 128,-1,62
 410 295 410 295 451 372 c 128,-1,63
 492 449 492 449 548 513 c 128,-1,64
 604 577 604 577 669 624 c 128,-1,65
 734 671 734 671 805.5 697 c 128,-1,66
 877 723 877 723 949 723 c 0,67,68
 1034 723 1034 723 1078 684.5 c 128,-1,69
 1122 646 1122 646 1122 582 c 0,70,71
 1122 526 1122 526 1097 460.5 c 128,-1,72
 1072 395 1072 395 1026.5 329.5 c 128,-1,73
 981 264 981 264 916.5 203.5 c 128,-1,74
 852 143 852 143 773 97 c 128,-1,75
 694 51 694 51 602.5 23 c 128,-1,76
 511 -5 511 -5 412 -5 c 2,77,-1
 398 -5 l 1,78,79
 399 -31 399 -31 402.5 -63 c 128,-1,80
 406 -95 406 -95 413 -127 c 128,-1,81
 420 -159 420 -159 430 -188.5 c 128,-1,82
 440 -218 440 -218 454 -238 c 0,83,84
 460 -246 460 -246 460 -252 c 0,85,86
 460 -256 460 -256 456 -258.5 c 128,-1,87
 452 -261 452 -261 448 -261 c 0,88,89
 439 -261 439 -261 425.5 -241.5 c 128,-1,90
 412 -222 412 -222 399 -187.5 c 128,-1,91
 386 -153 386 -153 376 -105 c 128,-1,92
 366 -57 366 -57 363 -1 c 1,93,94
 318 5 318 5 280 24 c 128,-1,95
 242 43 242 43 214 74 c 128,-1,96
 186 105 186 105 170 148 c 128,-1,97
 154 191 154 191 154 246 c 0,0,1
558 764 m 1,98,99
 625 772 625 772 702 793 c 128,-1,100
 779 814 779 814 858.5 843.5 c 128,-1,101
 938 873 938 873 1016.5 910 c 128,-1,102
 1095 947 1095 947 1167.5 988 c 128,-1,103
 1240 1029 1240 1029 1302 1071.5 c 128,-1,104
 1364 1114 1364 1114 1409.5 1155 c 128,-1,105
 1455 1196 1455 1196 1481 1233 c 128,-1,106
 1507 1270 1507 1270 1507 1300 c 0,107,108
 1507 1327 1507 1327 1487 1338.5 c 128,-1,109
 1467 1350 1467 1350 1434 1350 c 0,110,111
 1386 1350 1386 1350 1322 1327.5 c 128,-1,112
 1258 1305 1258 1305 1184.5 1265.5 c 128,-1,113
 1111 1226 1111 1226 1030.5 1171 c 128,-1,114
 950 1116 950 1116 868.5 1051 c 128,-1,115
 787 986 787 986 708 913 c 128,-1,116
 629 840 629 840 558 764 c 1,98,99
398 28 m 1,117,118
 404 27 404 27 410 27 c 128,-1,119
 416 27 416 27 423 27 c 0,120,121
 489 27 489 27 559.5 58 c 128,-1,122
 630 89 630 89 697 139 c 128,-1,123
 764 189 764 189 823.5 253 c 128,-1,124
 883 317 883 317 928 382.5 c 128,-1,125
 973 448 973 448 999 509.5 c 128,-1,126
 1025 571 1025 571 1025 617 c 0,127,128
 1025 656 1025 656 1004.5 673 c 128,-1,129
 984 690 984 690 939 690 c 0,130,131
 884 690 884 690 822.5 666.5 c 128,-1,132
 761 643 761 643 700.5 600 c 128,-1,133
 640 557 640 557 585.5 496.5 c 128,-1,134
 531 436 531 436 489 362.5 c 128,-1,135
 447 289 447 289 422.5 204.5 c 128,-1,136
 398 120 398 120 398 28 c 1,117,118
EndSplineSet
EndChar

StartChar: D
Encoding: 68 68 34
Width: 1702
Flags: W
LayerCount: 2
Fore
SplineSet
-37 67 m 256,0,1
 -37 82 -37 82 -23.5 97 c 128,-1,2
 -10 112 -10 112 16 125 c 128,-1,3
 42 138 42 138 80.5 146 c 128,-1,4
 119 154 119 154 169 154 c 0,5,6
 194 154 194 154 220.5 151.5 c 128,-1,7
 247 149 247 149 278.5 142.5 c 128,-1,8
 310 136 310 136 349 126 c 128,-1,9
 388 116 388 116 438 101 c 1,10,11
 494 131 494 131 554.5 176.5 c 128,-1,12
 615 222 615 222 683 286 c 128,-1,13
 751 350 751 350 828 434 c 128,-1,14
 905 518 905 518 995 625 c 1,15,-1
 1048 690 l 2,16,17
 1093 745 1093 745 1140 802 c 128,-1,18
 1187 859 1187 859 1240.5 915.5 c 128,-1,19
 1294 972 1294 972 1356 1027 c 128,-1,20
 1418 1082 1418 1082 1493 1133 c 1,21,22
 1459 1185 1459 1185 1411.5 1223 c 128,-1,23
 1364 1261 1364 1261 1306 1285.5 c 128,-1,24
 1248 1310 1248 1310 1180 1321.5 c 128,-1,25
 1112 1333 1112 1333 1036 1333 c 0,26,27
 939 1333 939 1333 845.5 1305 c 128,-1,28
 752 1277 752 1277 669 1231 c 128,-1,29
 586 1185 586 1185 516.5 1124 c 128,-1,30
 447 1063 447 1063 396.5 998 c 128,-1,31
 346 933 346 933 317.5 867 c 128,-1,32
 289 801 289 801 289 744 c 0,33,34
 289 675 289 675 337 632.5 c 128,-1,35
 385 590 385 590 473 590 c 0,36,37
 524 590 524 590 588.5 613.5 c 128,-1,38
 653 637 653 637 721 677 c 128,-1,39
 789 717 789 717 854.5 772 c 128,-1,40
 920 827 920 827 973 889 c 128,-1,41
 1026 951 1026 951 1060 1018.5 c 128,-1,42
 1094 1086 1094 1086 1099 1152 c 0,43,44
 1101 1167 1101 1167 1104.5 1172.5 c 128,-1,45
 1108 1178 1108 1178 1113 1178 c 0,46,47
 1119 1178 1119 1178 1123 1174 c 128,-1,48
 1127 1170 1127 1170 1127 1155 c 0,49,50
 1127 1084 1127 1084 1102 1012 c 128,-1,51
 1077 940 1077 940 1032 873 c 128,-1,52
 987 806 987 806 925 748.5 c 128,-1,53
 863 691 863 691 790 648 c 128,-1,54
 717 605 717 605 635.5 580.5 c 128,-1,55
 554 556 554 556 469 556 c 0,56,57
 423 556 423 556 379 571 c 128,-1,58
 335 586 335 586 301 614 c 128,-1,59
 267 642 267 642 246 680.5 c 128,-1,60
 225 719 225 719 225 766 c 0,61,62
 225 840 225 840 253.5 913 c 128,-1,63
 282 986 282 986 334.5 1052 c 128,-1,64
 387 1118 387 1118 460.5 1175 c 128,-1,65
 534 1232 534 1232 623.5 1274 c 128,-1,66
 713 1316 713 1316 815.5 1339.5 c 128,-1,67
 918 1363 918 1363 1029 1363 c 0,68,69
 1203 1363 1203 1363 1330 1310.5 c 128,-1,70
 1457 1258 1457 1258 1535 1159 c 1,71,72
 1584 1189 1584 1189 1635.5 1215.5 c 128,-1,73
 1687 1242 1687 1242 1738.5 1262.5 c 128,-1,74
 1790 1283 1790 1283 1839.5 1295.5 c 128,-1,75
 1889 1308 1889 1308 1934 1310 c 0,76,77
 1952 1310 1952 1310 1952 1297 c 0,78,79
 1952 1289 1952 1289 1946.5 1285.5 c 128,-1,80
 1941 1282 1941 1282 1916 1279 c 0,81,82
 1828 1267 1828 1267 1741.5 1223.5 c 128,-1,83
 1655 1180 1655 1180 1570 1108 c 1,84,85
 1605 1048 1605 1048 1623.5 977.5 c 128,-1,86
 1642 907 1642 907 1642 825 c 0,87,88
 1642 704 1642 704 1609.5 595.5 c 128,-1,89
 1577 487 1577 487 1519.5 395 c 128,-1,90
 1462 303 1462 303 1383 229 c 128,-1,91
 1304 155 1304 155 1210 103 c 128,-1,92
 1116 51 1116 51 1010.5 23 c 128,-1,93
 905 -5 905 -5 796 -5 c 0,94,95
 727 -5 727 -5 653.5 8.5 c 128,-1,96
 580 22 580 22 495 45 c 1,97,98
 417 19 417 19 330 5 c 128,-1,99
 243 -9 243 -9 143 -9 c 0,100,101
 95 -9 95 -9 60.5 -2.5 c 128,-1,102
 26 4 26 4 4.5 14.5 c 128,-1,103
 -17 25 -17 25 -27 38.5 c 128,-1,104
 -37 52 -37 52 -37 67 c 256,0,1
550 66 m 1,105,106
 600 52 600 52 659.5 41.5 c 128,-1,107
 719 31 719 31 802 31 c 0,108,109
 898 31 898 31 992.5 58 c 128,-1,110
 1087 85 1087 85 1172.5 134.5 c 128,-1,111
 1258 184 1258 184 1331.5 254.5 c 128,-1,112
 1405 325 1405 325 1458.5 413 c 128,-1,113
 1512 501 1512 501 1542.5 604 c 128,-1,114
 1573 707 1573 707 1573 821 c 0,115,116
 1573 968 1573 968 1527 1070 c 1,117,118
 1414 963 1414 963 1314 818 c 0,119,120
 1229 696 1229 696 1145 582 c 128,-1,121
 1061 468 1061 468 970 370 c 128,-1,122
 879 272 879 272 776 194 c 128,-1,123
 673 116 673 116 550 66 c 1,105,106
-3 67 m 0,124,125
 -3 47 -3 47 36 38 c 128,-1,126
 75 29 75 29 160 29 c 0,127,128
 217 29 217 29 272.5 39.5 c 128,-1,129
 328 50 328 50 386 75 c 1,130,131
 328 89 328 89 272.5 97.5 c 128,-1,132
 217 106 217 106 162 106 c 0,133,134
 78 106 78 106 37.5 93.5 c 128,-1,135
 -3 81 -3 81 -3 67 c 0,124,125
EndSplineSet
EndChar

StartChar: E
Encoding: 69 69 35
Width: 1108
Flags: W
LayerCount: 2
Fore
SplineSet
56 226 m 0,0,1
 57 148 57 148 103.5 96.5 c 128,-1,2
 150 45 150 45 243 29 c 1,3,4
 248 88 248 88 267 146 c 128,-1,5
 286 204 286 204 316.5 256 c 128,-1,6
 347 308 347 308 387 352.5 c 128,-1,7
 427 397 427 397 473.5 429.5 c 128,-1,8
 520 462 520 462 571.5 480.5 c 128,-1,9
 623 499 623 499 677 499 c 0,10,11
 708 499 708 499 736.5 488 c 128,-1,12
 765 477 765 477 787 458 c 128,-1,13
 809 439 809 439 821.5 414 c 128,-1,14
 834 389 834 389 834 361 c 0,15,16
 834 283 834 283 793.5 216.5 c 128,-1,17
 753 150 753 150 682 100.5 c 128,-1,18
 611 51 611 51 515 23 c 128,-1,19
 419 -5 419 -5 309 -5 c 0,20,21
 300 -5 300 -5 291.5 -4.5 c 128,-1,22
 283 -4 283 -4 275 -4 c 1,23,-1
 275 -30 l 2,24,25
 275 -57 275 -57 279 -90.5 c 128,-1,26
 283 -124 283 -124 290 -156 c 128,-1,27
 297 -188 297 -188 307.5 -214.5 c 128,-1,28
 318 -241 318 -241 332 -256 c 0,29,30
 341 -265 341 -265 341 -271 c 0,31,32
 341 -283 341 -283 326 -283 c 256,33,34
 311 -283 311 -283 298.5 -268.5 c 128,-1,35
 286 -254 286 -254 276.5 -230.5 c 128,-1,36
 267 -207 267 -207 260 -177 c 128,-1,37
 253 -147 253 -147 248.5 -116.5 c 128,-1,38
 244 -86 244 -86 242 -58 c 128,-1,39
 240 -30 240 -30 240 -10 c 0,40,41
 240 -8 240 -8 240.5 -5.5 c 128,-1,42
 241 -3 241 -3 241 -1 c 1,43,44
 173 6 173 6 119 28.5 c 128,-1,45
 65 51 65 51 27 85 c 128,-1,46
 -11 119 -11 119 -32 163 c 128,-1,47
 -53 207 -53 207 -54 258 c 1,48,49
 -54 354 -54 354 -9.5 441.5 c 128,-1,50
 35 529 35 529 114.5 596 c 128,-1,51
 194 663 194 663 302.5 702.5 c 128,-1,52
 411 742 411 742 540 742 c 1,53,54
 527 761 527 761 518.5 780.5 c 128,-1,55
 510 800 510 800 505 820 c 1,56,57
 350 854 350 854 253.5 925 c 128,-1,58
 157 996 157 996 114 1092 c 0,59,60
 111 1099 111 1099 110 1107 c 128,-1,61
 109 1115 109 1115 109 1118 c 0,62,63
 109 1133 109 1133 120 1133 c 1,64,65
 125 1132 125 1132 131.5 1126.5 c 128,-1,66
 138 1121 138 1121 144 1108 c 0,67,68
 189 1008 189 1008 276.5 945 c 128,-1,69
 364 882 364 882 500 853 c 1,70,71
 499 858 499 858 499 862 c 128,-1,72
 499 866 499 866 499 871 c 0,73,74
 499 948 499 948 524.5 1016 c 128,-1,75
 550 1084 550 1084 593.5 1140 c 128,-1,76
 637 1196 637 1196 695.5 1240.5 c 128,-1,77
 754 1285 754 1285 821 1316 c 128,-1,78
 888 1347 888 1347 959.5 1363 c 128,-1,79
 1031 1379 1031 1379 1101 1379 c 0,80,81
 1263 1379 1263 1379 1351.5 1322.5 c 128,-1,82
 1440 1266 1440 1266 1440 1163 c 0,83,84
 1440 1112 1440 1112 1415 1065 c 128,-1,85
 1390 1018 1390 1018 1344 977 c 128,-1,86
 1298 936 1298 936 1235 902.5 c 128,-1,87
 1172 869 1172 869 1095 845.5 c 128,-1,88
 1018 822 1018 822 931 809 c 128,-1,89
 844 796 844 796 751 796 c 0,90,91
 668 796 668 796 595 805 c 1,92,93
 604 769 604 769 625 737 c 1,94,95
 722 726 722 726 772.5 697 c 128,-1,96
 823 668 823 668 823 637 c 0,97,98
 823 603 823 603 768 603 c 0,99,100
 723 603 723 603 669.5 629 c 128,-1,101
 616 655 616 655 573 701 c 1,102,103
 509 693 509 693 445.5 668.5 c 128,-1,104
 382 644 382 644 324.5 608 c 128,-1,105
 267 572 267 572 218 527 c 128,-1,106
 169 482 169 482 133 432 c 128,-1,107
 97 382 97 382 76.5 329 c 128,-1,108
 56 276 56 276 56 226 c 0,0,1
590 838 m 1,109,110
 624 834 624 834 659.5 832.5 c 128,-1,111
 695 831 695 831 733 831 c 0,112,113
 806 831 806 831 884 842 c 128,-1,114
 962 853 962 853 1036 874.5 c 128,-1,115
 1110 896 1110 896 1175.5 927 c 128,-1,116
 1241 958 1241 958 1290 998.5 c 128,-1,117
 1339 1039 1339 1039 1368 1087.5 c 128,-1,118
 1397 1136 1397 1136 1397 1192 c 0,119,120
 1397 1225 1397 1225 1379 1253.5 c 128,-1,121
 1361 1282 1361 1282 1327 1303 c 128,-1,122
 1293 1324 1293 1324 1245 1336.5 c 128,-1,123
 1197 1349 1197 1349 1136 1349 c 0,124,125
 1068 1349 1068 1349 1001.5 1325.5 c 128,-1,126
 935 1302 935 1302 874.5 1263 c 128,-1,127
 814 1224 814 1224 762 1173 c 128,-1,128
 710 1122 710 1122 671.5 1066.5 c 128,-1,129
 633 1011 633 1011 611.5 954.5 c 128,-1,130
 590 898 590 898 590 849 c 2,131,-1
 590 838 l 1,109,110
652 703 m 1,132,133
 681 671 681 671 716 651 c 128,-1,134
 751 631 751 631 783 631 c 0,135,136
 795 631 795 631 795 641 c 0,137,138
 795 648 795 648 784 657.5 c 128,-1,139
 773 667 773 667 753.5 676 c 128,-1,140
 734 685 734 685 708 692.5 c 128,-1,141
 682 700 682 700 652 703 c 1,132,133
278 25 m 1,142,143
 287 24 287 24 296 24 c 128,-1,144
 305 24 305 24 315 24 c 0,145,146
 367 24 367 24 421.5 41.5 c 128,-1,147
 476 59 476 59 528 88 c 128,-1,148
 580 117 580 117 626.5 154.5 c 128,-1,149
 673 192 673 192 707.5 232.5 c 128,-1,150
 742 273 742 273 762.5 313.5 c 128,-1,151
 783 354 783 354 783 388 c 0,152,153
 783 426 783 426 754 447.5 c 128,-1,154
 725 469 725 469 680 469 c 0,155,156
 619 469 619 469 552.5 437 c 128,-1,157
 486 405 486 405 428 347 c 128,-1,158
 370 289 370 289 329 207 c 128,-1,159
 288 125 288 125 278 25 c 1,142,143
EndSplineSet
EndChar

StartChar: F
Encoding: 70 70 36
Width: 1270
Flags: W
LayerCount: 2
Fore
SplineSet
526 797 m 0,0,1
 450 797 450 797 405 832.5 c 128,-1,2
 360 868 360 868 360 934 c 0,3,4
 360 997 360 997 397 1060.5 c 128,-1,5
 434 1124 434 1124 502.5 1181 c 128,-1,6
 571 1238 571 1238 668 1284.5 c 128,-1,7
 765 1331 765 1331 885 1360 c 0,8,9
 972 1380 972 1380 1061 1386 c 128,-1,10
 1150 1392 1150 1392 1241 1392 c 0,11,12
 1294 1392 1294 1392 1348 1386.5 c 128,-1,13
 1402 1381 1402 1381 1455.5 1375 c 128,-1,14
 1509 1369 1509 1369 1562.5 1363.5 c 128,-1,15
 1616 1358 1616 1358 1667 1358 c 0,16,17
 1736 1358 1736 1358 1792 1371 c 128,-1,18
 1848 1384 1848 1384 1892 1407 c 128,-1,19
 1936 1430 1936 1430 1968.5 1462 c 128,-1,20
 2001 1494 2001 1494 2024 1532 c 0,21,22
 2032 1545 2032 1545 2038.5 1547.5 c 128,-1,23
 2045 1550 2045 1550 2048 1550 c 0,24,25
 2054 1550 2054 1550 2057 1546.5 c 128,-1,26
 2060 1543 2060 1543 2060 1540 c 0,27,28
 2060 1535 2060 1535 2059 1530.5 c 128,-1,29
 2058 1526 2058 1526 2050 1518 c 1,30,-1
 2051 1518 l 1,31,32
 1979 1400 1979 1400 1854.5 1332.5 c 128,-1,33
 1730 1265 1730 1265 1543 1265 c 0,34,35
 1475 1265 1475 1265 1406.5 1272 c 128,-1,36
 1338 1279 1338 1279 1270 1288 c 128,-1,37
 1202 1297 1202 1297 1134 1304 c 128,-1,38
 1066 1311 1066 1311 999 1311 c 0,39,40
 925 1311 925 1311 851 1296 c 128,-1,41
 777 1281 777 1281 709.5 1254.5 c 128,-1,42
 642 1228 642 1228 584.5 1192.5 c 128,-1,43
 527 1157 527 1157 484.5 1116 c 128,-1,44
 442 1075 442 1075 418 1031 c 128,-1,45
 394 987 394 987 394 944 c 0,46,47
 394 896 394 896 417.5 868 c 128,-1,48
 441 840 441 840 495 840 c 0,49,50
 540 840 540 840 587 856.5 c 128,-1,51
 634 873 634 873 679.5 900.5 c 128,-1,52
 725 928 725 928 766.5 964 c 128,-1,53
 808 1000 808 1000 841 1038.5 c 128,-1,54
 874 1077 874 1077 896 1116 c 128,-1,55
 918 1155 918 1155 925 1188 c 1,56,57
 925 1199 925 1199 928.5 1206 c 128,-1,58
 932 1213 932 1213 937 1213 c 0,59,60
 951 1213 951 1213 951 1188 c 0,61,62
 951 1139 951 1139 933 1091 c 128,-1,63
 915 1043 915 1043 884 999.5 c 128,-1,64
 853 956 853 956 811.5 919 c 128,-1,65
 770 882 770 882 722.5 855 c 128,-1,66
 675 828 675 828 624.5 812.5 c 128,-1,67
 574 797 574 797 526 797 c 0,0,1
87 -4 m 0,68,69
 43 -4 43 -4 2 7.5 c 128,-1,70
 -39 19 -39 19 -71.5 39 c 128,-1,71
 -104 59 -104 59 -123.5 85.5 c 128,-1,72
 -143 112 -143 112 -143 142 c 0,73,74
 -143 164 -143 164 -134 180.5 c 128,-1,75
 -125 197 -125 197 -111.5 207 c 128,-1,76
 -98 217 -98 217 -81.5 222 c 128,-1,77
 -65 227 -65 227 -49 227 c 0,78,79
 -32 227 -32 227 -14 216 c 128,-1,80
 4 205 4 205 4 179 c 0,81,82
 4 158 4 158 -14 142.5 c 128,-1,83
 -32 127 -32 127 -55 127 c 0,84,85
 -66 127 -66 127 -77 128.5 c 128,-1,86
 -88 130 -88 130 -98 135 c 1,87,-1
 -98 134 l 2,88,89
 -98 111 -98 111 -83 92 c 128,-1,90
 -68 73 -68 73 -41.5 59 c 128,-1,91
 -15 45 -15 45 20 37 c 128,-1,92
 55 29 55 29 95 29 c 0,93,94
 160 29 160 29 232 53 c 128,-1,95
 304 77 304 77 386.5 142 c 128,-1,96
 469 207 469 207 564 322.5 c 128,-1,97
 659 438 659 438 769 620 c 1,98,99
 658 594 658 594 569 560.5 c 128,-1,100
 480 527 480 527 413.5 490.5 c 128,-1,101
 347 454 347 454 302 415.5 c 128,-1,102
 257 377 257 377 235 341 c 0,103,104
 228 330 228 330 223.5 325 c 128,-1,105
 219 320 219 320 213 320 c 0,106,107
 208 320 208 320 205.5 321.5 c 128,-1,108
 203 323 203 323 203 330 c 0,109,110
 203 332 203 332 204.5 336.5 c 128,-1,111
 206 341 206 341 211 349 c 1,112,-1
 210 348 l 1,113,114
 229 391 229 391 282 437.5 c 128,-1,115
 335 484 335 484 412.5 527 c 128,-1,116
 490 570 490 570 587.5 606.5 c 128,-1,117
 685 643 685 643 794 667 c 0,118,119
 797 667 797 667 798 668 c 0,120,121
 887 805 887 805 986 905 c 128,-1,122
 1085 1005 1085 1005 1178 1070.5 c 128,-1,123
 1271 1136 1271 1136 1351 1168 c 128,-1,124
 1431 1200 1431 1200 1481 1200 c 0,125,126
 1506 1200 1506 1200 1506 1188 c 0,127,128
 1506 1181 1506 1181 1491.5 1177.5 c 128,-1,129
 1477 1174 1477 1174 1463 1170 c 0,130,131
 1406 1153 1406 1153 1343.5 1113.5 c 128,-1,132
 1281 1074 1281 1074 1216.5 1014.5 c 128,-1,133
 1152 955 1152 955 1087.5 877.5 c 128,-1,134
 1023 800 1023 800 962 707 c 1,135,136
 1001 717 1001 717 1038.5 726 c 128,-1,137
 1076 735 1076 735 1107 745.5 c 128,-1,138
 1138 756 1138 756 1160.5 769.5 c 128,-1,139
 1183 783 1183 783 1192 803 c 1,140,-1
 1195 805 l 1,141,142
 1204 805 1204 805 1226 803.5 c 128,-1,143
 1248 802 1248 802 1273 799.5 c 128,-1,144
 1298 797 1298 797 1320 794 c 128,-1,145
 1342 791 1342 791 1353 788 c 1,146,147
 1318 772 1318 772 1279.5 743 c 128,-1,148
 1241 714 1241 714 1204.5 676 c 128,-1,149
 1168 638 1168 638 1138 593 c 128,-1,150
 1108 548 1108 548 1090 500 c 1,151,152
 1079 485 1079 485 1071 485 c 0,153,154
 1057 485 1057 485 1057 502 c 0,155,156
 1057 507 1057 507 1058 513 c 128,-1,157
 1059 519 1059 519 1064 533 c 0,158,159
 1085 589 1085 589 1103.5 629 c 128,-1,160
 1122 669 1122 669 1146 707 c 1,161,162
 1104 695 1104 695 1046.5 681.5 c 128,-1,163
 989 668 989 668 928 654 c 1,164,-1
 925 649 l 1,165,166
 810 461 810 461 706.5 335.5 c 128,-1,167
 603 210 603 210 503 134.5 c 128,-1,168
 403 59 403 59 301 27.5 c 128,-1,169
 199 -4 199 -4 87 -4 c 0,68,69
EndSplineSet
EndChar

StartChar: G
Encoding: 71 71 37
Width: 1112
Flags: W
LayerCount: 2
Fore
SplineSet
97 -6 m 0,0,1
 48 -6 48 -6 4.5 5.5 c 128,-1,2
 -39 17 -39 17 -72 36.5 c 128,-1,3
 -105 56 -105 56 -124 82.5 c 128,-1,4
 -143 109 -143 109 -143 139 c 0,5,6
 -143 162 -143 162 -134 178 c 128,-1,7
 -125 194 -125 194 -111.5 204.5 c 128,-1,8
 -98 215 -98 215 -81.5 219.5 c 128,-1,9
 -65 224 -65 224 -49 224 c 0,10,11
 -32 224 -32 224 -14 213 c 128,-1,12
 4 202 4 202 4 176 c 0,13,14
 4 155 4 155 -14 140 c 128,-1,15
 -32 125 -32 125 -55 125 c 0,16,17
 -66 125 -66 125 -77 126 c 128,-1,18
 -88 127 -88 127 -98 132 c 1,19,-1
 -98 131 l 2,20,21
 -98 108 -98 108 -83.5 88.5 c 128,-1,22
 -69 69 -69 69 -43 55 c 128,-1,23
 -17 41 -17 41 20.5 33 c 128,-1,24
 58 25 58 25 105 25 c 0,25,26
 164 25 164 25 224.5 46.5 c 128,-1,27
 285 68 285 68 352 118.5 c 128,-1,28
 419 169 419 169 495 251.5 c 128,-1,29
 571 334 571 334 663 456 c 0,30,31
 682 482 682 482 708 513.5 c 128,-1,32
 734 545 734 545 762.5 578.5 c 128,-1,33
 791 612 791 612 820.5 645.5 c 128,-1,34
 850 679 850 679 877 709 c 1,35,36
 800 655 800 655 736 618 c 128,-1,37
 672 581 672 581 619 558.5 c 128,-1,38
 566 536 566 536 521.5 526.5 c 128,-1,39
 477 517 477 517 438 517 c 0,40,41
 404 517 404 517 376.5 522 c 128,-1,42
 349 527 349 527 330 540.5 c 128,-1,43
 311 554 311 554 300.5 576.5 c 128,-1,44
 290 599 290 599 290 634 c 0,45,46
 290 646 290 646 291 658 c 128,-1,47
 292 670 292 670 294 682 c 1,48,49
 283 680 283 680 273.5 680 c 128,-1,50
 264 680 264 680 253 680 c 0,51,52
 211 680 211 680 165 686.5 c 128,-1,53
 119 693 119 693 81 703 c 128,-1,54
 43 713 43 713 18 725.5 c 128,-1,55
 -7 738 -7 738 -7 750 c 0,56,57
 -7 763 -7 763 6 763 c 0,58,59
 8 763 8 763 20 758 c 1,60,61
 44 744 44 744 68 734 c 128,-1,62
 92 724 92 724 118 717.5 c 128,-1,63
 144 711 144 711 174 708 c 128,-1,64
 204 705 204 705 241 705 c 0,65,66
 269 705 269 705 299 708 c 1,67,68
 318 787 318 787 371 870.5 c 128,-1,69
 424 954 424 954 499 1033 c 128,-1,70
 574 1112 574 1112 665 1182 c 128,-1,71
 756 1252 756 1252 851 1304.5 c 128,-1,72
 946 1357 946 1357 1039.5 1387.5 c 128,-1,73
 1133 1418 1133 1418 1212 1418 c 0,74,75
 1278 1418 1278 1418 1306 1396.5 c 128,-1,76
 1334 1375 1334 1375 1334 1329 c 0,77,78
 1334 1271 1334 1271 1289 1204 c 128,-1,79
 1244 1137 1244 1137 1162.5 1067.5 c 128,-1,80
 1081 998 1081 998 967.5 928 c 128,-1,81
 854 858 854 858 718 794 c 1,82,83
 643 762 643 762 565 737 c 128,-1,84
 487 712 487 712 408 697 c 1,85,86
 377 636 377 636 377 597 c 0,87,88
 377 579 377 579 392.5 563.5 c 128,-1,89
 408 548 408 548 452 548 c 0,90,91
 495 548 495 548 550.5 565 c 128,-1,92
 606 582 606 582 676 618.5 c 128,-1,93
 746 655 746 655 832.5 713 c 128,-1,94
 919 771 919 771 1026 854 c 0,95,96
 1080 896 1080 896 1121 921.5 c 128,-1,97
 1162 947 1162 947 1179 947 c 0,98,99
 1187 947 1187 947 1196.5 943.5 c 128,-1,100
 1206 940 1206 940 1206 933 c 0,101,102
 1206 927 1206 927 1203 923 c 128,-1,103
 1200 919 1200 919 1187 913 c 0,104,105
 1160 900 1160 900 1129 872.5 c 128,-1,106
 1098 845 1098 845 1060 799.5 c 128,-1,107
 1022 754 1022 754 975.5 689 c 128,-1,108
 929 624 929 624 872 537 c 0,109,110
 702 273 702 273 506.5 133.5 c 128,-1,111
 311 -6 311 -6 97 -6 c 0,0,1
425 731 m 1,112,113
 539 761 539 761 648.5 811.5 c 128,-1,114
 758 862 758 862 856 922 c 128,-1,115
 954 982 954 982 1036 1046.5 c 128,-1,116
 1118 1111 1118 1111 1177.5 1169 c 128,-1,117
 1237 1227 1237 1227 1270.5 1272.5 c 128,-1,118
 1304 1318 1304 1318 1304 1340 c 0,119,120
 1304 1365 1304 1365 1283.5 1377 c 128,-1,121
 1263 1389 1263 1389 1230 1389 c 0,122,123
 1170 1389 1170 1389 1096.5 1357.5 c 128,-1,124
 1023 1326 1023 1326 945.5 1273.5 c 128,-1,125
 868 1221 868 1221 790 1153 c 128,-1,126
 712 1085 712 1085 642.5 1012 c 128,-1,127
 573 939 573 939 516.5 866 c 128,-1,128
 460 793 460 793 425 731 c 1,112,113
EndSplineSet
EndChar

StartChar: H
Encoding: 72 72 38
Width: 1559
Flags: W
LayerCount: 2
Fore
SplineSet
27 70 m 0,0,1
 63 87 63 87 106.5 120 c 128,-1,2
 150 153 150 153 204 205.5 c 128,-1,3
 258 258 258 258 324 332.5 c 128,-1,4
 390 407 390 407 472 508 c 1,5,-1
 376 479 l 1,6,7
 325 460 325 460 272 435.5 c 128,-1,8
 219 411 219 411 170 381 c 128,-1,9
 121 351 121 351 79.5 316.5 c 128,-1,10
 38 282 38 282 11 243 c 0,11,12
 9 239 9 239 4.5 236 c 128,-1,13
 0 233 0 233 -3 233 c 0,14,15
 -11 233 -11 233 -11 243 c 0,16,17
 -11 251 -11 251 -10.5 253.5 c 128,-1,18
 -10 256 -10 256 -4 266 c 1,19,-1
 -4 265 l 1,20,21
 8 290 8 290 35 316 c 128,-1,22
 62 342 62 342 95 366.5 c 128,-1,23
 128 391 128 391 163.5 412.5 c 128,-1,24
 199 434 199 434 228 449 c 0,25,26
 271 472 271 472 337.5 495.5 c 128,-1,27
 404 519 404 519 503 547 c 1,28,29
 559 622 559 622 613.5 690 c 128,-1,30
 668 758 668 758 718 816 c 128,-1,31
 768 874 768 874 811 921.5 c 128,-1,32
 854 969 854 969 886 1003 c 1,33,34
 791 945 791 945 726.5 923 c 128,-1,35
 662 901 662 901 616 901 c 0,36,37
 564 901 564 901 530.5 925.5 c 128,-1,38
 497 950 497 950 497 1001 c 0,39,40
 497 1025 497 1025 503 1049 c 128,-1,41
 509 1073 509 1073 524 1098.5 c 128,-1,42
 539 1124 539 1124 565.5 1152 c 128,-1,43
 592 1180 592 1180 633 1212 c 0,44,45
 652 1227 652 1227 663 1237 c 128,-1,46
 674 1247 674 1247 680 1254 c 128,-1,47
 686 1261 686 1261 688 1266 c 128,-1,48
 690 1271 690 1271 690 1276 c 0,49,50
 690 1304 690 1304 660.5 1321.5 c 128,-1,51
 631 1339 631 1339 565 1339 c 0,52,53
 490 1339 490 1339 418.5 1313 c 128,-1,54
 347 1287 347 1287 290 1233 c 0,55,56
 280 1224 280 1224 274 1221 c 128,-1,57
 268 1218 268 1218 263 1218 c 256,58,59
 258 1218 258 1218 253.5 1221 c 128,-1,60
 249 1224 249 1224 249 1231 c 0,61,62
 249 1235 249 1235 252.5 1239.5 c 128,-1,63
 256 1244 256 1244 260 1249 c 2,64,-1
 268 1258 l 1,65,66
 325 1307 325 1307 402.5 1336.5 c 128,-1,67
 480 1366 480 1366 565 1366 c 256,68,69
 650 1366 650 1366 695 1335.5 c 128,-1,70
 740 1305 740 1305 740 1251 c 0,71,72
 740 1222 740 1222 733 1195 c 128,-1,73
 726 1168 726 1168 709 1141 c 128,-1,74
 692 1114 692 1114 662.5 1086.5 c 128,-1,75
 633 1059 633 1059 588 1030 c 0,76,77
 572 1019 572 1019 562.5 1012 c 128,-1,78
 553 1005 553 1005 548 1000 c 128,-1,79
 543 995 543 995 541.5 990 c 128,-1,80
 540 985 540 985 540 979 c 0,81,82
 540 972 540 972 544.5 964 c 128,-1,83
 549 956 549 956 559 949.5 c 128,-1,84
 569 943 569 943 586 938.5 c 128,-1,85
 603 934 603 934 628 934 c 0,86,87
 659 934 659 934 699 946 c 128,-1,88
 739 958 739 958 783.5 980 c 128,-1,89
 828 1002 828 1002 875.5 1034 c 128,-1,90
 923 1066 923 1066 969 1106 c 0,91,92
 1050 1177 1050 1177 1110 1228.5 c 128,-1,93
 1170 1280 1170 1280 1213.5 1313.5 c 128,-1,94
 1257 1347 1257 1347 1286.5 1363 c 128,-1,95
 1316 1379 1316 1379 1336 1379 c 0,96,97
 1341 1379 1341 1379 1347 1376 c 128,-1,98
 1353 1373 1353 1373 1353 1370 c 0,99,100
 1353 1368 1353 1368 1348.5 1364 c 128,-1,101
 1344 1360 1344 1360 1332 1352 c 1,102,-1
 1326 1350 l 1,103,-1
 1328 1350 l 1,104,105
 1271 1314 1271 1314 1211 1256.5 c 128,-1,106
 1151 1199 1151 1199 1085 1121 c 128,-1,107
 1019 1043 1019 1043 945 944.5 c 128,-1,108
 871 846 871 846 785 726 c 1,109,-1
 682 596 l 1,110,111
 760 616 760 616 853 639.5 c 128,-1,112
 946 663 946 663 1055 689 c 1,113,114
 1126 779 1126 779 1210 866 c 128,-1,115
 1294 953 1294 953 1381.5 1031 c 128,-1,116
 1469 1109 1469 1109 1556.5 1174.5 c 128,-1,117
 1644 1240 1644 1240 1721.5 1287.5 c 128,-1,118
 1799 1335 1799 1335 1863 1361.5 c 128,-1,119
 1927 1388 1927 1388 1968 1388 c 0,120,121
 2013 1388 2013 1388 2036 1367.5 c 128,-1,122
 2059 1347 2059 1347 2059 1316 c 0,123,124
 2059 1283 2059 1283 2032 1236.5 c 128,-1,125
 2005 1190 2005 1190 1953 1136 c 128,-1,126
 1901 1082 1901 1082 1826.5 1024 c 128,-1,127
 1752 966 1752 966 1657.5 908.5 c 128,-1,128
 1563 851 1563 851 1449 798 c 128,-1,129
 1335 745 1335 745 1206 702 c 1,130,131
 1129 608 1129 608 1061.5 517 c 128,-1,132
 994 426 994 426 944.5 348 c 128,-1,133
 895 270 895 270 866.5 209 c 128,-1,134
 838 148 838 148 838 113 c 0,135,136
 838 65 838 65 855.5 45 c 128,-1,137
 873 25 873 25 916 25 c 0,138,139
 970 25 970 25 1028.5 57 c 128,-1,140
 1087 89 1087 89 1142 148 c 128,-1,141
 1197 207 1197 207 1243.5 289.5 c 128,-1,142
 1290 372 1290 372 1322 473 c 0,143,144
 1327 487 1327 487 1335.5 495.5 c 128,-1,145
 1344 504 1344 504 1349 504 c 0,146,147
 1353 504 1353 504 1358.5 492 c 128,-1,148
 1364 480 1364 480 1364 459 c 0,149,150
 1364 421 1364 421 1346 372 c 128,-1,151
 1328 323 1328 323 1296 271.5 c 128,-1,152
 1264 220 1264 220 1220 170.5 c 128,-1,153
 1176 121 1176 121 1125.5 82 c 128,-1,154
 1075 43 1075 43 1019.5 19 c 128,-1,155
 964 -5 964 -5 908 -5 c 0,156,157
 877 -5 877 -5 853 6.5 c 128,-1,158
 829 18 829 18 812.5 36.5 c 128,-1,159
 796 55 796 55 787.5 78 c 128,-1,160
 779 101 779 101 779 124 c 0,161,162
 779 170 779 170 791.5 224.5 c 128,-1,163
 804 279 804 279 833 344 c 128,-1,164
 862 409 862 409 908.5 485 c 128,-1,165
 955 561 955 561 1024 650 c 1,166,167
 933 625 933 625 836 603.5 c 128,-1,168
 739 582 739 582 648 555 c 1,169,170
 528 411 528 411 425.5 305.5 c 128,-1,171
 323 200 323 200 228.5 131 c 128,-1,172
 134 62 134 62 44.5 28.5 c 128,-1,173
 -45 -5 -45 -5 -138 -5 c 0,174,175
 -177 -5 -177 -5 -212 5.5 c 128,-1,176
 -247 16 -247 16 -272.5 34.5 c 128,-1,177
 -298 53 -298 53 -313 77.5 c 128,-1,178
 -328 102 -328 102 -328 130 c 0,179,180
 -328 153 -328 153 -319 169 c 128,-1,181
 -310 185 -310 185 -296 195.5 c 128,-1,182
 -282 206 -282 206 -265 210.5 c 128,-1,183
 -248 215 -248 215 -233 215 c 0,184,185
 -216 215 -216 215 -198.5 204 c 128,-1,186
 -181 193 -181 193 -181 167 c 0,187,188
 -181 146 -181 146 -198.5 131 c 128,-1,189
 -216 116 -216 116 -240 116 c 0,190,191
 -251 116 -251 116 -261.5 117.5 c 128,-1,192
 -272 119 -272 119 -282 124 c 1,193,-1
 -282 122 l 2,194,195
 -282 80 -282 80 -242 53.5 c 128,-1,196
 -202 27 -202 27 -130 27 c 0,197,198
 -88 27 -88 27 -51.5 38.5 c 128,-1,199
 -15 50 -15 50 27 70 c 0,0,1
1244 748 m 1,200,201
 1353 790 1353 790 1452.5 842.5 c 128,-1,202
 1552 895 1552 895 1638 951 c 128,-1,203
 1724 1007 1724 1007 1794.5 1064 c 128,-1,204
 1865 1121 1865 1121 1915 1172 c 128,-1,205
 1965 1223 1965 1223 1992 1264.5 c 128,-1,206
 2019 1306 2019 1306 2019 1332 c 0,207,208
 2019 1361 2019 1361 1975 1361 c 0,209,210
 1938 1361 1938 1361 1887.5 1337 c 128,-1,211
 1837 1313 1837 1313 1777.5 1271 c 128,-1,212
 1718 1229 1718 1229 1652 1171 c 128,-1,213
 1586 1113 1586 1113 1517 1045 c 128,-1,214
 1448 977 1448 977 1379 901.5 c 128,-1,215
 1310 826 1310 826 1244 748 c 1,200,201
EndSplineSet
EndChar

StartChar: I
Encoding: 73 73 39
Width: 1092
Flags: W
LayerCount: 2
Fore
SplineSet
-89 -5 m 0,0,1
 -139 -5 -139 -5 -178.5 7 c 128,-1,2
 -218 19 -218 19 -246.5 39.5 c 128,-1,3
 -275 60 -275 60 -292 86 c 128,-1,4
 -309 112 -309 112 -313 140 c 1,5,6
 -313 161 -313 161 -304.5 178.5 c 128,-1,7
 -296 196 -296 196 -282.5 208 c 128,-1,8
 -269 220 -269 220 -252.5 227 c 128,-1,9
 -236 234 -236 234 -221 234 c 0,10,11
 -205 234 -205 234 -188 222.5 c 128,-1,12
 -171 211 -171 211 -171 185 c 0,13,14
 -171 173 -171 173 -177.5 163.5 c 128,-1,15
 -184 154 -184 154 -194.5 147 c 128,-1,16
 -205 140 -205 140 -217.5 136.5 c 128,-1,17
 -230 133 -230 133 -242 133 c 0,18,19
 -255 133 -255 133 -267 139 c 1,20,-1
 -267 137 l 1,21,22
 -262 91 -262 91 -217 59 c 128,-1,23
 -172 27 -172 27 -91 27 c 0,24,25
 -36 27 -36 27 20.5 44 c 128,-1,26
 77 61 77 61 138 100 c 128,-1,27
 199 139 199 139 266 202 c 128,-1,28
 333 265 333 265 410 357 c 1,29,30
 383 370 383 370 359 390.5 c 128,-1,31
 335 411 335 411 318 440 c 128,-1,32
 301 469 301 469 291 508 c 128,-1,33
 281 547 281 547 281 597 c 0,34,35
 281 690 281 690 320.5 783.5 c 128,-1,36
 360 877 360 877 432.5 963 c 128,-1,37
 505 1049 505 1049 605.5 1123.5 c 128,-1,38
 706 1198 706 1198 828 1253 c 128,-1,39
 950 1308 950 1308 1089.5 1339.5 c 128,-1,40
 1229 1371 1229 1371 1379 1371 c 0,41,42
 1401 1371 1401 1371 1422.5 1367.5 c 128,-1,43
 1444 1364 1444 1364 1464 1364 c 1,44,-1
 1498 1361 l 2,45,46
 1511 1359 1511 1359 1524 1358 c 128,-1,47
 1537 1357 1537 1357 1550 1357 c 0,48,49
 1576 1357 1576 1357 1600 1360.5 c 128,-1,50
 1624 1364 1624 1364 1651 1364 c 0,51,52
 1672 1364 1672 1364 1681 1359.5 c 128,-1,53
 1690 1355 1690 1355 1690 1347 c 0,54,55
 1690 1338 1690 1338 1682.5 1333.5 c 128,-1,56
 1675 1329 1675 1329 1663 1326.5 c 128,-1,57
 1651 1324 1651 1324 1636 1324 c 128,-1,58
 1621 1324 1621 1324 1605 1324 c 2,59,-1
 1534 1324 l 1,60,61
 1508 1318 1508 1318 1488 1311.5 c 128,-1,62
 1468 1305 1468 1305 1449 1297 c 2,63,-1
 1442 1294 l 1,64,65
 1293 1227 1293 1227 1133.5 1067.5 c 128,-1,66
 974 908 974 908 802 659 c 0,67,68
 745 575 745 575 683 501 c 128,-1,69
 621 427 621 427 555 361 c 1,70,-1
 559 361 l 2,71,72
 628 361 628 361 703.5 384.5 c 128,-1,73
 779 408 779 408 851.5 450.5 c 128,-1,74
 924 493 924 493 989.5 553 c 128,-1,75
 1055 613 1055 613 1105 686 c 128,-1,76
 1155 759 1155 759 1184 843 c 128,-1,77
 1213 927 1213 927 1213 1018 c 0,78,79
 1213 1041 1213 1041 1217.5 1045.5 c 128,-1,80
 1222 1050 1222 1050 1226 1050 c 0,81,82
 1236 1050 1236 1050 1239 1037.5 c 128,-1,83
 1242 1025 1242 1025 1242 999 c 0,84,85
 1242 905 1242 905 1212.5 818.5 c 128,-1,86
 1183 732 1183 732 1132.5 657.5 c 128,-1,87
 1082 583 1082 583 1013.5 522.5 c 128,-1,88
 945 462 945 462 868 419 c 128,-1,89
 791 376 791 376 709 352.5 c 128,-1,90
 627 329 627 329 548 329 c 0,91,92
 542 329 542 329 536 329 c 128,-1,93
 530 329 530 329 523 330 c 1,94,95
 444 253 444 253 363 191 c 128,-1,96
 282 129 282 129 203.5 85.5 c 128,-1,97
 125 42 125 42 51 18.5 c 128,-1,98
 -23 -5 -23 -5 -89 -5 c 0,0,1
431 381 m 1,99,100
 467 426 467 426 506 476 c 128,-1,101
 545 526 545 526 587 583 c 0,102,103
 720 765 720 765 843 897.5 c 128,-1,104
 966 1030 966 1030 1077 1120.5 c 128,-1,105
 1188 1211 1188 1211 1285.5 1262.5 c 128,-1,106
 1383 1314 1383 1314 1464 1334 c 1,107,108
 1441 1336 1441 1336 1418.5 1337.5 c 128,-1,109
 1396 1339 1396 1339 1381 1339 c 0,110,111
 1305 1339 1305 1339 1219.5 1319 c 128,-1,112
 1134 1299 1134 1299 1046 1263 c 128,-1,113
 958 1227 958 1227 871 1178 c 128,-1,114
 784 1129 784 1129 705 1072 c 128,-1,115
 626 1015 626 1015 558 951.5 c 128,-1,116
 490 888 490 888 440.5 823 c 128,-1,117
 391 758 391 758 362.5 694 c 128,-1,118
 334 630 334 630 334 572 c 0,119,120
 334 489 334 489 361 444.5 c 128,-1,121
 388 400 388 400 431 381 c 1,99,100
EndSplineSet
EndChar

StartChar: J
Encoding: 74 74 40
Width: 1063
Flags: W
LayerCount: 2
Fore
SplineSet
156 49 m 1,0,1
 210 119 210 119 261 191.5 c 128,-1,2
 312 264 312 264 366 339 c 1,3,4
 306 372 306 372 266.5 431 c 128,-1,5
 227 490 227 490 227 571 c 0,6,7
 227 676 227 676 269 777 c 128,-1,8
 311 878 311 878 386 968 c 128,-1,9
 461 1058 461 1058 564 1133.5 c 128,-1,10
 667 1209 667 1209 788.5 1263.5 c 128,-1,11
 910 1318 910 1318 1045.5 1348.5 c 128,-1,12
 1181 1379 1181 1379 1322 1379 c 0,13,14
 1371 1379 1371 1379 1416.5 1372.5 c 128,-1,15
 1462 1366 1462 1366 1502 1366 c 0,16,17
 1528 1366 1528 1366 1552 1369.5 c 128,-1,18
 1576 1373 1576 1373 1603 1373 c 0,19,20
 1625 1373 1625 1373 1634 1368.5 c 128,-1,21
 1643 1364 1643 1364 1643 1356 c 0,22,23
 1643 1347 1643 1347 1633.5 1342 c 128,-1,24
 1624 1337 1624 1337 1610 1335 c 128,-1,25
 1596 1333 1596 1333 1579.5 1332.5 c 128,-1,26
 1563 1332 1563 1332 1549 1332 c 0,27,28
 1540 1332 1540 1332 1531 1332.5 c 128,-1,29
 1522 1333 1522 1333 1514 1333 c 2,30,-1
 1486 1333 l 1,31,32
 1317 1288 1317 1288 1127.5 1113 c 128,-1,33
 938 938 938 938 744 644 c 1,34,35
 684 559 684 559 629 484 c 128,-1,36
 574 409 574 409 520 337 c 1,37,38
 588 339 588 339 662 371 c 128,-1,39
 736 403 736 403 808 455 c 128,-1,40
 880 507 880 507 945 575.5 c 128,-1,41
 1010 644 1010 644 1059 719 c 128,-1,42
 1108 794 1108 794 1137 870.5 c 128,-1,43
 1166 947 1166 947 1166 1017 c 0,44,45
 1166 1036 1166 1036 1171 1043 c 128,-1,46
 1176 1050 1176 1050 1179 1050 c 0,47,48
 1190 1050 1190 1050 1192 1036 c 128,-1,49
 1194 1022 1194 1022 1194 1002 c 0,50,51
 1194 921 1194 921 1165.5 838 c 128,-1,52
 1137 755 1137 755 1087.5 677.5 c 128,-1,53
 1038 600 1038 600 971.5 532 c 128,-1,54
 905 464 905 464 828 413.5 c 128,-1,55
 751 363 751 363 667.5 334 c 128,-1,56
 584 305 584 305 501 305 c 2,57,-1
 496 305 l 1,58,59
 453 248 453 248 412.5 196 c 128,-1,60
 372 144 372 144 334 96 c 1,61,-1
 394 112 l 2,62,63
 439 124 439 124 475.5 134.5 c 128,-1,64
 512 145 512 145 547.5 156 c 128,-1,65
 583 167 583 167 621 180.5 c 128,-1,66
 659 194 659 194 707 212 c 0,67,68
 719 217 719 217 730.5 223.5 c 128,-1,69
 742 230 742 230 749 230 c 1,70,-1
 754 227 l 1,71,72
 760 222 760 222 760 220 c 0,73,74
 759 211 759 211 752.5 205 c 128,-1,75
 746 199 746 199 725 190 c 2,76,-1
 704 181 l 2,77,78
 665 164 665 164 631 150.5 c 128,-1,79
 597 137 597 137 553 122 c 128,-1,80
 509 107 509 107 448 89 c 128,-1,81
 387 71 387 71 293 45 c 1,82,83
 133 -153 133 -153 5 -285.5 c 128,-1,84
 -123 -418 -123 -418 -228 -497.5 c 128,-1,85
 -333 -577 -333 -577 -419.5 -610 c 128,-1,86
 -506 -643 -506 -643 -582 -643 c 0,87,88
 -606 -643 -606 -643 -623.5 -634.5 c 128,-1,89
 -641 -626 -641 -626 -652.5 -612.5 c 128,-1,90
 -664 -599 -664 -599 -670 -582.5 c 128,-1,91
 -676 -566 -676 -566 -676 -549 c 0,92,93
 -676 -499 -676 -499 -647 -444.5 c 128,-1,94
 -618 -390 -618 -390 -564.5 -334.5 c 128,-1,95
 -511 -279 -511 -279 -435.5 -224.5 c 128,-1,96
 -360 -170 -360 -170 -267.5 -120 c 128,-1,97
 -175 -70 -175 -70 -68 -27 c 128,-1,98
 39 16 39 16 156 49 c 1,0,1
503 537 m 1,99,100
 637 729 637 729 768 871 c 128,-1,101
 899 1013 899 1013 1018.5 1110.5 c 128,-1,102
 1138 1208 1138 1208 1241.5 1264.5 c 128,-1,103
 1345 1321 1345 1321 1423 1342 c 1,104,105
 1398 1345 1398 1345 1373.5 1346.5 c 128,-1,106
 1349 1348 1349 1348 1333 1348 c 0,107,108
 1258 1348 1258 1348 1173 1328 c 128,-1,109
 1088 1308 1088 1308 1000.5 1272 c 128,-1,110
 913 1236 913 1236 825.5 1186.5 c 128,-1,111
 738 1137 738 1137 659 1078.5 c 128,-1,112
 580 1020 580 1020 511.5 954.5 c 128,-1,113
 443 889 443 889 393 821.5 c 128,-1,114
 343 754 343 754 314.5 686.5 c 128,-1,115
 286 619 286 619 286 556 c 0,116,117
 286 489 286 489 314 442 c 128,-1,118
 342 395 342 395 387 369 c 1,119,-1
 503 537 l 1,99,100
117 -2 m 1,120,121
 38 -29 38 -29 -48.5 -71 c 128,-1,122
 -135 -113 -135 -113 -219 -163 c 128,-1,123
 -303 -213 -303 -213 -379.5 -267.5 c 128,-1,124
 -456 -322 -456 -322 -513.5 -374.5 c 128,-1,125
 -571 -427 -571 -427 -605 -474 c 128,-1,126
 -639 -521 -639 -521 -639 -556 c 0,127,128
 -639 -580 -639 -580 -622.5 -596 c 128,-1,129
 -606 -612 -606 -612 -580 -612 c 0,130,131
 -512 -612 -512 -612 -431.5 -565 c 128,-1,132
 -351 -518 -351 -518 -261.5 -436 c 128,-1,133
 -172 -354 -172 -354 -76.5 -242.5 c 128,-1,134
 19 -131 19 -131 117 -2 c 1,120,121
EndSplineSet
EndChar

StartChar: K
Encoding: 75 75 41
Width: 1663
Flags: W
LayerCount: 2
Fore
SplineSet
25 -5 m 0,0,1
 -22 -5 -22 -5 -59 5.5 c 128,-1,2
 -96 16 -96 16 -121.5 34.5 c 128,-1,3
 -147 53 -147 53 -160.5 77.5 c 128,-1,4
 -174 102 -174 102 -174 130 c 0,5,6
 -174 153 -174 153 -165 169 c 128,-1,7
 -156 185 -156 185 -142.5 195.5 c 128,-1,8
 -129 206 -129 206 -112 210.5 c 128,-1,9
 -95 215 -95 215 -80 215 c 0,10,11
 -63 215 -63 215 -45 204 c 128,-1,12
 -27 193 -27 193 -27 167 c 0,13,14
 -27 146 -27 146 -45 131 c 128,-1,15
 -63 116 -63 116 -86 116 c 0,16,17
 -97 116 -97 116 -108 117 c 128,-1,18
 -119 118 -119 118 -129 123 c 1,19,-1
 -129 122 l 2,20,21
 -129 80 -129 80 -88.5 53.5 c 128,-1,22
 -48 27 -48 27 24 27 c 0,23,24
 79 27 79 27 146 53 c 128,-1,25
 213 79 213 79 293.5 139.5 c 128,-1,26
 374 200 374 200 468.5 301 c 128,-1,27
 563 402 563 402 674 552 c 0,28,29
 713 606 713 606 767.5 666.5 c 128,-1,30
 822 727 822 727 887 793 c 128,-1,31
 952 859 952 859 1026 929.5 c 128,-1,32
 1100 1000 1100 1000 1179 1073 c 1,33,34
 1094 1019 1094 1019 1020 990.5 c 128,-1,35
 946 962 946 962 874 962 c 0,36,37
 828 962 828 962 800 982.5 c 128,-1,38
 772 1003 772 1003 772 1045 c 0,39,40
 772 1094 772 1094 809.5 1143 c 128,-1,41
 847 1192 847 1192 920 1246 c 0,42,43
 943 1263 943 1263 954 1275 c 128,-1,44
 965 1287 965 1287 965 1298 c 0,45,46
 965 1329 965 1329 936.5 1342.5 c 128,-1,47
 908 1356 908 1356 860 1356 c 0,48,49
 799 1356 799 1356 742.5 1338 c 128,-1,50
 686 1320 686 1320 637 1289.5 c 128,-1,51
 588 1259 588 1259 547 1219.5 c 128,-1,52
 506 1180 506 1180 475 1137 c 128,-1,53
 444 1094 444 1094 423 1050.5 c 128,-1,54
 402 1007 402 1007 394 970 c 1,55,56
 389 954 389 954 386 948 c 128,-1,57
 383 942 383 942 377 942 c 0,58,59
 363 942 363 942 363 970 c 0,60,61
 363 976 363 976 365 980 c 0,62,63
 373 1009 373 1009 392 1050.5 c 128,-1,64
 411 1092 411 1092 441 1137.5 c 128,-1,65
 471 1183 471 1183 512.5 1228.5 c 128,-1,66
 554 1274 554 1274 607 1309.5 c 128,-1,67
 660 1345 660 1345 725 1367.5 c 128,-1,68
 790 1390 790 1390 868 1390 c 0,69,70
 902 1390 902 1390 931.5 1382 c 128,-1,71
 961 1374 961 1374 982 1360.5 c 128,-1,72
 1003 1347 1003 1347 1015 1328.5 c 128,-1,73
 1027 1310 1027 1310 1027 1288 c 0,74,75
 1027 1235 1027 1235 992.5 1181.5 c 128,-1,76
 958 1128 958 1128 880 1077 c 2,77,-1
 863 1066 l 2,78,79
 846 1055 846 1055 834.5 1045.5 c 128,-1,80
 823 1036 823 1036 823 1025 c 0,81,82
 823 1013 823 1013 837 1004.5 c 128,-1,83
 851 996 851 996 874 996 c 0,84,85
 983 996 983 996 1099.5 1058.5 c 128,-1,86
 1216 1121 1216 1121 1351 1235 c 1,87,88
 1423 1293 1423 1293 1474.5 1329.5 c 128,-1,89
 1526 1366 1526 1366 1561 1387 c 128,-1,90
 1596 1408 1596 1408 1617.5 1415.5 c 128,-1,91
 1639 1423 1639 1423 1650 1423 c 0,92,93
 1658 1423 1658 1423 1662 1421.5 c 128,-1,94
 1666 1420 1666 1420 1666 1412 c 0,95,96
 1666 1401 1666 1401 1654 1398 c 0,97,98
 1633 1392 1633 1392 1602 1376 c 128,-1,99
 1571 1360 1571 1360 1527.5 1326.5 c 128,-1,100
 1484 1293 1484 1293 1426 1239 c 128,-1,101
 1368 1185 1368 1185 1293 1102.5 c 128,-1,102
 1218 1020 1218 1020 1125 905.5 c 128,-1,103
 1032 791 1032 791 918 638 c 0,104,105
 791 468 791 468 668 346.5 c 128,-1,106
 545 225 545 225 430.5 147 c 128,-1,107
 316 69 316 69 213 32 c 128,-1,108
 110 -5 110 -5 25 -5 c 0,0,1
889 88 m 0,109,110
 889 119 889 119 900.5 159 c 128,-1,111
 912 199 912 199 943.5 252 c 128,-1,112
 975 305 975 305 1032 374 c 128,-1,113
 1089 443 1089 443 1180 533 c 0,114,115
 1198 551 1198 551 1211 571 c 128,-1,116
 1224 591 1224 591 1232 609.5 c 128,-1,117
 1240 628 1240 628 1244 644.5 c 128,-1,118
 1248 661 1248 661 1248 673 c 0,119,120
 1248 683 1248 683 1245 691 c 1,121,122
 1188 673 1188 673 1137 669 c 1,123,124
 1114 669 1114 669 1094 674 c 128,-1,125
 1074 679 1074 679 1058.5 686.5 c 128,-1,126
 1043 694 1043 694 1034 703.5 c 128,-1,127
 1025 713 1025 713 1025 722 c 0,128,129
 1025 742 1025 742 1055.5 756.5 c 128,-1,130
 1086 771 1086 771 1146 771 c 0,131,132
 1181 771 1181 771 1210.5 762 c 128,-1,133
 1240 753 1240 753 1262 732 c 1,134,135
 1320 761 1320 761 1383 819 c 128,-1,136
 1446 877 1446 877 1527 967 c 0,137,138
 1627 1077 1627 1077 1728.5 1157 c 128,-1,139
 1830 1237 1830 1237 1924.5 1289 c 128,-1,140
 2019 1341 2019 1341 2103.5 1366 c 128,-1,141
 2188 1391 2188 1391 2253 1391 c 0,142,143
 2319 1391 2319 1391 2357.5 1361 c 128,-1,144
 2396 1331 2396 1331 2396 1283 c 0,145,146
 2396 1270 2396 1270 2393 1258 c 1,147,-1
 2393 1259 l 1,148,149
 2389 1235 2389 1235 2378.5 1216 c 128,-1,150
 2368 1197 2368 1197 2354.5 1184 c 128,-1,151
 2341 1171 2341 1171 2325 1164 c 128,-1,152
 2309 1157 2309 1157 2294 1157 c 0,153,154
 2265 1157 2265 1157 2252.5 1172 c 128,-1,155
 2240 1187 2240 1187 2240 1207 c 0,156,157
 2240 1218 2240 1218 2245.5 1229.5 c 128,-1,158
 2251 1241 2251 1241 2261 1250.5 c 128,-1,159
 2271 1260 2271 1260 2284 1266 c 128,-1,160
 2297 1272 2297 1272 2312 1272 c 0,161,162
 2336 1272 2336 1272 2353 1259 c 1,163,164
 2356 1264 2356 1264 2356 1270 c 128,-1,165
 2356 1276 2356 1276 2356 1280 c 0,166,167
 2356 1293 2356 1293 2350.5 1307.5 c 128,-1,168
 2345 1322 2345 1322 2332.5 1334 c 128,-1,169
 2320 1346 2320 1346 2300.5 1353.5 c 128,-1,170
 2281 1361 2281 1361 2253 1361 c 0,171,172
 2212 1361 2212 1361 2167 1344.5 c 128,-1,173
 2122 1328 2122 1328 2068.5 1294 c 128,-1,174
 2015 1260 2015 1260 1950.5 1207 c 128,-1,175
 1886 1154 1886 1154 1806 1081 c 1,176,177
 1668 946 1668 946 1536 849.5 c 128,-1,178
 1404 753 1404 753 1283 705 c 1,179,180
 1291 689 1291 689 1296 669.5 c 128,-1,181
 1301 650 1301 650 1301 627 c 0,182,183
 1301 585 1301 585 1291 539.5 c 128,-1,184
 1281 494 1281 494 1252.5 441 c 128,-1,185
 1224 388 1224 388 1172.5 325.5 c 128,-1,186
 1121 263 1121 263 1037 187 c 0,187,188
 1008 161 1008 161 990.5 142.5 c 128,-1,189
 973 124 973 124 963 110 c 128,-1,190
 953 96 953 96 949.5 85.5 c 128,-1,191
 946 75 946 75 946 66 c 0,192,193
 946 41 946 41 965 28.5 c 128,-1,194
 984 16 984 16 1037 16 c 0,195,196
 1084 16 1084 16 1148 49 c 128,-1,197
 1212 82 1212 82 1275.5 143 c 128,-1,198
 1339 204 1339 204 1393 290.5 c 128,-1,199
 1447 377 1447 377 1474 483 c 1,200,201
 1485 515 1485 515 1492 515 c 0,202,203
 1497 515 1497 515 1501.5 503.5 c 128,-1,204
 1506 492 1506 492 1506 475 c 0,205,206
 1506 428 1506 428 1484 373.5 c 128,-1,207
 1462 319 1462 319 1424.5 264.5 c 128,-1,208
 1387 210 1387 210 1338.5 159 c 128,-1,209
 1290 108 1290 108 1236.5 69.5 c 128,-1,210
 1183 31 1183 31 1128.5 7.5 c 128,-1,211
 1074 -16 1074 -16 1025 -16 c 0,212,213
 889 -16 889 -16 889 88 c 0,109,110
1079 724 m 0,214,215
 1079 716 1079 716 1092 709 c 128,-1,216
 1105 702 1105 702 1135 702 c 0,217,218
 1158 702 1158 702 1180 705.5 c 128,-1,219
 1202 709 1202 709 1227 717 c 1,220,221
 1210 731 1210 731 1186 737.5 c 128,-1,222
 1162 744 1162 744 1137 744 c 0,223,224
 1114 744 1114 744 1096.5 737 c 128,-1,225
 1079 730 1079 730 1079 724 c 0,214,215
EndSplineSet
EndChar

StartChar: L
Encoding: 76 76 42
Width: 1323
Flags: W
LayerCount: 2
Fore
SplineSet
-59 -5 m 0,0,1
 -115 -5 -115 -5 -156.5 2.5 c 128,-1,2
 -198 10 -198 10 -225 21.5 c 128,-1,3
 -252 33 -252 33 -265.5 48 c 128,-1,4
 -279 63 -279 63 -279 78 c 0,5,6
 -279 102 -279 102 -263 121 c 128,-1,7
 -247 140 -247 140 -217.5 153.5 c 128,-1,8
 -188 167 -188 167 -146.5 174.5 c 128,-1,9
 -105 182 -105 182 -55 182 c 0,10,11
 18 182 18 182 93.5 164.5 c 128,-1,12
 169 147 169 147 261 115 c 1,13,14
 337 165 337 165 418.5 252 c 128,-1,15
 500 339 500 339 601 474 c 1,16,17
 500 478 500 478 417.5 501.5 c 128,-1,18
 335 525 335 525 276.5 564.5 c 128,-1,19
 218 604 218 604 186 657.5 c 128,-1,20
 154 711 154 711 154 776 c 0,21,22
 154 839 154 839 186 902 c 128,-1,23
 218 965 218 965 271.5 1015 c 128,-1,24
 325 1065 325 1065 395.5 1096 c 128,-1,25
 466 1127 466 1127 543 1127 c 0,26,27
 561 1127 561 1127 564 1122 c 128,-1,28
 567 1117 567 1117 567 1113 c 0,29,30
 567 1107 567 1107 562.5 1103.5 c 128,-1,31
 558 1100 558 1100 533 1098 c 0,32,33
 458 1091 458 1091 401.5 1061.5 c 128,-1,34
 345 1032 345 1032 308 990 c 128,-1,35
 271 948 271 948 252.5 898 c 128,-1,36
 234 848 234 848 234 800 c 0,37,38
 234 725 234 725 261.5 671 c 128,-1,39
 289 617 289 617 340 581 c 128,-1,40
 391 545 391 545 463.5 527.5 c 128,-1,41
 536 510 536 510 626 509 c 1,42,43
 658 552 658 552 691 600 c 128,-1,44
 724 648 724 648 761 702 c 0,45,46
 882 880 882 880 992.5 1008 c 128,-1,47
 1103 1136 1103 1136 1208.5 1218.5 c 128,-1,48
 1314 1301 1314 1301 1416.5 1340 c 128,-1,49
 1519 1379 1519 1379 1624 1379 c 0,50,51
 1661 1379 1661 1379 1691.5 1370.5 c 128,-1,52
 1722 1362 1722 1362 1744 1346 c 128,-1,53
 1766 1330 1766 1330 1778.5 1307.5 c 128,-1,54
 1791 1285 1791 1285 1791 1258 c 0,55,56
 1791 1188 1791 1188 1745 1108.5 c 128,-1,57
 1699 1029 1699 1029 1621 948.5 c 128,-1,58
 1543 868 1543 868 1439 791.5 c 128,-1,59
 1335 715 1335 715 1220 652 c 128,-1,60
 1105 589 1105 589 984.5 544.5 c 128,-1,61
 864 500 864 500 752 483 c 1,62,63
 646 345 646 345 542 248.5 c 128,-1,64
 438 152 438 152 326 91 c 1,65,66
 411 60 411 60 515 43.5 c 128,-1,67
 619 27 619 27 754 27 c 0,68,69
 835 27 835 27 892.5 39.5 c 128,-1,70
 950 52 950 52 987.5 69 c 128,-1,71
 1025 86 1025 86 1045 102 c 128,-1,72
 1065 118 1065 118 1073 126 c 0,73,74
 1080 133 1080 133 1088 133 c 0,75,76
 1098 133 1098 133 1098 124 c 1,77,78
 1097 116 1097 116 1093 107 c 128,-1,79
 1089 98 1089 98 1081 91 c 0,80,81
 1040 55 1040 55 999 32 c 128,-1,82
 958 9 958 9 916 -4.5 c 128,-1,83
 874 -18 874 -18 831.5 -23 c 128,-1,84
 789 -28 789 -28 747 -28 c 0,85,86
 695 -28 695 -28 633 -19 c 128,-1,87
 571 -10 571 -10 507.5 4 c 128,-1,88
 444 18 444 18 383 34.5 c 128,-1,89
 322 51 322 51 273 65 c 1,90,91
 121 -5 121 -5 -59 -5 c 0,0,1
782 522 m 1,92,93
 889 542 889 542 1000.5 586.5 c 128,-1,94
 1112 631 1112 631 1216 691 c 128,-1,95
 1320 751 1320 751 1411.5 823.5 c 128,-1,96
 1503 896 1503 896 1571 971.5 c 128,-1,97
 1639 1047 1639 1047 1678.5 1122 c 128,-1,98
 1718 1197 1718 1197 1718 1263 c 0,99,100
 1718 1279 1718 1279 1710.5 1295 c 128,-1,101
 1703 1311 1703 1311 1689.5 1323.5 c 128,-1,102
 1676 1336 1676 1336 1657.5 1343.5 c 128,-1,103
 1639 1351 1639 1351 1618 1351 c 0,104,105
 1540 1351 1540 1351 1462.5 1317.5 c 128,-1,106
 1385 1284 1385 1284 1308.5 1221 c 128,-1,107
 1232 1158 1232 1158 1157.5 1067.5 c 128,-1,108
 1083 977 1083 977 1011 863 c 0,109,110
 951 767 951 767 895 682.5 c 128,-1,111
 839 598 839 598 782 522 c 1,92,93
-73 24 m 0,112,113
 6 24 6 24 74 36.5 c 128,-1,114
 142 49 142 49 208 84 c 1,115,116
 144 101 144 101 77 113.5 c 128,-1,117
 10 126 10 126 -47 126 c 0,118,119
 -146 126 -146 126 -195.5 113 c 128,-1,120
 -245 100 -245 100 -245 80 c 0,121,122
 -245 72 -245 72 -233 62.5 c 128,-1,123
 -221 53 -221 53 -198.5 44.5 c 128,-1,124
 -176 36 -176 36 -144.5 30 c 128,-1,125
 -113 24 -113 24 -73 24 c 0,112,113
EndSplineSet
EndChar

StartChar: M
Encoding: 77 77 43
Width: 1718
Flags: W
LayerCount: 2
Fore
SplineSet
94 55 m 1,0,1
 31 24 31 24 -18 10 c 128,-1,2
 -67 -4 -67 -4 -115 -4 c 0,3,4
 -211 -4 -211 -4 -257 31.5 c 128,-1,5
 -303 67 -303 67 -303 124 c 0,6,7
 -303 148 -303 148 -294 165.5 c 128,-1,8
 -285 183 -285 183 -271.5 194.5 c 128,-1,9
 -258 206 -258 206 -241.5 211.5 c 128,-1,10
 -225 217 -225 217 -210 217 c 0,11,12
 -193 217 -193 217 -174.5 205.5 c 128,-1,13
 -156 194 -156 194 -156 169 c 0,14,15
 -156 148 -156 148 -174 132.5 c 128,-1,16
 -192 117 -192 117 -215 117 c 0,17,18
 -226 117 -226 117 -237.5 119 c 128,-1,19
 -249 121 -249 121 -259 126 c 1,20,21
 -259 124 -259 124 -259.5 122.5 c 128,-1,22
 -260 121 -260 121 -260 119 c 0,23,24
 -260 77 -260 77 -224.5 53 c 128,-1,25
 -189 29 -189 29 -117 29 c 256,26,27
 -45 29 -45 29 51 74.5 c 128,-1,28
 147 120 147 120 279 223.5 c 128,-1,29
 411 327 411 327 584.5 496 c 128,-1,30
 758 665 758 665 985 911 c 1,31,32
 1127 1067 1127 1067 1233.5 1172 c 128,-1,33
 1340 1277 1340 1277 1412 1341.5 c 128,-1,34
 1484 1406 1484 1406 1523 1433.5 c 128,-1,35
 1562 1461 1562 1461 1568 1461 c 0,36,37
 1576 1461 1576 1461 1587 1457.5 c 128,-1,38
 1598 1454 1598 1454 1598 1448 c 256,39,40
 1598 1442 1598 1442 1595 1439 c 128,-1,41
 1592 1436 1592 1436 1586 1431 c 2,42,-1
 1582 1427 l 1,43,44
 1572 1419 1572 1419 1558 1406 c 128,-1,45
 1544 1393 1544 1393 1523 1372 c 1,46,47
 1499 1345 1499 1345 1456.5 1285.5 c 128,-1,48
 1414 1226 1414 1226 1359 1144 c 128,-1,49
 1304 1062 1304 1062 1240 964 c 128,-1,50
 1176 866 1176 866 1111 763 c 128,-1,51
 1046 660 1046 660 982.5 557.5 c 128,-1,52
 919 455 919 455 864 364.5 c 128,-1,53
 809 274 809 274 767 200.5 c 128,-1,54
 725 127 725 127 702 82 c 1,55,56
 788 181 788 181 860.5 263 c 128,-1,57
 933 345 933 345 1000 418.5 c 128,-1,58
 1067 492 1067 492 1133.5 561.5 c 128,-1,59
 1200 631 1200 631 1274 705 c 128,-1,60
 1348 779 1348 779 1433.5 861.5 c 128,-1,61
 1519 944 1519 944 1625 1044 c 1,62,63
 1752 1162 1752 1162 1847.5 1242.5 c 128,-1,64
 1943 1323 1943 1323 2011 1372 c 128,-1,65
 2079 1421 2079 1421 2122.5 1442 c 128,-1,66
 2166 1463 2166 1463 2189 1463 c 0,67,68
 2195 1463 2195 1463 2199 1461.5 c 128,-1,69
 2203 1460 2203 1460 2203 1453 c 1,70,71
 2202 1448 2202 1448 2192.5 1440 c 128,-1,72
 2183 1432 2183 1432 2168 1421 c 0,73,74
 2104 1373 2104 1373 2028.5 1295.5 c 128,-1,75
 1953 1218 1953 1218 1872 1120.5 c 128,-1,76
 1791 1023 1791 1023 1706.5 911 c 128,-1,77
 1622 799 1622 799 1538.5 684 c 128,-1,78
 1455 569 1455 569 1375.5 456 c 128,-1,79
 1296 343 1296 343 1225 243 c 1,80,81
 1192 194 1192 194 1172 163 c 128,-1,82
 1152 132 1152 132 1141.5 113 c 128,-1,83
 1131 94 1131 94 1127.5 84 c 128,-1,84
 1124 74 1124 74 1124 66 c 0,85,86
 1124 49 1124 49 1138 38.5 c 128,-1,87
 1152 28 1152 28 1178 28 c 0,88,89
 1199 28 1199 28 1233 36 c 128,-1,90
 1267 44 1267 44 1304.5 59.5 c 128,-1,91
 1342 75 1342 75 1380.5 98 c 128,-1,92
 1419 121 1419 121 1449 150 c 1,93,94
 1451 148 1451 148 1454 143 c 128,-1,95
 1457 138 1457 138 1457 132 c 0,96,97
 1457 115 1457 115 1451 108 c 1,98,99
 1419 81 1419 81 1379 59.5 c 128,-1,100
 1339 38 1339 38 1298.5 24 c 128,-1,101
 1258 10 1258 10 1222 2.5 c 128,-1,102
 1186 -5 1186 -5 1161 -5 c 0,103,104
 1098 -5 1098 -5 1069 22.5 c 128,-1,105
 1040 50 1040 50 1040 92 c 0,106,107
 1040 135 1040 135 1071 200.5 c 128,-1,108
 1102 266 1102 266 1155.5 346.5 c 128,-1,109
 1209 427 1209 427 1280 518.5 c 128,-1,110
 1351 610 1351 610 1431 704 c 128,-1,111
 1511 798 1511 798 1595 891.5 c 128,-1,112
 1679 985 1679 985 1759 1070 c 128,-1,113
 1839 1155 1839 1155 1909.5 1227.5 c 128,-1,114
 1980 1300 1980 1300 2033 1352 c 1,115,116
 1990 1319 1990 1319 1936 1272.5 c 128,-1,117
 1882 1226 1882 1226 1805 1155 c 128,-1,118
 1728 1084 1728 1084 1621 983.5 c 128,-1,119
 1514 883 1514 883 1366 742 c 0,120,121
 1281 661 1281 661 1127 501 c 128,-1,122
 973 341 973 341 759 92 c 0,123,124
 733 62 733 62 715.5 44.5 c 128,-1,125
 698 27 698 27 686.5 18 c 128,-1,126
 675 9 675 9 668 6.5 c 128,-1,127
 661 4 661 4 656 4 c 0,128,129
 648 4 648 4 640 14.5 c 128,-1,130
 632 25 632 25 632 48 c 0,131,132
 632 102 632 102 656 177.5 c 128,-1,133
 680 253 680 253 725.5 345 c 128,-1,134
 771 437 771 437 836 543.5 c 128,-1,135
 901 650 901 650 982.5 766.5 c 128,-1,136
 1064 883 1064 883 1160 1006.5 c 128,-1,137
 1256 1130 1256 1130 1364 1256 c 1,138,139
 1290 1185 1290 1185 1155 1042 c 128,-1,140
 1020 899 1020 899 814 673 c 0,141,142
 590 426 590 426 409.5 275.5 c 128,-1,143
 229 125 229 125 94 55 c 1,0,1
EndSplineSet
EndChar

StartChar: N
Encoding: 78 78 44
Width: 1407
Flags: W
LayerCount: 2
Fore
SplineSet
-52 -5 m 0,0,1
 -153 -5 -153 -5 -202.5 34.5 c 128,-1,2
 -252 74 -252 74 -252 131 c 0,3,4
 -252 153 -252 153 -243 169.5 c 128,-1,5
 -234 186 -234 186 -220 196 c 128,-1,6
 -206 206 -206 206 -189 211 c 128,-1,7
 -172 216 -172 216 -157 216 c 0,8,9
 -140 216 -140 216 -122.5 204.5 c 128,-1,10
 -105 193 -105 193 -105 168 c 0,11,12
 -105 147 -105 147 -122 131.5 c 128,-1,13
 -139 116 -139 116 -162 116 c 0,14,15
 -173 116 -173 116 -184.5 117.5 c 128,-1,16
 -196 119 -196 119 -206 124 c 1,17,-1
 -206 123 l 2,18,19
 -206 81 -206 81 -169 54.5 c 128,-1,20
 -132 28 -132 28 -53 28 c 0,21,22
 -9 28 -9 28 56.5 58.5 c 128,-1,23
 122 89 122 89 209 154.5 c 128,-1,24
 296 220 296 220 404.5 323 c 128,-1,25
 513 426 513 426 644 570 c 1,26,27
 790 735 790 735 906.5 872.5 c 128,-1,28
 1023 1010 1023 1010 1106.5 1111.5 c 128,-1,29
 1190 1213 1190 1213 1237.5 1273.5 c 128,-1,30
 1285 1334 1285 1334 1293 1346 c 0,31,32
 1301 1359 1301 1359 1307.5 1363.5 c 128,-1,33
 1314 1368 1314 1368 1320 1368 c 0,34,35
 1332 1368 1332 1368 1332 1356 c 0,36,37
 1332 1350 1332 1350 1328 1343 c 2,38,-1
 1314 1314 l 1,39,40
 1293 1280 1293 1280 1279.5 1247 c 128,-1,41
 1266 1214 1266 1214 1254.5 1177.5 c 128,-1,42
 1243 1141 1243 1141 1232 1100 c 128,-1,43
 1221 1059 1221 1059 1207.5 1008.5 c 128,-1,44
 1194 958 1194 958 1174.5 896.5 c 128,-1,45
 1155 835 1155 835 1127 759 c 0,46,47
 1100 686 1100 686 1072.5 623.5 c 128,-1,48
 1045 561 1045 561 1013.5 498.5 c 128,-1,49
 982 436 982 436 944.5 368.5 c 128,-1,50
 907 301 907 301 861 219 c 1,51,-1
 855 209 l 1,52,53
 889 250 889 250 935.5 305.5 c 128,-1,54
 982 361 982 361 1036.5 425 c 128,-1,55
 1091 489 1091 489 1151.5 558.5 c 128,-1,56
 1212 628 1212 628 1275 699 c 128,-1,57
 1338 770 1338 770 1401.5 839 c 128,-1,58
 1465 908 1465 908 1526 971 c 0,59,60
 1653 1102 1653 1102 1763.5 1197 c 128,-1,61
 1874 1292 1874 1292 1972 1353 c 128,-1,62
 2070 1414 2070 1414 2158 1443 c 128,-1,63
 2246 1472 2246 1472 2328 1472 c 0,64,65
 2434 1472 2434 1472 2488 1426 c 128,-1,66
 2542 1380 2542 1380 2542 1295 c 0,67,68
 2542 1248 2542 1248 2517 1194 c 128,-1,69
 2492 1140 2492 1140 2446 1085.5 c 128,-1,70
 2400 1031 2400 1031 2336 981 c 128,-1,71
 2272 931 2272 931 2194 893 c 0,72,73
 2177 885 2177 885 2161.5 880.5 c 128,-1,74
 2146 876 2146 876 2138 876 c 256,75,76
 2130 876 2130 876 2127 879.5 c 128,-1,77
 2124 883 2124 883 2124 886 c 0,78,79
 2124 895 2124 895 2143 905 c 1,80,81
 2202 927 2202 927 2261 967 c 128,-1,82
 2320 1007 2320 1007 2367 1057.5 c 128,-1,83
 2414 1108 2414 1108 2443.5 1165 c 128,-1,84
 2473 1222 2473 1222 2473 1278 c 0,85,86
 2473 1354 2473 1354 2432.5 1396 c 128,-1,87
 2392 1438 2392 1438 2317 1438 c 0,88,89
 2235 1438 2235 1438 2143 1403.5 c 128,-1,90
 2051 1369 2051 1369 1942.5 1293.5 c 128,-1,91
 1834 1218 1834 1218 1705.5 1099.5 c 128,-1,92
 1577 981 1577 981 1423 813 c 0,93,94
 1318 699 1318 699 1225.5 593 c 128,-1,95
 1133 487 1133 487 1054 394 c 128,-1,96
 975 301 975 301 912 224.5 c 128,-1,97
 849 148 849 148 802 93 c 128,-1,98
 755 38 755 38 726.5 8 c 128,-1,99
 698 -22 698 -22 689 -22 c 0,100,101
 682 -22 682 -22 677 -17 c 128,-1,102
 672 -12 672 -12 672 -4 c 256,103,104
 672 4 672 4 681 10 c 0,105,106
 705 28 705 28 722.5 56.5 c 128,-1,107
 740 85 740 85 756.5 129 c 128,-1,108
 773 173 773 173 792 235 c 128,-1,109
 811 297 811 297 837 382 c 0,110,111
 862 464 862 464 898 557.5 c 128,-1,112
 934 651 934 651 978.5 749.5 c 128,-1,113
 1023 848 1023 848 1074.5 950 c 128,-1,114
 1126 1052 1126 1052 1182 1151 c 1,115,-1
 1164 1129 l 2,116,117
 1104 1055 1104 1055 1046 983.5 c 128,-1,118
 988 912 988 912 925.5 838 c 128,-1,119
 863 764 863 764 793 683.5 c 128,-1,120
 723 603 723 603 639 511 c 0,121,122
 524 385 524 385 425 289 c 128,-1,123
 326 193 326 193 240.5 127.5 c 128,-1,124
 155 62 155 62 82.5 28.5 c 128,-1,125
 10 -5 10 -5 -52 -5 c 0,0,1
251 798 m 256,126,127
 193 798 193 798 140 815 c 128,-1,128
 87 832 87 832 46.5 866 c 128,-1,129
 6 900 6 900 -18.5 951.5 c 128,-1,130
 -43 1003 -43 1003 -43 1072 c 0,131,132
 -43 1142 -43 1142 -10.5 1202.5 c 128,-1,133
 22 1263 22 1263 80.5 1307 c 128,-1,134
 139 1351 139 1351 221 1376.5 c 128,-1,135
 303 1402 303 1402 402 1402 c 0,136,137
 450 1402 450 1402 492.5 1397 c 128,-1,138
 535 1392 535 1392 579 1380.5 c 128,-1,139
 623 1369 623 1369 672.5 1350 c 128,-1,140
 722 1331 722 1331 784 1303 c 0,141,142
 807 1292 807 1292 834 1279.5 c 128,-1,143
 861 1267 861 1267 890.5 1256 c 128,-1,144
 920 1245 920 1245 950 1238 c 128,-1,145
 980 1231 980 1231 1009 1231 c 0,146,147
 1044 1231 1044 1231 1083 1245 c 128,-1,148
 1122 1259 1122 1259 1148 1282 c 2,149,-1
 1155 1288 l 1,150,151
 1166 1299 1166 1299 1173 1299 c 0,152,153
 1178 1299 1178 1299 1180.5 1294.5 c 128,-1,154
 1183 1290 1183 1290 1183 1288 c 0,155,156
 1183 1273 1183 1273 1168.5 1259 c 128,-1,157
 1154 1245 1154 1245 1131.5 1232.5 c 128,-1,158
 1109 1220 1109 1220 1081 1209 c 128,-1,159
 1053 1198 1053 1198 1026 1190.5 c 128,-1,160
 999 1183 999 1183 975.5 1178.5 c 128,-1,161
 952 1174 952 1174 939 1174 c 0,162,163
 907 1174 907 1174 870.5 1180 c 128,-1,164
 834 1186 834 1186 796.5 1196.5 c 128,-1,165
 759 1207 759 1207 722.5 1222 c 128,-1,166
 686 1237 686 1237 655 1255 c 1,167,-1
 656 1255 l 1,168,169
 597 1288 597 1288 554 1308.5 c 128,-1,170
 511 1329 511 1329 476.5 1340 c 128,-1,171
 442 1351 442 1351 412.5 1354.5 c 128,-1,172
 383 1358 383 1358 353 1358 c 0,173,174
 280 1358 280 1358 215 1336 c 128,-1,175
 150 1314 150 1314 101 1275 c 128,-1,176
 52 1236 52 1236 23 1182.5 c 128,-1,177
 -6 1129 -6 1129 -6 1066 c 0,178,179
 -6 1014 -6 1014 12 970.5 c 128,-1,180
 30 927 30 927 63 895 c 128,-1,181
 96 863 96 863 142.5 845 c 128,-1,182
 189 827 189 827 246 827 c 0,183,184
 296 827 296 827 346.5 843.5 c 128,-1,185
 397 860 397 860 437 890.5 c 128,-1,186
 477 921 477 921 502 964.5 c 128,-1,187
 527 1008 527 1008 527 1062 c 0,188,189
 527 1081 527 1081 520 1096.5 c 128,-1,190
 513 1112 513 1112 502 1124 c 1,191,192
 494 1116 494 1116 485 1111 c 128,-1,193
 476 1106 476 1106 465 1106 c 0,194,195
 445 1106 445 1106 429.5 1119 c 128,-1,196
 414 1132 414 1132 414 1154 c 0,197,198
 414 1171 414 1171 426.5 1185.5 c 128,-1,199
 439 1200 439 1200 465 1200 c 0,200,201
 484 1200 484 1200 501.5 1190.5 c 128,-1,202
 519 1181 519 1181 532.5 1163.5 c 128,-1,203
 546 1146 546 1146 554.5 1121.5 c 128,-1,204
 563 1097 563 1097 563 1066 c 0,205,206
 563 1006 563 1006 536 956.5 c 128,-1,207
 509 907 509 907 465 871.5 c 128,-1,208
 421 836 421 836 365 817 c 128,-1,209
 309 798 309 798 251 798 c 256,126,127
EndSplineSet
EndChar

StartChar: O
Encoding: 79 79 45
Width: 1247
Flags: W
LayerCount: 2
Fore
SplineSet
115 233 m 0,0,1
 115 188 115 188 128.5 149.5 c 128,-1,2
 142 111 142 111 168.5 83.5 c 128,-1,3
 195 56 195 56 235 40.5 c 128,-1,4
 275 25 275 25 329 25 c 0,5,6
 417 25 417 25 516 64 c 128,-1,7
 615 103 615 103 712.5 170 c 128,-1,8
 810 237 810 237 898.5 325 c 128,-1,9
 987 413 987 413 1055 511 c 128,-1,10
 1123 609 1123 609 1163 711 c 128,-1,11
 1203 813 1203 813 1203 908 c 0,12,13
 1203 993 1203 993 1159 1032 c 128,-1,14
 1115 1071 1115 1071 1039 1071 c 0,15,16
 977 1071 977 1071 910.5 1045.5 c 128,-1,17
 844 1020 844 1020 780.5 974.5 c 128,-1,18
 717 929 717 929 660 866 c 128,-1,19
 603 803 603 803 560 727 c 128,-1,20
 517 651 517 651 492 565.5 c 128,-1,21
 467 480 467 480 467 389 c 0,22,23
 467 370 467 370 469 347 c 128,-1,24
 471 324 471 324 476 300.5 c 128,-1,25
 481 277 481 277 489.5 254.5 c 128,-1,26
 498 232 498 232 510 214 c 0,27,28
 512 211 512 211 513.5 207.5 c 128,-1,29
 515 204 515 204 515 201 c 0,30,31
 515 199 515 199 513 194.5 c 128,-1,32
 511 190 511 190 506 190 c 0,33,34
 497 190 497 190 484 208 c 128,-1,35
 471 226 471 226 459.5 255 c 128,-1,36
 448 284 448 284 440 322 c 128,-1,37
 432 360 432 360 432 401 c 0,38,39
 432 495 432 495 456.5 583.5 c 128,-1,40
 481 672 481 672 524.5 750 c 128,-1,41
 568 828 568 828 627 893.5 c 128,-1,42
 686 959 686 959 754.5 1005.5 c 128,-1,43
 823 1052 823 1052 898 1078 c 128,-1,44
 973 1104 973 1104 1049 1104 c 0,45,46
 1089 1104 1089 1104 1127 1091 c 128,-1,47
 1165 1078 1165 1078 1193.5 1051 c 128,-1,48
 1222 1024 1222 1024 1239.5 982.5 c 128,-1,49
 1257 941 1257 941 1257 884 c 0,50,51
 1257 790 1257 790 1218.5 688 c 128,-1,52
 1180 586 1180 586 1113 487.5 c 128,-1,53
 1046 389 1046 389 955.5 299.5 c 128,-1,54
 865 210 865 210 760.5 142.5 c 128,-1,55
 656 75 656 75 542.5 35 c 128,-1,56
 429 -5 429 -5 317 -5 c 0,57,58
 259 -5 259 -5 208 13 c 128,-1,59
 157 31 157 31 119 68.5 c 128,-1,60
 81 106 81 106 59 162.5 c 128,-1,61
 37 219 37 219 37 296 c 0,62,63
 37 388 37 388 65 483.5 c 128,-1,64
 93 579 93 579 144 672 c 128,-1,65
 195 765 195 765 265.5 854 c 128,-1,66
 336 943 336 943 420.5 1021.5 c 128,-1,67
 505 1100 505 1100 601 1165.5 c 128,-1,68
 697 1231 697 1231 799 1278.5 c 128,-1,69
 901 1326 901 1326 1005.5 1352.5 c 128,-1,70
 1110 1379 1110 1379 1212 1379 c 0,71,72
 1282 1379 1282 1379 1332.5 1363.5 c 128,-1,73
 1383 1348 1383 1348 1416 1320 c 128,-1,74
 1449 1292 1449 1292 1464.5 1253.5 c 128,-1,75
 1480 1215 1480 1215 1480 1169 c 0,76,77
 1480 1151 1480 1151 1476 1127.5 c 128,-1,78
 1472 1104 1472 1104 1466 1081 c 128,-1,79
 1460 1058 1460 1058 1452 1038.5 c 128,-1,80
 1444 1019 1444 1019 1436 1007 c 1,81,-1
 1429 999 l 2,82,83
 1424 993 1424 993 1418.5 988 c 128,-1,84
 1413 983 1413 983 1408 983 c 0,85,86
 1397 983 1397 983 1397 996 c 1,87,88
 1397 994 1397 994 1405 1008.5 c 128,-1,89
 1413 1023 1413 1023 1422 1047 c 128,-1,90
 1431 1071 1431 1071 1439 1102.5 c 128,-1,91
 1447 1134 1447 1134 1447 1167 c 0,92,93
 1447 1207 1447 1207 1432.5 1239.5 c 128,-1,94
 1418 1272 1418 1272 1388 1295.5 c 128,-1,95
 1358 1319 1358 1319 1311.5 1332 c 128,-1,96
 1265 1345 1265 1345 1201 1345 c 0,97,98
 1121 1345 1121 1345 1032 1313.5 c 128,-1,99
 943 1282 943 1282 852 1227.5 c 128,-1,100
 761 1173 761 1173 671 1098.5 c 128,-1,101
 581 1024 581 1024 499 938.5 c 128,-1,102
 417 853 417 853 346.5 760 c 128,-1,103
 276 667 276 667 224.5 575 c 128,-1,104
 173 483 173 483 144 395.5 c 128,-1,105
 115 308 115 308 115 233 c 0,0,1
EndSplineSet
EndChar

StartChar: P
Encoding: 80 80 46
Width: 1253
Flags: W
LayerCount: 2
Fore
SplineSet
-13 -5 m 0,0,1
 -68 -5 -68 -5 -108 5.5 c 128,-1,2
 -148 16 -148 16 -174 35 c 128,-1,3
 -200 54 -200 54 -212.5 78.5 c 128,-1,4
 -225 103 -225 103 -225 132 c 0,5,6
 -225 154 -225 154 -216 170.5 c 128,-1,7
 -207 187 -207 187 -193 197 c 128,-1,8
 -179 207 -179 207 -162 212 c 128,-1,9
 -145 217 -145 217 -130 217 c 0,10,11
 -114 217 -114 217 -96 205.5 c 128,-1,12
 -78 194 -78 194 -78 169 c 0,13,14
 -78 148 -78 148 -96 132.5 c 128,-1,15
 -114 117 -114 117 -137 117 c 0,16,17
 -148 117 -148 117 -159 118.5 c 128,-1,18
 -170 120 -170 120 -180 125 c 1,19,-1
 -180 124 l 2,20,21
 -180 82 -180 82 -139.5 55.5 c 128,-1,22
 -99 29 -99 29 -27 29 c 0,23,24
 15 29 15 29 53.5 37.5 c 128,-1,25
 92 46 92 46 132.5 69 c 128,-1,26
 173 92 173 92 219.5 133 c 128,-1,27
 266 174 266 174 323 239 c 128,-1,28
 380 304 380 304 451 396 c 128,-1,29
 522 488 522 488 613 614 c 1,30,31
 560 652 560 652 560 701 c 0,32,33
 560 723 560 723 571 742.5 c 128,-1,34
 582 762 582 762 599.5 776 c 128,-1,35
 617 790 617 790 638.5 798 c 128,-1,36
 660 806 660 806 682 806 c 0,37,38
 699 806 699 806 703.5 801 c 128,-1,39
 708 796 708 796 710 793 c 1,40,41
 710 791 710 791 707.5 787.5 c 128,-1,42
 705 784 705 784 694 782 c 0,43,44
 649 774 649 774 627.5 747 c 128,-1,45
 606 720 606 720 606 683 c 0,46,47
 606 662 606 662 634 643 c 1,48,-1
 646 659 l 2,49,50
 725 765 725 765 799 853 c 128,-1,51
 873 941 873 941 945 1014.5 c 128,-1,52
 1017 1088 1017 1088 1090 1149.5 c 128,-1,53
 1163 1211 1163 1211 1240 1265 c 1,54,-1
 1277 1290 l 1,55,56
 1220 1322 1220 1322 1135 1339.5 c 128,-1,57
 1050 1357 1050 1357 932 1357 c 0,58,59
 808 1357 808 1357 692 1332.5 c 128,-1,60
 576 1308 576 1308 474 1266.5 c 128,-1,61
 372 1225 372 1225 288 1169 c 128,-1,62
 204 1113 204 1113 143.5 1050 c 128,-1,63
 83 987 83 987 49.5 919.5 c 128,-1,64
 16 852 16 852 16 788 c 0,65,66
 16 747 16 747 28.5 719 c 128,-1,67
 41 691 41 691 60.5 673.5 c 128,-1,68
 80 656 80 656 103.5 648 c 128,-1,69
 127 640 127 640 148 640 c 0,70,71
 206 640 206 640 266 671.5 c 128,-1,72
 326 703 326 703 381.5 752.5 c 128,-1,73
 437 802 437 802 486.5 863.5 c 128,-1,74
 536 925 536 925 573.5 985.5 c 128,-1,75
 611 1046 611 1046 634.5 1099.5 c 128,-1,76
 658 1153 658 1153 662 1186 c 0,77,78
 664 1207 664 1207 668 1215 c 128,-1,79
 672 1223 672 1223 679 1223 c 0,80,81
 690 1223 690 1223 691 1211.5 c 128,-1,82
 692 1200 692 1200 692 1175 c 0,83,84
 692 1118 692 1118 675 1054 c 128,-1,85
 658 990 658 990 625 927 c 128,-1,86
 592 864 592 864 544.5 806.5 c 128,-1,87
 497 749 497 749 436 705 c 128,-1,88
 375 661 375 661 301.5 635 c 128,-1,89
 228 609 228 609 144 609 c 0,90,91
 114 609 114 609 85 621.5 c 128,-1,92
 56 634 56 634 32.5 657.5 c 128,-1,93
 9 681 9 681 -5.5 713.5 c 128,-1,94
 -20 746 -20 746 -20 786 c 0,95,96
 -20 866 -20 866 19 941 c 128,-1,97
 58 1016 58 1016 126 1082.5 c 128,-1,98
 194 1149 194 1149 286 1204.5 c 128,-1,99
 378 1260 378 1260 483.5 1300 c 128,-1,100
 589 1340 589 1340 703 1362 c 128,-1,101
 817 1384 817 1384 930 1384 c 0,102,103
 1055 1384 1055 1384 1149.5 1365 c 128,-1,104
 1244 1346 1244 1346 1316 1312 c 1,105,106
 1376 1346 1376 1346 1423 1362 c 128,-1,107
 1470 1378 1470 1378 1493 1378 c 0,108,109
 1502 1378 1502 1378 1508.5 1376.5 c 128,-1,110
 1515 1375 1515 1375 1516 1365 c 0,111,112
 1516 1357 1516 1357 1510.5 1353 c 128,-1,113
 1505 1349 1505 1349 1488 1347 c 1,114,115
 1458 1340 1458 1340 1426.5 1325 c 128,-1,116
 1395 1310 1395 1310 1361 1288 c 1,117,118
 1437 1240 1437 1240 1474.5 1175.5 c 128,-1,119
 1512 1111 1512 1111 1512 1036 c 0,120,121
 1512 974 1512 974 1487 914.5 c 128,-1,122
 1462 855 1462 855 1418.5 801.5 c 128,-1,123
 1375 748 1375 748 1314.5 703 c 128,-1,124
 1254 658 1254 658 1183.5 625 c 128,-1,125
 1113 592 1113 592 1034.5 573.5 c 128,-1,126
 956 555 956 555 875 555 c 0,127,128
 798 555 798 555 731 569 c 1,129,130
 612 411 612 411 507 301.5 c 128,-1,131
 402 192 402 192 309.5 124 c 128,-1,132
 217 56 217 56 136.5 25.5 c 128,-1,133
 56 -5 56 -5 -13 -5 c 0,0,1
754 598 m 1,134,135
 781 593 781 593 810.5 590 c 128,-1,136
 840 587 840 587 870 587 c 0,137,138
 922 587 922 587 981 601.5 c 128,-1,139
 1040 616 1040 616 1097.5 645 c 128,-1,140
 1155 674 1155 674 1207.5 717 c 128,-1,141
 1260 760 1260 760 1300 817 c 128,-1,142
 1340 874 1340 874 1364 944.5 c 128,-1,143
 1388 1015 1388 1015 1388 1100 c 0,144,145
 1388 1197 1388 1197 1320 1259 c 1,146,147
 1265 1217 1265 1217 1206.5 1159.5 c 128,-1,148
 1148 1102 1148 1102 1087.5 1033 c 128,-1,149
 1027 964 1027 964 965.5 885.5 c 128,-1,150
 904 807 904 807 843 723 c 2,151,-1
 754 598 l 1,134,135
EndSplineSet
EndChar

StartChar: Q
Encoding: 81 81 47
Width: 1389
Flags: W
LayerCount: 2
Fore
SplineSet
151 -2 m 0,0,1
 68 -2 68 -2 9.5 7.5 c 128,-1,2
 -49 17 -49 17 -86.5 32 c 128,-1,3
 -124 47 -124 47 -141 65.5 c 128,-1,4
 -158 84 -158 84 -158 102 c 0,5,6
 -158 118 -158 118 -141.5 134 c 128,-1,7
 -125 150 -125 150 -96.5 163 c 128,-1,8
 -68 176 -68 176 -29.5 184 c 128,-1,9
 9 192 9 192 54 192 c 0,10,11
 102 192 102 192 157 185.5 c 128,-1,12
 212 179 212 179 270 168 c 128,-1,13
 328 157 328 157 387.5 141 c 128,-1,14
 447 125 447 125 504 106 c 1,15,16
 546 123 546 123 585 144 c 128,-1,17
 624 165 624 165 664 188 c 0,18,19
 742 233 742 233 823.5 297 c 128,-1,20
 905 361 905 361 981.5 437 c 128,-1,21
 1058 513 1058 513 1125.5 598 c 128,-1,22
 1193 683 1193 683 1243.5 769.5 c 128,-1,23
 1294 856 1294 856 1323.5 940.5 c 128,-1,24
 1353 1025 1353 1025 1353 1101 c 0,25,26
 1353 1217 1353 1217 1286 1283.5 c 128,-1,27
 1219 1350 1219 1350 1076 1350 c 0,28,29
 1041 1350 1041 1350 1004 1342.5 c 128,-1,30
 967 1335 967 1335 929.5 1322 c 128,-1,31
 892 1309 892 1309 855 1292 c 128,-1,32
 818 1275 818 1275 784 1256 c 1,33,34
 726 1220 726 1220 667.5 1170 c 128,-1,35
 609 1120 609 1120 555 1063.5 c 128,-1,36
 501 1007 501 1007 454 947.5 c 128,-1,37
 407 888 407 888 372.5 832 c 128,-1,38
 338 776 338 776 318 727 c 128,-1,39
 298 678 298 678 298 644 c 0,40,41
 298 617 298 617 305.5 590.5 c 128,-1,42
 313 564 313 564 331.5 542.5 c 128,-1,43
 350 521 350 521 382 508 c 128,-1,44
 414 495 414 495 463 495 c 256,45,46
 512 495 512 495 571 523 c 128,-1,47
 630 551 630 551 690.5 598 c 128,-1,48
 751 645 751 645 809.5 707.5 c 128,-1,49
 868 770 868 770 917 839 c 128,-1,50
 966 908 966 908 1000.5 979.5 c 128,-1,51
 1035 1051 1035 1051 1048 1117 c 1,52,-1
 1048 1116 l 1,53,54
 1051 1137 1051 1137 1053.5 1142.5 c 128,-1,55
 1056 1148 1056 1148 1061 1148 c 0,56,57
 1067 1148 1067 1148 1073 1142.5 c 128,-1,58
 1079 1137 1079 1137 1079 1114 c 0,59,60
 1079 1039 1079 1039 1053 961.5 c 128,-1,61
 1027 884 1027 884 981.5 811.5 c 128,-1,62
 936 739 936 739 875.5 676 c 128,-1,63
 815 613 815 613 746 566 c 128,-1,64
 677 519 677 519 603 492 c 128,-1,65
 529 465 529 465 458 465 c 0,66,67
 404 465 404 465 362 482 c 128,-1,68
 320 499 320 499 291.5 529 c 128,-1,69
 263 559 263 559 248.5 600.5 c 128,-1,70
 234 642 234 642 234 690 c 0,71,72
 234 753 234 753 260 825 c 128,-1,73
 286 897 286 897 338.5 971.5 c 128,-1,74
 391 1046 391 1046 471 1120 c 128,-1,75
 551 1194 551 1194 659 1261 c 0,76,77
 705 1289 705 1289 758.5 1311 c 128,-1,78
 812 1333 812 1333 868.5 1348 c 128,-1,79
 925 1363 925 1363 980.5 1371 c 128,-1,80
 1036 1379 1036 1379 1086 1379 c 0,81,82
 1152 1379 1152 1379 1211.5 1361 c 128,-1,83
 1271 1343 1271 1343 1315.5 1304 c 128,-1,84
 1360 1265 1360 1265 1386 1203 c 128,-1,85
 1412 1141 1412 1141 1412 1054 c 0,86,87
 1412 948 1412 948 1382 845.5 c 128,-1,88
 1352 743 1352 743 1297 648 c 128,-1,89
 1242 553 1242 553 1166 467 c 128,-1,90
 1090 381 1090 381 997.5 307.5 c 128,-1,91
 905 234 905 234 800 175.5 c 128,-1,92
 695 117 695 117 583 77 c 1,93,-1
 648 49 l 1,94,95
 784 -15 784 -15 889.5 -59.5 c 128,-1,96
 995 -104 995 -104 1077 -131.5 c 128,-1,97
 1159 -159 1159 -159 1220 -171.5 c 128,-1,98
 1281 -184 1281 -184 1328 -184 c 0,99,100
 1388 -184 1388 -184 1442.5 -166.5 c 128,-1,101
 1497 -149 1497 -149 1530 -126 c 1,102,103
 1545 -111 1545 -111 1554 -103 c 128,-1,104
 1563 -95 1563 -95 1568 -92 c 128,-1,105
 1573 -89 1573 -89 1575.5 -89 c 128,-1,106
 1578 -89 1578 -89 1581 -89 c 0,107,108
 1597 -89 1597 -89 1597 -103 c 0,109,110
 1597 -119 1597 -119 1567 -141 c 128,-1,111
 1537 -163 1537 -163 1491 -182.5 c 128,-1,112
 1445 -202 1445 -202 1390 -215.5 c 128,-1,113
 1335 -229 1335 -229 1285 -229 c 0,114,115
 1217 -229 1217 -229 1148 -221 c 128,-1,116
 1079 -213 1079 -213 1002 -193.5 c 128,-1,117
 925 -174 925 -174 836 -140 c 128,-1,118
 747 -106 747 -106 639 -55 c 0,119,120
 582 -28 582 -28 535 -6 c 128,-1,121
 488 16 488 16 446 35 c 1,122,123
 371 17 371 17 298.5 7.5 c 128,-1,124
 226 -2 226 -2 151 -2 c 0,0,1
-87 111 m 256,125,126
 -87 91 -87 91 -69.5 75.5 c 128,-1,127
 -52 60 -52 60 -20.5 49.5 c 128,-1,128
 11 39 11 39 54 34 c 128,-1,129
 97 29 97 29 148 29 c 0,130,131
 212 29 212 29 270.5 37.5 c 128,-1,132
 329 46 329 46 384 62 c 1,133,134
 319 90 319 90 269 108.5 c 128,-1,135
 219 127 219 127 179 138.5 c 128,-1,136
 139 150 139 150 106.5 154.5 c 128,-1,137
 74 159 74 159 44 159 c 0,138,139
 -25 159 -25 159 -56 145 c 128,-1,140
 -87 131 -87 131 -87 111 c 256,125,126
EndSplineSet
EndChar

StartChar: R
Encoding: 82 82 48
Width: 1481
Flags: W
LayerCount: 2
Fore
SplineSet
-90 -5 m 0,0,1
 -144 -5 -144 -5 -183.5 5.5 c 128,-1,2
 -223 16 -223 16 -249.5 35 c 128,-1,3
 -276 54 -276 54 -288.5 78.5 c 128,-1,4
 -301 103 -301 103 -301 132 c 0,5,6
 -301 154 -301 154 -292 170.5 c 128,-1,7
 -283 187 -283 187 -269 197 c 128,-1,8
 -255 207 -255 207 -238 212 c 128,-1,9
 -221 217 -221 217 -206 217 c 0,10,11
 -189 217 -189 217 -171.5 205.5 c 128,-1,12
 -154 194 -154 194 -154 169 c 0,13,14
 -154 148 -154 148 -171.5 132.5 c 128,-1,15
 -189 117 -189 117 -212 117 c 0,16,17
 -224 117 -224 117 -235 118.5 c 128,-1,18
 -246 120 -246 120 -256 125 c 1,19,-1
 -256 124 l 2,20,21
 -256 82 -256 82 -215 55.5 c 128,-1,22
 -174 29 -174 29 -102 29 c 0,23,24
 -60 29 -60 29 -19 41.5 c 128,-1,25
 22 54 22 54 66.5 82 c 128,-1,26
 111 110 111 110 160.5 156 c 128,-1,27
 210 202 210 202 269.5 270 c 128,-1,28
 329 338 329 338 400 429 c 128,-1,29
 471 520 471 520 559 638 c 0,30,31
 711 844 711 844 875 994.5 c 128,-1,32
 1039 1145 1039 1145 1199 1251 c 1,33,-1
 1230 1269 l 1,34,35
 1170 1307 1170 1307 1083.5 1326 c 128,-1,36
 997 1345 997 1345 888 1345 c 0,37,38
 775 1345 775 1345 669.5 1320 c 128,-1,39
 564 1295 564 1295 471 1252.5 c 128,-1,40
 378 1210 378 1210 301 1153 c 128,-1,41
 224 1096 224 1096 168.5 1033 c 128,-1,42
 113 970 113 970 82.5 904.5 c 128,-1,43
 52 839 52 839 52 778 c 0,44,45
 52 736 52 736 67 707.5 c 128,-1,46
 82 679 82 679 104.5 661.5 c 128,-1,47
 127 644 127 644 153.5 637 c 128,-1,48
 180 630 180 630 203 630 c 0,49,50
 262 630 262 630 321.5 661.5 c 128,-1,51
 381 693 381 693 437 743 c 128,-1,52
 493 793 493 793 542 855 c 128,-1,53
 591 917 591 917 628.5 978.5 c 128,-1,54
 666 1040 666 1040 689.5 1094 c 128,-1,55
 713 1148 713 1148 717 1182 c 1,56,57
 721 1202 721 1202 724 1210 c 128,-1,58
 727 1218 727 1218 735 1218 c 0,59,60
 746 1218 746 1218 747 1206.5 c 128,-1,61
 748 1195 748 1195 748 1171 c 0,62,63
 748 1113 748 1113 731 1048 c 128,-1,64
 714 983 714 983 681 919 c 128,-1,65
 648 855 648 855 600.5 797 c 128,-1,66
 553 739 553 739 492 695 c 128,-1,67
 431 651 431 651 357.5 624.5 c 128,-1,68
 284 598 284 598 200 598 c 0,69,70
 165 598 165 598 131.5 611 c 128,-1,71
 98 624 98 624 72 647 c 128,-1,72
 46 670 46 670 29.5 703 c 128,-1,73
 13 736 13 736 13 777 c 0,74,75
 13 858 13 858 50.5 934 c 128,-1,76
 88 1010 88 1010 153 1077 c 128,-1,77
 218 1144 218 1144 305 1199.5 c 128,-1,78
 392 1255 392 1255 491 1295 c 128,-1,79
 590 1335 590 1335 695.5 1357 c 128,-1,80
 801 1379 801 1379 903 1379 c 0,81,82
 1130 1379 1130 1379 1269 1290 c 1,83,84
 1344 1328 1344 1328 1399 1345.5 c 128,-1,85
 1454 1363 1454 1363 1483 1363 c 0,86,87
 1491 1363 1491 1363 1497.5 1361.5 c 128,-1,88
 1504 1360 1504 1360 1505 1350 c 0,89,90
 1505 1343 1505 1343 1498.5 1338.5 c 128,-1,91
 1492 1334 1492 1334 1475 1331 c 1,92,-1
 1476 1331 l 1,93,94
 1438 1323 1438 1323 1397 1305.5 c 128,-1,95
 1356 1288 1356 1288 1311 1260 c 1,96,97
 1365 1215 1365 1215 1395 1156 c 128,-1,98
 1425 1097 1425 1097 1428 1024 c 1,99,100
 1428 962 1428 962 1400 900 c 128,-1,101
 1372 838 1372 838 1320 783 c 128,-1,102
 1268 728 1268 728 1193.5 683 c 128,-1,103
 1119 638 1119 638 1027 610 c 1,104,105
 1055 578 1055 578 1055 521 c 0,106,107
 1055 489 1055 489 1047.5 457.5 c 128,-1,108
 1040 426 1040 426 1018.5 388 c 128,-1,109
 997 350 997 350 957.5 302.5 c 128,-1,110
 918 255 918 255 855 192 c 1,111,112
 823 165 823 165 811.5 141.5 c 128,-1,113
 800 118 800 118 800 100 c 0,114,115
 800 85 800 85 804.5 72.5 c 128,-1,116
 809 60 809 60 820.5 50 c 128,-1,117
 832 40 832 40 851 34.5 c 128,-1,118
 870 29 870 29 900 29 c 0,119,120
 957 29 957 29 1020.5 64 c 128,-1,121
 1084 99 1084 99 1144 159 c 128,-1,122
 1204 219 1204 219 1256 300 c 128,-1,123
 1308 381 1308 381 1341 473 c 1,124,125
 1344 485 1344 485 1348 494.5 c 128,-1,126
 1352 504 1352 504 1357 504 c 0,127,128
 1378 504 1378 504 1378 473 c 0,129,130
 1378 416 1378 416 1355.5 358 c 128,-1,131
 1333 300 1333 300 1295.5 247 c 128,-1,132
 1258 194 1258 194 1209 148 c 128,-1,133
 1160 102 1160 102 1106.5 68 c 128,-1,134
 1053 34 1053 34 998.5 14.5 c 128,-1,135
 944 -5 944 -5 896 -5 c 0,136,137
 809 -5 809 -5 767 32.5 c 128,-1,138
 725 70 725 70 725 130 c 0,139,140
 725 182 725 182 740.5 226.5 c 128,-1,141
 756 271 756 271 780.5 310 c 128,-1,142
 805 349 805 349 835.5 383 c 128,-1,143
 866 417 866 417 896 447 c 1,144,145
 922 469 922 469 938 486.5 c 128,-1,146
 954 504 954 504 962.5 518.5 c 128,-1,147
 971 533 971 533 973.5 545.5 c 128,-1,148
 976 558 976 558 976 572 c 0,149,150
 976 584 976 584 970 595 c 1,151,152
 947 590 947 590 924.5 587.5 c 128,-1,153
 902 585 902 585 884 585 c 0,154,155
 840 585 840 585 816.5 596.5 c 128,-1,156
 793 608 793 608 793 625 c 0,157,158
 793 638 793 638 812 650.5 c 128,-1,159
 831 663 831 663 871 663 c 0,160,161
 904 663 904 663 934.5 657.5 c 128,-1,162
 965 652 965 652 990 638 c 1,163,164
 1056 667 1056 667 1118 721.5 c 128,-1,165
 1180 776 1180 776 1228 842 c 128,-1,166
 1276 908 1276 908 1305 977.5 c 128,-1,167
 1334 1047 1334 1047 1334 1107 c 1,168,169
 1329 1183 1329 1183 1273 1235 c 1,170,171
 1155 1154 1155 1154 1029 1019 c 128,-1,172
 903 884 903 884 778 701 c 1,173,174
 634 500 634 500 510.5 365 c 128,-1,175
 387 230 387 230 280 147.5 c 128,-1,176
 173 65 173 65 81.5 30 c 128,-1,177
 -10 -5 -10 -5 -90 -5 c 0,0,1
835 627 m 0,178,179
 835 622 835 622 846 617.5 c 128,-1,180
 857 613 857 613 878 613 c 0,181,182
 905 613 905 613 942 621 c 1,183,184
 915 633 915 633 871 633 c 0,185,186
 835 633 835 633 835 627 c 0,178,179
EndSplineSet
EndChar

StartChar: S
Encoding: 83 83 49
Width: 1141
Flags: W
LayerCount: 2
Fore
SplineSet
96 24 m 0,0,1
 157 24 157 24 210.5 43 c 128,-1,2
 264 62 264 62 312 96 c 128,-1,3
 360 130 360 130 403 176.5 c 128,-1,4
 446 223 446 223 486 278 c 128,-1,5
 526 333 526 333 564.5 393.5 c 128,-1,6
 603 454 603 454 641 516 c 2,7,-1
 704 618 l 2,8,9
 708 625 708 625 712 631.5 c 128,-1,10
 716 638 716 638 721 645 c 1,11,12
 607 650 607 650 510.5 676 c 128,-1,13
 414 702 414 702 343.5 745 c 128,-1,14
 273 788 273 788 233 845.5 c 128,-1,15
 193 903 193 903 193 971 c 1,16,17
 198 1029 198 1029 227 1081.5 c 128,-1,18
 256 1134 256 1134 303.5 1179.5 c 128,-1,19
 351 1225 351 1225 415 1261.5 c 128,-1,20
 479 1298 479 1298 554.5 1324.5 c 128,-1,21
 630 1351 630 1351 715 1365 c 128,-1,22
 800 1379 800 1379 889 1379 c 0,23,24
 926 1379 926 1379 959.5 1375 c 128,-1,25
 993 1371 993 1371 1018.5 1364.5 c 128,-1,26
 1044 1358 1044 1358 1059 1350 c 128,-1,27
 1074 1342 1074 1342 1074 1335 c 0,28,29
 1074 1330 1074 1330 1073.5 1329.5 c 128,-1,30
 1073 1329 1073 1329 1068 1329 c 0,31,32
 1060 1329 1060 1329 1054.5 1329.5 c 128,-1,33
 1049 1330 1049 1330 1043 1331 c 1,34,35
 1011 1342 1011 1342 973 1346.5 c 128,-1,36
 935 1351 935 1351 888 1351 c 0,37,38
 812 1351 812 1351 736.5 1337.5 c 128,-1,39
 661 1324 661 1324 592 1299 c 128,-1,40
 523 1274 523 1274 463 1238 c 128,-1,41
 403 1202 403 1202 358.5 1156.5 c 128,-1,42
 314 1111 314 1111 289 1057.5 c 128,-1,43
 264 1004 264 1004 264 943 c 0,44,45
 264 900 264 900 293 854.5 c 128,-1,46
 322 809 322 809 381.5 770.5 c 128,-1,47
 441 732 441 732 530.5 706 c 128,-1,48
 620 680 620 680 741 676 c 1,49,50
 970 1036 970 1036 1170 1207.5 c 128,-1,51
 1370 1379 1370 1379 1547 1379 c 0,52,53
 1604 1379 1604 1379 1638.5 1344 c 128,-1,54
 1673 1309 1673 1309 1674 1254 c 1,55,56
 1669 1204 1669 1204 1638.5 1143.5 c 128,-1,57
 1608 1083 1608 1083 1556 1021 c 128,-1,58
 1504 959 1504 959 1433.5 898.5 c 128,-1,59
 1363 838 1363 838 1277.5 788 c 128,-1,60
 1192 738 1192 738 1094.5 702 c 128,-1,61
 997 666 997 666 892 652 c 1,62,63
 836 566 836 566 779 484 c 128,-1,64
 722 402 722 402 662.5 329 c 128,-1,65
 603 256 603 256 540.5 194.5 c 128,-1,66
 478 133 478 133 410 89 c 128,-1,67
 342 45 342 45 268 20 c 128,-1,68
 194 -5 194 -5 112 -5 c 0,69,70
 58 -5 58 -5 15 5.5 c 128,-1,71
 -28 16 -28 16 -57 35 c 128,-1,72
 -86 54 -86 54 -101.5 78.5 c 128,-1,73
 -117 103 -117 103 -117 132 c 0,74,75
 -117 154 -117 154 -108 170.5 c 128,-1,76
 -99 187 -99 187 -85 197 c 128,-1,77
 -71 207 -71 207 -54.5 212 c 128,-1,78
 -38 217 -38 217 -22 217 c 0,79,80
 -5 217 -5 217 12.5 205.5 c 128,-1,81
 30 194 30 194 30 169 c 0,82,83
 30 148 30 148 12.5 132.5 c 128,-1,84
 -5 117 -5 117 -29 117 c 0,85,86
 -40 117 -40 117 -51 118.5 c 128,-1,87
 -62 120 -62 120 -72 125 c 1,88,-1
 -72 124 l 2,89,90
 -72 103 -72 103 -59 85 c 128,-1,91
 -46 67 -46 67 -23.5 53.5 c 128,-1,92
 -1 40 -1 40 30 32 c 128,-1,93
 61 24 61 24 96 24 c 0,0,1
915 688 m 1,94,95
 1010 704 1010 704 1099 740 c 128,-1,96
 1188 776 1188 776 1265.5 824.5 c 128,-1,97
 1343 873 1343 873 1407.5 930.5 c 128,-1,98
 1472 988 1472 988 1518 1047.5 c 128,-1,99
 1564 1107 1564 1107 1589.5 1164 c 128,-1,100
 1615 1221 1615 1221 1615 1269 c 0,101,102
 1615 1290 1615 1290 1608.5 1305.5 c 128,-1,103
 1602 1321 1602 1321 1592 1330.5 c 128,-1,104
 1582 1340 1582 1340 1569.5 1344.5 c 128,-1,105
 1557 1349 1557 1349 1546 1349 c 1,106,107
 1427 1338 1427 1338 1288 1195.5 c 128,-1,108
 1149 1053 1149 1053 981 789 c 1,109,-1
 915 688 l 1,94,95
EndSplineSet
EndChar

StartChar: T
Encoding: 84 84 50
Width: 1124
Flags: W
LayerCount: 2
Fore
SplineSet
538 759 m 0,0,1
 460 759 460 759 417.5 800.5 c 128,-1,2
 375 842 375 842 375 914 c 0,3,4
 375 963 375 963 407 1020.5 c 128,-1,5
 439 1078 439 1078 496.5 1133 c 128,-1,6
 554 1188 554 1188 633 1236.5 c 128,-1,7
 712 1285 712 1285 807 1317 c 0,8,9
 842 1329 842 1329 887.5 1337.5 c 128,-1,10
 933 1346 933 1346 981.5 1352 c 128,-1,11
 1030 1358 1030 1358 1078 1360.5 c 128,-1,12
 1126 1363 1126 1363 1167 1363 c 0,13,14
 1203 1363 1203 1363 1241.5 1360 c 128,-1,15
 1280 1357 1280 1357 1316 1353 c 128,-1,16
 1352 1349 1352 1349 1384 1344 c 128,-1,17
 1416 1339 1416 1339 1439 1335 c 0,18,19
 1466 1330 1466 1330 1496.5 1326.5 c 128,-1,20
 1527 1323 1527 1323 1555.5 1320.5 c 128,-1,21
 1584 1318 1584 1318 1607.5 1316.5 c 128,-1,22
 1631 1315 1631 1315 1645 1315 c 0,23,24
 1699 1315 1699 1315 1753 1329.5 c 128,-1,25
 1807 1344 1807 1344 1854.5 1367.5 c 128,-1,26
 1902 1391 1902 1391 1939 1421.5 c 128,-1,27
 1976 1452 1976 1452 1996 1485 c 1,28,-1
 1996 1484 l 1,29,30
 2004 1498 2004 1498 2009 1500.5 c 128,-1,31
 2014 1503 2014 1503 2018 1503 c 0,32,33
 2031 1503 2031 1503 2031 1490 c 1,34,35
 2030 1484 2030 1484 2022.5 1468.5 c 128,-1,36
 2015 1453 2015 1453 1998 1433 c 0,37,38
 1960 1389 1960 1389 1902.5 1351.5 c 128,-1,39
 1845 1314 1845 1314 1774.5 1287 c 128,-1,40
 1704 1260 1704 1260 1623.5 1244.5 c 128,-1,41
 1543 1229 1543 1229 1461 1229 c 0,42,43
 1435 1229 1435 1229 1394.5 1233.5 c 128,-1,44
 1354 1238 1354 1238 1305.5 1245.5 c 128,-1,45
 1257 1253 1257 1253 1204 1261 c 128,-1,46
 1151 1269 1151 1269 1101.5 1276.5 c 128,-1,47
 1052 1284 1052 1284 1008.5 1288.5 c 128,-1,48
 965 1293 965 1293 935 1293 c 0,49,50
 876 1293 876 1293 814.5 1276 c 128,-1,51
 753 1259 753 1259 694 1230 c 128,-1,52
 635 1201 635 1201 583 1163 c 128,-1,53
 531 1125 531 1125 492 1082 c 128,-1,54
 453 1039 453 1039 430 994 c 128,-1,55
 407 949 407 949 407 907 c 0,56,57
 407 861 407 861 437 828.5 c 128,-1,58
 467 796 467 796 528 796 c 0,59,60
 564 796 564 796 606 817 c 128,-1,61
 648 838 648 838 691.5 872 c 128,-1,62
 735 906 735 906 776 949.5 c 128,-1,63
 817 993 817 993 851.5 1038 c 128,-1,64
 886 1083 886 1083 911 1125.5 c 128,-1,65
 936 1168 936 1168 946 1201 c 0,66,67
 954 1227 954 1227 961 1227 c 0,68,69
 967 1227 967 1227 970.5 1222 c 128,-1,70
 974 1217 974 1217 974 1200 c 0,71,72
 974 1145 974 1145 955 1090.5 c 128,-1,73
 936 1036 936 1036 903 987 c 128,-1,74
 870 938 870 938 826.5 896.5 c 128,-1,75
 783 855 783 855 734.5 824.5 c 128,-1,76
 686 794 686 794 635.5 776.5 c 128,-1,77
 585 759 585 759 538 759 c 0,0,1
7 -5 m 0,78,79
 -44 -5 -44 -5 -90.5 6.5 c 128,-1,80
 -137 18 -137 18 -172.5 39.5 c 128,-1,81
 -208 61 -208 61 -229 92 c 128,-1,82
 -250 123 -250 123 -250 162 c 0,83,84
 -250 185 -250 185 -241 201 c 128,-1,85
 -232 217 -232 217 -218.5 227.5 c 128,-1,86
 -205 238 -205 238 -188 242.5 c 128,-1,87
 -171 247 -171 247 -156 247 c 0,88,89
 -139 247 -139 247 -121 236 c 128,-1,90
 -103 225 -103 225 -103 199 c 0,91,92
 -103 179 -103 179 -120.5 163 c 128,-1,93
 -138 147 -138 147 -161 147 c 0,94,95
 -173 147 -173 147 -184 148.5 c 128,-1,96
 -195 150 -195 150 -205 155 c 1,97,98
 -205 123 -205 123 -188 99 c 128,-1,99
 -171 75 -171 75 -141.5 59.5 c 128,-1,100
 -112 44 -112 44 -72 36.5 c 128,-1,101
 -32 29 -32 29 15 29 c 0,102,103
 88 29 88 29 166 56 c 128,-1,104
 244 83 244 83 322 137.5 c 128,-1,105
 400 192 400 192 476 274 c 128,-1,106
 552 356 552 356 622 466 c 1,107,108
 689 568 689 568 763.5 659.5 c 128,-1,109
 838 751 838 751 911.5 829 c 128,-1,110
 985 907 985 907 1053.5 970 c 128,-1,111
 1122 1033 1122 1033 1177 1077 c 128,-1,112
 1232 1121 1232 1121 1269.5 1145 c 128,-1,113
 1307 1169 1307 1169 1319 1169 c 0,114,115
 1336 1169 1336 1169 1336 1157 c 0,116,117
 1336 1149 1336 1149 1331 1144 c 128,-1,118
 1326 1139 1326 1139 1316 1132 c 0,119,120
 1283 1110 1283 1110 1256.5 1090 c 128,-1,121
 1230 1070 1230 1070 1205.5 1047 c 128,-1,122
 1181 1024 1181 1024 1156.5 995.5 c 128,-1,123
 1132 967 1132 967 1103 927.5 c 128,-1,124
 1074 888 1074 888 1038.5 835 c 128,-1,125
 1003 782 1003 782 957 711 c 0,126,127
 828 512 828 512 703.5 375.5 c 128,-1,128
 579 239 579 239 460 154.5 c 128,-1,129
 341 70 341 70 227.5 32.5 c 128,-1,130
 114 -5 114 -5 7 -5 c 0,78,79
EndSplineSet
EndChar

StartChar: U
Encoding: 85 85 51
Width: 1204
Flags: W
LayerCount: 2
Fore
SplineSet
9 88 m 2,0,1
 9 139 9 139 36 207.5 c 128,-1,2
 63 276 63 276 123 363.5 c 128,-1,3
 183 451 183 451 278.5 559 c 128,-1,4
 374 667 374 667 510 797 c 1,5,6
 609 890 609 890 674 958 c 128,-1,7
 739 1026 739 1026 776.5 1075 c 128,-1,8
 814 1124 814 1124 829 1158.5 c 128,-1,9
 844 1193 844 1193 844 1220 c 0,10,11
 844 1288 844 1288 791.5 1316 c 128,-1,12
 739 1344 739 1344 648 1344 c 0,13,14
 573 1344 573 1344 498 1323.5 c 128,-1,15
 423 1303 423 1303 353.5 1268 c 128,-1,16
 284 1233 284 1233 223.5 1187.5 c 128,-1,17
 163 1142 163 1142 118.5 1093 c 128,-1,18
 74 1044 74 1044 48.5 994 c 128,-1,19
 23 944 23 944 23 900 c 0,20,21
 23 849 23 849 50.5 823.5 c 128,-1,22
 78 798 78 798 121 798 c 0,23,24
 159 798 159 798 207 819 c 128,-1,25
 255 840 255 840 306 876 c 128,-1,26
 357 912 357 912 409.5 960 c 128,-1,27
 462 1008 462 1008 508 1061 c 128,-1,28
 554 1114 554 1114 592 1169.5 c 128,-1,29
 630 1225 630 1225 653 1277 c 0,30,31
 661 1295 661 1295 665.5 1301.5 c 128,-1,32
 670 1308 670 1308 675 1308 c 0,33,34
 686 1308 686 1308 686 1287 c 0,35,36
 686 1271 686 1271 678.5 1233.5 c 128,-1,37
 671 1196 671 1196 650 1151 c 0,38,39
 608 1064 608 1064 549.5 992 c 128,-1,40
 491 920 491 920 424 869 c 128,-1,41
 357 818 357 818 285.5 790 c 128,-1,42
 214 762 214 762 146 762 c 0,43,44
 71 762 71 762 30 796.5 c 128,-1,45
 -11 831 -11 831 -11 891 c 0,46,47
 -11 943 -11 943 16.5 999 c 128,-1,48
 44 1055 44 1055 92 1109.5 c 128,-1,49
 140 1164 140 1164 205.5 1213 c 128,-1,50
 271 1262 271 1262 347 1298.5 c 128,-1,51
 423 1335 423 1335 506 1357 c 128,-1,52
 589 1379 589 1379 673 1379 c 0,53,54
 719 1379 719 1379 757.5 1369 c 128,-1,55
 796 1359 796 1359 823 1339.5 c 128,-1,56
 850 1320 850 1320 865 1290.5 c 128,-1,57
 880 1261 880 1261 880 1223 c 0,58,59
 880 1177 880 1177 860 1115 c 128,-1,60
 840 1053 840 1053 785 964.5 c 128,-1,61
 730 876 730 876 632 756.5 c 128,-1,62
 534 637 534 637 379 477 c 0,63,64
 310 406 310 406 259 352 c 128,-1,65
 208 298 208 298 171.5 257.5 c 128,-1,66
 135 217 135 217 111.5 188 c 128,-1,67
 88 159 88 159 74.5 138 c 128,-1,68
 61 117 61 117 55.5 102.5 c 128,-1,69
 50 88 50 88 50 76 c 0,70,71
 50 53 50 53 63.5 39 c 128,-1,72
 77 25 77 25 112 25 c 0,73,74
 156 25 156 25 229 55 c 128,-1,75
 302 85 302 85 391 144 c 128,-1,76
 480 203 480 203 578.5 292 c 128,-1,77
 677 381 677 381 772 498 c 0,78,79
 803 536 803 536 865.5 611.5 c 128,-1,80
 928 687 928 687 1011.5 785.5 c 128,-1,81
 1095 884 1095 884 1193.5 999 c 128,-1,82
 1292 1114 1292 1114 1395 1231 c 1,83,-1
 1544 1231 l 1,84,85
 1539 1223 1539 1223 1515 1194.5 c 128,-1,86
 1491 1166 1491 1166 1454.5 1123 c 128,-1,87
 1418 1080 1418 1080 1372 1026.5 c 128,-1,88
 1326 973 1326 973 1276.5 915 c 128,-1,89
 1227 857 1227 857 1176 799 c 128,-1,90
 1125 741 1125 741 1079 689 c 128,-1,91
 1033 637 1033 637 995 595 c 128,-1,92
 957 553 957 553 933 527 c 0,93,94
 868 459 868 459 816 396 c 128,-1,95
 764 333 764 333 727 277.5 c 128,-1,96
 690 222 690 222 670 175 c 128,-1,97
 650 128 650 128 650 92 c 256,98,99
 650 56 650 56 673 41.5 c 128,-1,100
 696 27 696 27 728 27 c 0,101,102
 758 27 758 27 795 40.5 c 128,-1,103
 832 54 832 54 870.5 76 c 128,-1,104
 909 98 909 98 945 125.5 c 128,-1,105
 981 153 981 153 1009 182 c 1,106,107
 1012 180 1012 180 1015 174.5 c 128,-1,108
 1018 169 1018 169 1019 161 c 1,109,110
 1019 152 1019 152 1015 145 c 1,111,112
 991 121 991 121 955.5 94.5 c 128,-1,113
 920 68 920 68 880 46 c 128,-1,114
 840 24 840 24 798.5 9.5 c 128,-1,115
 757 -5 757 -5 721 -5 c 0,116,117
 671 -5 671 -5 638 22 c 128,-1,118
 605 49 605 49 605 105 c 0,119,120
 605 163 605 163 622.5 212.5 c 128,-1,121
 640 262 640 262 664 303 c 1,122,123
 559 215 559 215 472 156 c 128,-1,124
 385 97 385 97 316 61 c 128,-1,125
 247 25 247 25 195.5 10 c 128,-1,126
 144 -5 144 -5 110 -5 c 0,127,128
 61 -5 61 -5 36 19 c 128,-1,129
 11 43 11 43 9 81 c 1,130,-1
 9 88 l 2,0,1
EndSplineSet
EndChar

StartChar: V
Encoding: 86 86 52
Width: 1028
Flags: W
LayerCount: 2
Fore
SplineSet
-94 -9 m 0,0,1
 -126 -29 -126 -29 -146.5 -37.5 c 128,-1,2
 -167 -46 -167 -46 -174 -46 c 0,3,4
 -179 -46 -179 -46 -184.5 -41.5 c 128,-1,5
 -190 -37 -190 -37 -190 -31 c 0,6,7
 -190 -24 -190 -24 -172 -15 c 2,8,-1
 -160 -9 l 1,9,10
 -127 5 -127 5 -82.5 53.5 c 128,-1,11
 -38 102 -38 102 16 176.5 c 128,-1,12
 70 251 70 251 132 347.5 c 128,-1,13
 194 444 194 444 262 555 c 0,14,15
 306 627 306 627 352 696 c 128,-1,16
 398 765 398 765 444 828.5 c 128,-1,17
 490 892 490 892 534.5 947.5 c 128,-1,18
 579 1003 579 1003 619 1048 c 1,19,20
 532 988 532 988 456.5 955 c 128,-1,21
 381 922 381 922 324 922 c 0,22,23
 274 922 274 922 241 948 c 128,-1,24
 208 974 208 974 208 1023 c 0,25,26
 208 1060 208 1060 231 1097 c 128,-1,27
 254 1134 254 1134 300 1182 c 0,28,29
 315 1198 315 1198 332.5 1217 c 128,-1,30
 350 1236 350 1236 365 1255.5 c 128,-1,31
 380 1275 380 1275 390 1293 c 128,-1,32
 400 1311 400 1311 400 1325 c 0,33,34
 399 1343 399 1343 389 1354.5 c 128,-1,35
 379 1366 379 1366 363 1373.5 c 128,-1,36
 347 1381 347 1381 327 1384 c 128,-1,37
 307 1387 307 1387 286 1387 c 0,38,39
 249 1387 249 1387 213 1378.5 c 128,-1,40
 177 1370 177 1370 144 1355.5 c 128,-1,41
 111 1341 111 1341 81.5 1323 c 128,-1,42
 52 1305 52 1305 28 1286 c 0,43,44
 21 1281 21 1281 13.5 1275 c 128,-1,45
 6 1269 6 1269 1 1269 c 0,46,47
 -13 1269 -13 1269 -13 1284 c 0,48,49
 -13 1293 -13 1293 -5.5 1301 c 128,-1,50
 2 1309 2 1309 11 1317 c 0,51,52
 37 1338 37 1338 70 1355.5 c 128,-1,53
 103 1373 103 1373 139.5 1386 c 128,-1,54
 176 1399 176 1399 214 1406.5 c 128,-1,55
 252 1414 252 1414 288 1414 c 0,56,57
 329 1414 329 1414 363 1406.5 c 128,-1,58
 397 1399 397 1399 421.5 1384 c 128,-1,59
 446 1369 446 1369 459.5 1346.5 c 128,-1,60
 473 1324 473 1324 473 1294 c 0,61,62
 473 1273 473 1273 464.5 1247 c 128,-1,63
 456 1221 456 1221 441 1193.5 c 128,-1,64
 426 1166 426 1166 406 1139 c 128,-1,65
 386 1112 386 1112 362 1088 c 0,66,67
 318 1043 318 1043 299.5 1022 c 128,-1,68
 281 1001 281 1001 281 987 c 0,69,70
 281 954 281 954 326 954 c 0,71,72
 356 954 356 954 400 966.5 c 128,-1,73
 444 979 444 979 505 1012 c 128,-1,74
 566 1045 566 1045 646 1104 c 128,-1,75
 726 1163 726 1163 827 1256 c 0,76,77
 838 1265 838 1265 854 1278.5 c 128,-1,78
 870 1292 870 1292 886.5 1305 c 128,-1,79
 903 1318 903 1318 918 1327 c 128,-1,80
 933 1336 933 1336 941 1336 c 0,81,82
 946 1336 946 1336 951.5 1332.5 c 128,-1,83
 957 1329 957 1329 957 1324 c 0,84,85
 957 1317 957 1317 951 1312 c 128,-1,86
 945 1307 945 1307 937 1302 c 2,87,-1
 929 1297 l 1,88,-1
 930 1298 l 1,89,90
 897 1275 897 1275 874.5 1253 c 128,-1,91
 852 1231 852 1231 832.5 1203 c 128,-1,92
 813 1175 813 1175 793 1138 c 128,-1,93
 773 1101 773 1101 744 1048.5 c 128,-1,94
 715 996 715 996 674 926 c 128,-1,95
 633 856 633 856 571 762 c 0,96,97
 494 644 494 644 427 553 c 128,-1,98
 360 462 360 462 297 387 c 128,-1,99
 234 312 234 312 173 248 c 128,-1,100
 112 184 112 184 47 121 c 1,101,102
 124 173 124 173 215.5 238 c 128,-1,103
 307 303 307 303 405.5 376 c 128,-1,104
 504 449 504 449 607 528 c 128,-1,105
 710 607 710 607 811 687 c 128,-1,106
 912 767 912 767 1008 847 c 128,-1,107
 1104 927 1104 927 1189 1002 c 1,108,109
 1188 1008 1188 1008 1188 1014 c 128,-1,110
 1188 1020 1188 1020 1188 1026 c 0,111,112
 1188 1085 1188 1085 1203 1143.5 c 128,-1,113
 1218 1202 1218 1202 1243 1256 c 128,-1,114
 1268 1310 1268 1310 1302 1356.5 c 128,-1,115
 1336 1403 1336 1403 1373.5 1437.5 c 128,-1,116
 1411 1472 1411 1472 1451 1491.5 c 128,-1,117
 1491 1511 1491 1511 1529 1511 c 0,118,119
 1562 1511 1562 1511 1584.5 1492 c 128,-1,120
 1607 1473 1607 1473 1607 1428 c 0,121,122
 1607 1343 1607 1343 1516 1224.5 c 128,-1,123
 1425 1106 1425 1106 1247 950 c 1,124,125
 1269 886 1269 886 1311.5 855 c 128,-1,126
 1354 824 1354 824 1394 824 c 0,127,128
 1414 824 1414 824 1425.5 829.5 c 128,-1,129
 1437 835 1437 835 1448 835 c 0,130,131
 1456 835 1456 835 1460.5 833.5 c 128,-1,132
 1465 832 1465 832 1465 825 c 0,133,134
 1465 816 1465 816 1446 806 c 128,-1,135
 1427 796 1427 796 1392 796 c 0,136,137
 1331 796 1331 796 1283.5 830 c 128,-1,138
 1236 864 1236 864 1211 919 c 1,139,140
 992 731 992 731 662 498 c 128,-1,141
 332 265 332 265 -94 -9 c 0,0,1
1233 1041 m 1,142,143
 1306 1108 1306 1108 1367.5 1168.5 c 128,-1,144
 1429 1229 1429 1229 1473 1280.5 c 128,-1,145
 1517 1332 1517 1332 1541.5 1372.5 c 128,-1,146
 1566 1413 1566 1413 1566 1439 c 0,147,148
 1566 1459 1566 1459 1553 1469.5 c 128,-1,149
 1540 1480 1540 1480 1529 1480 c 0,150,151
 1496 1480 1496 1480 1461 1463.5 c 128,-1,152
 1426 1447 1426 1447 1393.5 1417.5 c 128,-1,153
 1361 1388 1361 1388 1331.5 1347 c 128,-1,154
 1302 1306 1302 1306 1280.5 1257.5 c 128,-1,155
 1259 1209 1259 1209 1246 1155 c 128,-1,156
 1233 1101 1233 1101 1233 1045 c 2,157,-1
 1233 1041 l 1,142,143
EndSplineSet
EndChar

StartChar: W
Encoding: 87 87 53
Width: 1223
Flags: W
LayerCount: 2
Fore
SplineSet
-63 60 m 1,0,1
 -28 81 -28 81 10.5 106 c 128,-1,2
 49 131 49 131 93.5 164.5 c 128,-1,3
 138 198 138 198 190.5 241 c 128,-1,4
 243 284 243 284 307 340.5 c 128,-1,5
 371 397 371 397 448 470 c 128,-1,6
 525 543 525 543 619 635 c 0,7,8
 787 800 787 800 921.5 923 c 128,-1,9
 1056 1046 1056 1046 1157 1132 c 128,-1,10
 1258 1218 1258 1218 1325 1270.5 c 128,-1,11
 1392 1323 1392 1323 1425 1347 c 1,12,13
 1430 1352 1430 1352 1435 1355 c 128,-1,14
 1440 1358 1440 1358 1442 1360 c 1,15,-1
 1442 1359 l 1,16,17
 1496 1399 1496 1399 1519 1411 c 128,-1,18
 1542 1423 1542 1423 1547 1423 c 0,19,20
 1557 1423 1557 1423 1560.5 1417.5 c 128,-1,21
 1564 1412 1564 1412 1564 1407 c 0,22,23
 1564 1398 1564 1398 1552 1390 c 128,-1,24
 1540 1382 1540 1382 1506 1366 c 1,25,26
 1464 1343 1464 1343 1427.5 1306.5 c 128,-1,27
 1391 1270 1391 1270 1356 1221 c 128,-1,28
 1321 1172 1321 1172 1285.5 1112.5 c 128,-1,29
 1250 1053 1250 1053 1210 983 c 0,30,31
 1156 890 1156 890 1104 803.5 c 128,-1,32
 1052 717 1052 717 996.5 633 c 128,-1,33
 941 549 941 549 880 464 c 128,-1,34
 819 379 819 379 748 289 c 2,35,-1
 699 227 l 1,36,37
 762 293 762 293 813 345.5 c 128,-1,38
 864 398 864 398 911.5 446 c 128,-1,39
 959 494 959 494 1008 542.5 c 128,-1,40
 1057 591 1057 591 1116.5 648.5 c 128,-1,41
 1176 706 1176 706 1251 776.5 c 128,-1,42
 1326 847 1326 847 1425 941 c 0,43,44
 1539 1048 1539 1048 1640.5 1131.5 c 128,-1,45
 1742 1215 1742 1215 1834 1272 c 128,-1,46
 1926 1329 1926 1329 2008.5 1358.5 c 128,-1,47
 2091 1388 2091 1388 2166 1388 c 0,48,49
 2266 1388 2266 1388 2325 1353 c 128,-1,50
 2384 1318 2384 1318 2384 1249 c 0,51,52
 2384 1205 2384 1205 2363.5 1169.5 c 128,-1,53
 2343 1134 2343 1134 2308.5 1108 c 128,-1,54
 2274 1082 2274 1082 2228.5 1068 c 128,-1,55
 2183 1054 2183 1054 2132 1054 c 0,56,57
 2104 1054 2104 1054 2073 1061.5 c 128,-1,58
 2042 1069 2042 1069 2015.5 1082 c 128,-1,59
 1989 1095 1989 1095 1972 1111.5 c 128,-1,60
 1955 1128 1955 1128 1955 1145 c 256,61,62
 1955 1162 1955 1162 1962.5 1171 c 128,-1,63
 1970 1180 1970 1180 1982 1180 c 0,64,65
 1997 1180 1997 1180 2003 1174 c 128,-1,66
 2009 1168 2009 1168 2012 1145 c 1,67,68
 2016 1127 2016 1127 2030 1114.5 c 128,-1,69
 2044 1102 2044 1102 2062 1094 c 128,-1,70
 2080 1086 2080 1086 2098.5 1082.5 c 128,-1,71
 2117 1079 2117 1079 2130 1079 c 0,72,73
 2160 1079 2160 1079 2194 1089.5 c 128,-1,74
 2228 1100 2228 1100 2257 1121 c 128,-1,75
 2286 1142 2286 1142 2305 1173.5 c 128,-1,76
 2324 1205 2324 1205 2324 1247 c 0,77,78
 2324 1278 2324 1278 2309.5 1298 c 128,-1,79
 2295 1318 2295 1318 2271.5 1330 c 128,-1,80
 2248 1342 2248 1342 2217.5 1347 c 128,-1,81
 2187 1352 2187 1352 2155 1352 c 0,82,83
 2096 1352 2096 1352 2021 1325 c 128,-1,84
 1946 1298 1946 1298 1848 1235.5 c 128,-1,85
 1750 1173 1750 1173 1626 1071.5 c 128,-1,86
 1502 970 1502 970 1345 821 c 1,87,-1
 1292 770 l 2,88,89
 1231 711 1231 711 1169 651 c 128,-1,90
 1107 591 1107 591 1035.5 520 c 128,-1,91
 964 449 964 449 879 363 c 128,-1,92
 794 277 794 277 687 166 c 0,93,94
 633 110 633 110 583.5 69.5 c 128,-1,95
 534 29 534 29 494.5 3.5 c 128,-1,96
 455 -22 455 -22 426.5 -34 c 128,-1,97
 398 -46 398 -46 385 -46 c 0,98,99
 363 -46 363 -46 363 -27 c 0,100,101
 363 -17 363 -17 372.5 -11.5 c 128,-1,102
 382 -6 382 -6 394 -1 c 0,103,104
 418 7 418 7 436.5 15 c 128,-1,105
 455 23 455 23 471.5 36 c 128,-1,106
 488 49 488 49 504.5 69 c 128,-1,107
 521 89 521 89 542 121 c 128,-1,108
 563 153 563 153 589.5 199 c 128,-1,109
 616 245 616 245 653 311 c 0,110,111
 699 392 699 392 740 461.5 c 128,-1,112
 781 531 781 531 823.5 596.5 c 128,-1,113
 866 662 866 662 912 726.5 c 128,-1,114
 958 791 958 791 1013.5 862.5 c 128,-1,115
 1069 934 1069 934 1136.5 1016.5 c 128,-1,116
 1204 1099 1204 1099 1289 1200 c 1,117,118
 1244 1166 1244 1166 1199.5 1130 c 128,-1,119
 1155 1094 1155 1094 1107.5 1052.5 c 128,-1,120
 1060 1011 1060 1011 1009 963 c 128,-1,121
 958 915 958 915 899 856 c 0,122,123
 867 824 867 824 820 776.5 c 128,-1,124
 773 729 773 729 714.5 671 c 128,-1,125
 656 613 656 613 588.5 548.5 c 128,-1,126
 521 484 521 484 449.5 418.5 c 128,-1,127
 378 353 378 353 304.5 290 c 128,-1,128
 231 227 231 227 159.5 172 c 128,-1,129
 88 117 88 117 21.5 74 c 128,-1,130
 -45 31 -45 31 -102 6 c 1,131,-1
 -139 -11 l 2,132,133
 -167 -24 -167 -24 -193.5 -35 c 128,-1,134
 -220 -46 -220 -46 -234 -46 c 0,135,136
 -261 -46 -261 -46 -261 -28 c 0,137,138
 -261 -19 -261 -19 -252.5 -13 c 128,-1,139
 -244 -7 -244 -7 -215 0 c 1,140,141
 -192 3 -192 3 -169 13.5 c 128,-1,142
 -146 24 -146 24 -115.5 53 c 128,-1,143
 -85 82 -85 82 -43.5 134 c 128,-1,144
 -2 186 -2 186 57 272 c 0,145,146
 126 372 126 372 201 476.5 c 128,-1,147
 276 581 276 581 366.5 693 c 128,-1,148
 457 805 457 805 567 925 c 128,-1,149
 677 1045 677 1045 815 1177 c 0,150,151
 859 1219 859 1219 901 1261.5 c 128,-1,152
 943 1304 943 1304 979 1338 c 128,-1,153
 1015 1372 1015 1372 1043 1393 c 128,-1,154
 1071 1414 1071 1414 1087 1414 c 0,155,156
 1096 1414 1096 1414 1102 1411.5 c 128,-1,157
 1108 1409 1108 1409 1108 1402 c 0,158,159
 1108 1394 1108 1394 1104.5 1391.5 c 128,-1,160
 1101 1389 1101 1389 1096 1386 c 2,161,-1
 1075 1374 l 1,162,-1
 1077 1374 l 1,163,164
 1066 1367 1066 1367 1049.5 1355.5 c 128,-1,165
 1033 1344 1033 1344 1011 1321 c 0,166,167
 992 1301 992 1301 972.5 1279.5 c 128,-1,168
 953 1258 953 1258 930 1229 c 128,-1,169
 907 1200 907 1200 877.5 1162 c 128,-1,170
 848 1124 848 1124 808.5 1071 c 128,-1,171
 769 1018 769 1018 718 948 c 128,-1,172
 667 878 667 878 601 786 c 0,173,174
 514 665 514 665 430.5 564 c 128,-1,175
 347 463 347 463 265 375 c 128,-1,176
 183 287 183 287 101.5 210 c 128,-1,177
 20 133 20 133 -63 60 c 1,0,1
-556 863 m 0,178,179
 -565 863 -565 863 -569 869.5 c 128,-1,180
 -573 876 -573 876 -573 881 c 0,181,182
 -573 891 -573 891 -568 912 c 128,-1,183
 -563 933 -563 933 -550 961.5 c 128,-1,184
 -537 990 -537 990 -515.5 1023.5 c 128,-1,185
 -494 1057 -494 1057 -461 1092 c 0,186,187
 -407 1149 -407 1149 -347.5 1190 c 128,-1,188
 -288 1231 -288 1231 -226.5 1257 c 128,-1,189
 -165 1283 -165 1283 -104 1295.5 c 128,-1,190
 -43 1308 -43 1308 13 1308 c 0,191,192
 92 1308 92 1308 172.5 1289 c 128,-1,193
 253 1270 253 1270 327.5 1247 c 128,-1,194
 402 1224 402 1224 467.5 1205 c 128,-1,195
 533 1186 533 1186 583 1186 c 0,196,197
 610 1186 610 1186 645.5 1193 c 128,-1,198
 681 1200 681 1200 720.5 1215 c 128,-1,199
 760 1230 760 1230 800.5 1253 c 128,-1,200
 841 1276 841 1276 879 1307 c 2,201,-1
 889 1315 l 2,202,203
 906 1329 906 1329 913 1331 c 1,204,205
 919 1331 919 1331 922.5 1328 c 128,-1,206
 926 1325 926 1325 926 1322 c 0,207,208
 925 1317 925 1317 922 1312 c 128,-1,209
 919 1307 919 1307 909 1298 c 0,210,211
 854 1248 854 1248 801.5 1214.5 c 128,-1,212
 749 1181 749 1181 698 1161 c 128,-1,213
 647 1141 647 1141 596.5 1132.5 c 128,-1,214
 546 1124 546 1124 496 1124 c 0,215,216
 455 1124 455 1124 418.5 1128 c 128,-1,217
 382 1132 382 1132 344.5 1139.5 c 128,-1,218
 307 1147 307 1147 266 1158.5 c 128,-1,219
 225 1170 225 1170 176 1185 c 1,220,221
 144 1196 144 1196 117 1203.5 c 128,-1,222
 90 1211 90 1211 65 1216 c 128,-1,223
 40 1221 40 1221 15 1223 c 128,-1,224
 -10 1225 -10 1225 -39 1225 c 0,225,226
 -97 1225 -97 1225 -158 1210.5 c 128,-1,227
 -219 1196 -219 1196 -276.5 1169.5 c 128,-1,228
 -334 1143 -334 1143 -384 1106 c 128,-1,229
 -434 1069 -434 1069 -471 1024 c 0,230,231
 -496 994 -496 994 -514 958 c 128,-1,232
 -532 922 -532 922 -532 892 c 0,233,234
 -532 878 -532 878 -540.5 870.5 c 128,-1,235
 -549 863 -549 863 -556 863 c 0,178,179
EndSplineSet
EndChar

StartChar: X
Encoding: 88 88 54
Width: 1559
Flags: W
LayerCount: 2
Fore
SplineSet
-41 -5 m 0,0,1
 -85 -5 -85 -5 -125.5 6 c 128,-1,2
 -166 17 -166 17 -197 38 c 128,-1,3
 -228 59 -228 59 -246 89.5 c 128,-1,4
 -264 120 -264 120 -264 158 c 0,5,6
 -264 182 -264 182 -255 199 c 128,-1,7
 -246 216 -246 216 -232 226.5 c 128,-1,8
 -218 237 -218 237 -201 242 c 128,-1,9
 -184 247 -184 247 -168 247 c 0,10,11
 -151 247 -151 247 -134 236 c 128,-1,12
 -117 225 -117 225 -117 199 c 0,13,14
 -117 179 -117 179 -135 163 c 128,-1,15
 -153 147 -153 147 -176 147 c 0,16,17
 -187 147 -187 147 -198 148.5 c 128,-1,18
 -209 150 -209 150 -219 155 c 1,19,20
 -219 123 -219 123 -205 99 c 128,-1,21
 -191 75 -191 75 -166.5 59.5 c 128,-1,22
 -142 44 -142 44 -108.5 36.5 c 128,-1,23
 -75 29 -75 29 -36 29 c 0,24,25
 15 29 15 29 81.5 52 c 128,-1,26
 148 75 148 75 223.5 117 c 128,-1,27
 299 159 299 159 379.5 218 c 128,-1,28
 460 277 460 277 538 349.5 c 128,-1,29
 616 422 616 422 688 505.5 c 128,-1,30
 760 589 760 589 819 681 c 1,31,-1
 819 680 l 1,32,33
 855 750 855 750 890.5 827.5 c 128,-1,34
 926 905 926 905 954.5 978 c 128,-1,35
 983 1051 983 1051 1000.5 1114 c 128,-1,36
 1018 1177 1018 1177 1018 1217 c 0,37,38
 1018 1302 1018 1302 972.5 1342 c 128,-1,39
 927 1382 927 1382 843 1382 c 0,40,41
 778 1382 778 1382 709 1355.5 c 128,-1,42
 640 1329 640 1329 575 1285.5 c 128,-1,43
 510 1242 510 1242 451.5 1185.5 c 128,-1,44
 393 1129 393 1129 348.5 1069.5 c 128,-1,45
 304 1010 304 1010 277 952 c 128,-1,46
 250 894 250 894 247 847 c 1,47,48
 249 761 249 761 333 761 c 0,49,50
 395 761 395 761 465.5 799 c 128,-1,51
 536 837 536 837 606 907 c 128,-1,52
 676 977 676 977 740.5 1076 c 128,-1,53
 805 1175 805 1175 855 1297 c 1,54,55
 865 1315 865 1315 872 1315 c 0,56,57
 877 1315 877 1315 883.5 1308 c 128,-1,58
 890 1301 890 1301 890 1279 c 0,59,60
 890 1232 890 1232 866.5 1173.5 c 128,-1,61
 843 1115 843 1115 802.5 1054.5 c 128,-1,62
 762 994 762 994 707 936 c 128,-1,63
 652 878 652 878 589.5 832.5 c 128,-1,64
 527 787 527 787 460 759.5 c 128,-1,65
 393 732 393 732 327 732 c 0,66,67
 273 732 273 732 242 759.5 c 128,-1,68
 211 787 211 787 211 844 c 0,69,70
 211 896 211 896 239 958.5 c 128,-1,71
 267 1021 267 1021 315 1084.5 c 128,-1,72
 363 1148 363 1148 426 1207 c 128,-1,73
 489 1266 489 1266 559 1312 c 128,-1,74
 629 1358 629 1358 701.5 1386 c 128,-1,75
 774 1414 774 1414 841 1414 c 0,76,77
 898 1414 898 1414 945 1401 c 128,-1,78
 992 1388 992 1388 1025.5 1357 c 128,-1,79
 1059 1326 1059 1326 1078 1273 c 128,-1,80
 1097 1220 1097 1220 1097 1141 c 0,81,82
 1097 1099 1097 1099 1090 1053 c 128,-1,83
 1083 1007 1083 1007 1071.5 960.5 c 128,-1,84
 1060 914 1060 914 1044.5 869 c 128,-1,85
 1029 824 1029 824 1012 785 c 1,86,87
 1284 1090 1284 1090 1514 1246 c 128,-1,88
 1744 1402 1744 1402 1925 1402 c 0,89,90
 1973 1402 1973 1402 2002 1379 c 128,-1,91
 2031 1356 2031 1356 2031 1320 c 0,92,93
 2031 1286 2031 1286 2013.5 1270.5 c 128,-1,94
 1996 1255 1996 1255 1976 1255 c 0,95,96
 1953 1255 1953 1255 1941.5 1272.5 c 128,-1,97
 1930 1290 1930 1290 1930 1310 c 0,98,99
 1930 1342 1930 1342 1955 1361 c 1,100,101
 1940 1366 1940 1366 1929 1366 c 0,102,103
 1839 1366 1839 1366 1742 1328 c 128,-1,104
 1645 1290 1645 1290 1544 1223.5 c 128,-1,105
 1443 1157 1443 1157 1339 1065.5 c 128,-1,106
 1235 974 1235 974 1131 867 c 1,107,-1
 1104 838 l 2,108,109
 1084 816 1084 816 1066 797 c 128,-1,110
 1048 778 1048 778 1031.5 758.5 c 128,-1,111
 1015 739 1015 739 998.5 717.5 c 128,-1,112
 982 696 982 696 964 669 c 1,113,-1
 965 669 l 1,114,115
 925 602 925 602 890.5 530.5 c 128,-1,116
 856 459 856 459 830 392 c 128,-1,117
 804 325 804 325 788.5 268.5 c 128,-1,118
 773 212 773 212 772 175 c 1,119,120
 772 128 772 128 784 98.5 c 128,-1,121
 796 69 796 69 815.5 52.5 c 128,-1,122
 835 36 835 36 860.5 30 c 128,-1,123
 886 24 886 24 913 24 c 0,124,125
 959 24 959 24 1014.5 42 c 128,-1,126
 1070 60 1070 60 1127 93 c 128,-1,127
 1184 126 1184 126 1238 173 c 128,-1,128
 1292 220 1292 220 1333.5 277.5 c 128,-1,129
 1375 335 1375 335 1400.5 402.5 c 128,-1,130
 1426 470 1426 470 1426 544 c 0,131,132
 1426 622 1426 622 1394.5 659 c 128,-1,133
 1363 696 1363 696 1313 696 c 0,134,135
 1280 696 1280 696 1249.5 680 c 128,-1,136
 1219 664 1219 664 1195 637.5 c 128,-1,137
 1171 611 1171 611 1156.5 576.5 c 128,-1,138
 1142 542 1142 542 1142 505 c 0,139,140
 1142 481 1142 481 1148.5 458.5 c 128,-1,141
 1155 436 1155 436 1177 422 c 1,142,143
 1190 412 1190 412 1190 401 c 256,144,145
 1190 390 1190 390 1182.5 384.5 c 128,-1,146
 1175 379 1175 379 1167 379 c 0,147,148
 1156 379 1156 379 1143.5 386 c 128,-1,149
 1131 393 1131 393 1120.5 407 c 128,-1,150
 1110 421 1110 421 1102.5 443 c 128,-1,151
 1095 465 1095 465 1095 494 c 0,152,153
 1095 542 1095 542 1113.5 584.5 c 128,-1,154
 1132 627 1132 627 1162.5 658.5 c 128,-1,155
 1193 690 1193 690 1233.5 708.5 c 128,-1,156
 1274 727 1274 727 1318 727 c 0,157,158
 1386 727 1386 727 1427.5 681.5 c 128,-1,159
 1469 636 1469 636 1469 552 c 0,160,161
 1469 481 1469 481 1443.5 412 c 128,-1,162
 1418 343 1418 343 1375 281 c 128,-1,163
 1332 219 1332 219 1275 167 c 128,-1,164
 1218 115 1218 115 1155.5 76.5 c 128,-1,165
 1093 38 1093 38 1028 16.5 c 128,-1,166
 963 -5 963 -5 904 -5 c 0,167,168
 787 -5 787 -5 725 45.5 c 128,-1,169
 663 96 663 96 663 202 c 0,170,171
 663 238 663 238 669.5 278 c 128,-1,172
 676 318 676 318 688 359 c 128,-1,173
 700 400 700 400 716.5 440.5 c 128,-1,174
 733 481 733 481 753 519 c 1,175,176
 646 391 646 391 533.5 293 c 128,-1,177
 421 195 421 195 315.5 129 c 128,-1,178
 210 63 210 63 117.5 29 c 128,-1,179
 25 -5 25 -5 -41 -5 c 0,0,1
EndSplineSet
EndChar

StartChar: Y
Encoding: 89 89 55
Width: 1174
Flags: W
LayerCount: 2
Fore
SplineSet
-118 -41 m 0,0,1
 -118 -61 -118 -61 -136 -77 c 128,-1,2
 -154 -93 -154 -93 -177 -93 c 0,3,4
 -187 -93 -187 -93 -196.5 -92 c 128,-1,5
 -206 -91 -206 -91 -214 -87 c 1,6,7
 -217 -96 -217 -96 -217 -104 c 0,8,9
 -217 -130 -217 -130 -199.5 -153.5 c 128,-1,10
 -182 -177 -182 -177 -151.5 -194 c 128,-1,11
 -121 -211 -121 -211 -79 -221 c 128,-1,12
 -37 -231 -37 -231 12 -231 c 0,13,14
 79 -231 79 -231 162 -194.5 c 128,-1,15
 245 -158 245 -158 336 -86.5 c 128,-1,16
 427 -15 427 -15 523 90 c 128,-1,17
 619 195 619 195 714 332 c 1,18,19
 780 429 780 429 851.5 532 c 128,-1,20
 923 635 923 635 990 724 c 1,21,22
 876 608 876 608 787 533.5 c 128,-1,23
 698 459 698 459 630.5 416.5 c 128,-1,24
 563 374 563 374 515.5 357.5 c 128,-1,25
 468 341 468 341 437 341 c 0,26,27
 409 341 409 341 389 350.5 c 128,-1,28
 369 360 369 360 356 375.5 c 128,-1,29
 343 391 343 391 337 410 c 128,-1,30
 331 429 331 429 331 448 c 0,31,32
 331 494 331 494 355.5 555.5 c 128,-1,33
 380 617 380 617 422.5 685 c 128,-1,34
 465 753 465 753 522 824 c 128,-1,35
 579 895 579 895 644 961 c 1,36,37
 722 1037 722 1037 768 1085.5 c 128,-1,38
 814 1134 814 1134 838 1164.5 c 128,-1,39
 862 1195 862 1195 869 1212 c 128,-1,40
 876 1229 876 1229 876 1242 c 0,41,42
 876 1296 876 1296 828.5 1320.5 c 128,-1,43
 781 1345 781 1345 687 1345 c 0,44,45
 611 1345 611 1345 531 1321 c 128,-1,46
 451 1297 451 1297 375 1257 c 128,-1,47
 299 1217 299 1217 231.5 1165.5 c 128,-1,48
 164 1114 164 1114 113.5 1058.5 c 128,-1,49
 63 1003 63 1003 33.5 948 c 128,-1,50
 4 893 4 893 4 846 c 0,51,52
 4 808 4 808 25 787 c 128,-1,53
 46 766 46 766 91 766 c 0,54,55
 142 766 142 766 199 797 c 128,-1,56
 256 828 256 828 312.5 875.5 c 128,-1,57
 369 923 369 923 421 980.5 c 128,-1,58
 473 1038 473 1038 514 1091.5 c 128,-1,59
 555 1145 555 1145 581.5 1188 c 128,-1,60
 608 1231 608 1231 613 1249 c 1,61,62
 618 1260 618 1260 620 1262 c 128,-1,63
 622 1264 622 1264 626 1264 c 0,64,65
 631 1264 631 1264 635 1256 c 128,-1,66
 639 1248 639 1248 639 1238 c 0,67,68
 639 1191 639 1191 612 1134 c 128,-1,69
 585 1077 585 1077 540 1019.5 c 128,-1,70
 495 962 495 962 437.5 907.5 c 128,-1,71
 380 853 380 853 319 811 c 128,-1,72
 258 769 258 769 197.5 743.5 c 128,-1,73
 137 718 137 718 88 718 c 0,74,75
 28 718 28 718 -1.5 750.5 c 128,-1,76
 -31 783 -31 783 -31 837 c 0,77,78
 -31 892 -31 892 -0.5 953.5 c 128,-1,79
 30 1015 30 1015 83 1075 c 128,-1,80
 136 1135 136 1135 206.5 1190 c 128,-1,81
 277 1245 277 1245 356.5 1287 c 128,-1,82
 436 1329 436 1329 521 1354 c 128,-1,83
 606 1379 606 1379 687 1379 c 0,84,85
 738 1379 738 1379 782.5 1371 c 128,-1,86
 827 1363 827 1363 860.5 1345 c 128,-1,87
 894 1327 894 1327 913.5 1299 c 128,-1,88
 933 1271 933 1271 933 1231 c 0,89,90
 933 1157 933 1157 863.5 1044.5 c 128,-1,91
 794 932 794 932 635 779 c 0,92,93
 577 723 577 723 529.5 672 c 128,-1,94
 482 621 482 621 448 577.5 c 128,-1,95
 414 534 414 534 395.5 498 c 128,-1,96
 377 462 377 462 377 437 c 0,97,98
 377 410 377 410 392 390 c 128,-1,99
 407 370 407 370 440 370 c 0,100,101
 472 370 472 370 531.5 398 c 128,-1,102
 591 426 591 426 684 498 c 128,-1,103
 777 570 777 570 907.5 693.5 c 128,-1,104
 1038 817 1038 817 1211 1008 c 0,105,106
 1263 1065 1263 1065 1312.5 1107.5 c 128,-1,107
 1362 1150 1362 1150 1404.5 1178 c 128,-1,108
 1447 1206 1447 1206 1480 1220 c 128,-1,109
 1513 1234 1513 1234 1532 1234 c 0,110,111
 1552 1234 1552 1234 1552 1220 c 0,112,113
 1552 1210 1552 1210 1534 1204 c 0,114,115
 1406 1162 1406 1162 1270 999 c 128,-1,116
 1134 836 1134 836 975 541 c 0,117,118
 874 355 874 355 752.5 206.5 c 128,-1,119
 631 58 631 58 503 -46.5 c 128,-1,120
 375 -151 375 -151 247 -207 c 128,-1,121
 119 -263 119 -263 7 -263 c 0,122,123
 -49 -263 -49 -263 -98 -251 c 128,-1,124
 -147 -239 -147 -239 -183.5 -216.5 c 128,-1,125
 -220 -194 -220 -194 -241 -161.5 c 128,-1,126
 -262 -129 -262 -129 -262 -88 c 0,127,128
 -262 -66 -262 -66 -253.5 -48 c 128,-1,129
 -245 -30 -245 -30 -231.5 -18 c 128,-1,130
 -218 -6 -218 -6 -202 0.5 c 128,-1,131
 -186 7 -186 7 -170 7 c 256,132,133
 -154 7 -154 7 -136 -4.5 c 128,-1,134
 -118 -16 -118 -16 -118 -41 c 0,0,1
EndSplineSet
EndChar

